<?xml version="1.0" encoding="utf-8"?>
<!DOCTYPE svg PUBLIC "-//W3C//DTD SVG 20010904//EN" "http://www.w3.org/TR/2001/REC-SVG-20010904/DTD/svg10.dtd">
<svg xmlns="http://www.w3.org/2000/svg" xml:space="preserve" xmlns:xlink="http://www.w3.org/1999/xlink" width="990" height="990" viewBox="0 0 990 990">
<defs>
<mask id="qrmask"><g fill="#ffffff">
<g transform="translate(220,44) scale(3.6666666666667)"><rect width="6" height="6"/></g>
<g transform="translate(242,44) scale(3.6666666666667)"><rect width="6" height="6"/></g>
<g transform="translate(286,44) scale(3.6666666666667)"><rect width="6" height="6"/></g>
<g transform="translate(308,44) scale(3.6666666666667)"><rect width="6" height="6"/></g>
<g transform="translate(374,44) scale(3.6666666666667)"><rect width="6" height="6"/></g>
<g transform="translate(418,44) scale(3.6666666666667)"><rect width="6" height="6"/></g>
<g transform="translate(462,44) scale(3.6666666666667)"><rect width="6" height="6"/></g>
<g transform="translate(506,44) scale(3.6666666666667)"><rect width="6" height="6"/></g>
<g transform="translate(528,44) scale(3.6666666666667)"><rect width="6" height="6"/></g>
<g transform="translate(550,44) scale(3.6666666666667)"><rect width="6" height="6"/></g>
<g transform="translate(572,44) scale(3.6666666666667)"><rect width="6" height="6"/></g>
<g transform="translate(682,44) scale(3.6666666666667)"><rect width="6" height="6"/></g>
<g transform="translate(726,44) scale(3.6666666666667)"><rect width="6" height="6"/></g>
<g transform="translate(220,66) scale(3.6666666666667)"><rect width="6" height="6"/></g>
<g transform="translate(242,66) scale(3.6666666666667)"><rect width="6" height="6"/></g>
<g transform="translate(286,66) scale(3.6666666666667)"><rect width="6" height="6"/></g>
<g transform="translate(396,66) scale(3.6666666666667)"><rect width="6" height="6"/></g>
<g transform="translate(506,66) scale(3.6666666666667)"><rect width="6" height="6"/></g>
<g transform="translate(528,66) scale(3.6666666666667)"><rect width="6" height="6"/></g>
<g transform="translate(550,66) scale(3.6666666666667)"><rect width="6" height="6"/></g>
<g transform="translate(638,66) scale(3.6666666666667)"><rect width="6" height="6"/></g>
<g transform="translate(660,66) scale(3.6666666666667)"><rect width="6" height="6"/></g>
<g transform="translate(682,66) scale(3.6666666666667)"><rect width="6" height="6"/></g>
<g transform="translate(220,88) scale(3.6666666666667)"><rect width="6" height="6"/></g>
<g transform="translate(286,88) scale(3.6666666666667)"><rect width="6" height="6"/></g>
<g transform="translate(352,88) scale(3.6666666666667)"><rect width="6" height="6"/></g>
<g transform="translate(396,88) scale(3.6666666666667)"><rect width="6" height="6"/></g>
<g transform="translate(506,88) scale(3.6666666666667)"><rect width="6" height="6"/></g>
<g transform="translate(616,88) scale(3.6666666666667)"><rect width="6" height="6"/></g>
<g transform="translate(682,88) scale(3.6666666666667)"><rect width="6" height="6"/></g>
<g transform="translate(704,88) scale(3.6666666666667)"><rect width="6" height="6"/></g>
<g transform="translate(748,88) scale(3.6666666666667)"><rect width="6" height="6"/></g>
<g transform="translate(242,110) scale(3.6666666666667)"><rect width="6" height="6"/></g>
<g transform="translate(286,110) scale(3.6666666666667)"><rect width="6" height="6"/></g>
<g transform="translate(308,110) scale(3.6666666666667)"><rect width="6" height="6"/></g>
<g transform="translate(330,110) scale(3.6666666666667)"><rect width="6" height="6"/></g>
<g transform="translate(352,110) scale(3.6666666666667)"><rect width="6" height="6"/></g>
<g transform="translate(396,110) scale(3.6666666666667)"><rect width="6" height="6"/></g>
<g transform="translate(506,110) scale(3.6666666666667)"><rect width="6" height="6"/></g>
<g transform="translate(528,110) scale(3.6666666666667)"><rect width="6" height="6"/></g>
<g transform="translate(550,110) scale(3.6666666666667)"><rect width="6" height="6"/></g>
<g transform="translate(572,110) scale(3.6666666666667)"><rect width="6" height="6"/></g>
<g transform="translate(638,110) scale(3.6666666666667)"><rect width="6" height="6"/></g>
<g transform="translate(286,132) scale(3.6666666666667)"><rect width="6" height="6"/></g>
<g transform="translate(308,132) scale(3.6666666666667)"><rect width="6" height="6"/></g>
<g transform="translate(330,132) scale(3.6666666666667)"><rect width="6" height="6"/></g>
<g transform="translate(352,132) scale(3.6666666666667)"><rect width="6" height="6"/></g>
<g transform="translate(440,132) scale(3.6666666666667)"><rect width="6" height="6"/></g>
<g transform="translate(462,132) scale(3.6666666666667)"><rect width="6" height="6"/></g>
<g transform="translate(484,132) scale(3.6666666666667)"><rect width="6" height="6"/></g>
<g transform="translate(616,132) scale(3.6666666666667)"><rect width="6" height="6"/></g>
<g transform="translate(638,132) scale(3.6666666666667)"><rect width="6" height="6"/></g>
<g transform="translate(704,132) scale(3.6666666666667)"><rect width="6" height="6"/></g>
<g transform="translate(748,132) scale(3.6666666666667)"><rect width="6" height="6"/></g>
<g transform="translate(220,154) scale(3.6666666666667)"><rect width="6" height="6"/></g>
<g transform="translate(308,154) scale(3.6666666666667)"><rect width="6" height="6"/></g>
<g transform="translate(374,154) scale(3.6666666666667)"><rect width="6" height="6"/></g>
<g transform="translate(440,154) scale(3.6666666666667)"><rect width="6" height="6"/></g>
<g transform="translate(506,154) scale(3.6666666666667)"><rect width="6" height="6"/></g>
<g transform="translate(550,154) scale(3.6666666666667)"><rect width="6" height="6"/></g>
<g transform="translate(616,154) scale(3.6666666666667)"><rect width="6" height="6"/></g>
<g transform="translate(660,154) scale(3.6666666666667)"><rect width="6" height="6"/></g>
<g transform="translate(682,154) scale(3.6666666666667)"><rect width="6" height="6"/></g>
<g transform="translate(220,176) scale(3.6666666666667)"><rect width="6" height="6"/></g>
<g transform="translate(264,176) scale(3.6666666666667)"><rect width="6" height="6"/></g>
<g transform="translate(308,176) scale(3.6666666666667)"><rect width="6" height="6"/></g>
<g transform="translate(352,176) scale(3.6666666666667)"><rect width="6" height="6"/></g>
<g transform="translate(396,176) scale(3.6666666666667)"><rect width="6" height="6"/></g>
<g transform="translate(440,176) scale(3.6666666666667)"><rect width="6" height="6"/></g>
<g transform="translate(484,176) scale(3.6666666666667)"><rect width="6" height="6"/></g>
<g transform="translate(528,176) scale(3.6666666666667)"><rect width="6" height="6"/></g>
<g transform="translate(572,176) scale(3.6666666666667)"><rect width="6" height="6"/></g>
<g transform="translate(616,176) scale(3.6666666666667)"><rect width="6" height="6"/></g>
<g transform="translate(660,176) scale(3.6666666666667)"><rect width="6" height="6"/></g>
<g transform="translate(704,176) scale(3.6666666666667)"><rect width="6" height="6"/></g>
<g transform="translate(748,176) scale(3.6666666666667)"><rect width="6" height="6"/></g>
<g transform="translate(220,198) scale(3.6666666666667)"><rect width="6" height="6"/></g>
<g transform="translate(264,198) scale(3.6666666666667)"><rect width="6" height="6"/></g>
<g transform="translate(286,198) scale(3.6666666666667)"><rect width="6" height="6"/></g>
<g transform="translate(396,198) scale(3.6666666666667)"><rect width="6" height="6"/></g>
<g transform="translate(440,198) scale(3.6666666666667)"><rect width="6" height="6"/></g>
<g transform="translate(506,198) scale(3.6666666666667)"><rect width="6" height="6"/></g>
<g transform="translate(616,198) scale(3.6666666666667)"><rect width="6" height="6"/></g>
<g transform="translate(660,198) scale(3.6666666666667)"><rect width="6" height="6"/></g>
<g transform="translate(748,198) scale(3.6666666666667)"><rect width="6" height="6"/></g>
<g transform="translate(88,220) scale(3.6666666666667)"><rect width="6" height="6"/></g>
<g transform="translate(110,220) scale(3.6666666666667)"><rect width="6" height="6"/></g>
<g transform="translate(132,220) scale(3.6666666666667)"><rect width="6" height="6"/></g>
<g transform="translate(176,220) scale(3.6666666666667)"><rect width="6" height="6"/></g>
<g transform="translate(220,220) scale(3.6666666666667)"><rect width="6" height="6"/></g>
<g transform="translate(264,220) scale(3.6666666666667)"><rect width="6" height="6"/></g>
<g transform="translate(330,220) scale(3.6666666666667)"><rect width="6" height="6"/></g>
<g transform="translate(352,220) scale(3.6666666666667)"><rect width="6" height="6"/></g>
<g transform="translate(396,220) scale(3.6666666666667)"><rect width="6" height="6"/></g>
<g transform="translate(418,220) scale(3.6666666666667)"><rect width="6" height="6"/></g>
<g transform="translate(462,220) scale(3.6666666666667)"><rect width="6" height="6"/></g>
<g transform="translate(550,220) scale(3.6666666666667)"><rect width="6" height="6"/></g>
<g transform="translate(572,220) scale(3.6666666666667)"><rect width="6" height="6"/></g>
<g transform="translate(594,220) scale(3.6666666666667)"><rect width="6" height="6"/></g>
<g transform="translate(616,220) scale(3.6666666666667)"><rect width="6" height="6"/></g>
<g transform="translate(638,220) scale(3.6666666666667)"><rect width="6" height="6"/></g>
<g transform="translate(682,220) scale(3.6666666666667)"><rect width="6" height="6"/></g>
<g transform="translate(748,220) scale(3.6666666666667)"><rect width="6" height="6"/></g>
<g transform="translate(770,220) scale(3.6666666666667)"><rect width="6" height="6"/></g>
<g transform="translate(792,220) scale(3.6666666666667)"><rect width="6" height="6"/></g>
<g transform="translate(814,220) scale(3.6666666666667)"><rect width="6" height="6"/></g>
<g transform="translate(880,220) scale(3.6666666666667)"><rect width="6" height="6"/></g>
<g transform="translate(902,220) scale(3.6666666666667)"><rect width="6" height="6"/></g>
<g transform="translate(924,220) scale(3.6666666666667)"><rect width="6" height="6"/></g>
<g transform="translate(44,242) scale(3.6666666666667)"><rect width="6" height="6"/></g>
<g transform="translate(66,242) scale(3.6666666666667)"><rect width="6" height="6"/></g>
<g transform="translate(88,242) scale(3.6666666666667)"><rect width="6" height="6"/></g>
<g transform="translate(110,242) scale(3.6666666666667)"><rect width="6" height="6"/></g>
<g transform="translate(154,242) scale(3.6666666666667)"><rect width="6" height="6"/></g>
<g transform="translate(220,242) scale(3.6666666666667)"><rect width="6" height="6"/></g>
<g transform="translate(264,242) scale(3.6666666666667)"><rect width="6" height="6"/></g>
<g transform="translate(352,242) scale(3.6666666666667)"><rect width="6" height="6"/></g>
<g transform="translate(374,242) scale(3.6666666666667)"><rect width="6" height="6"/></g>
<g transform="translate(418,242) scale(3.6666666666667)"><rect width="6" height="6"/></g>
<g transform="translate(462,242) scale(3.6666666666667)"><rect width="6" height="6"/></g>
<g transform="translate(484,242) scale(3.6666666666667)"><rect width="6" height="6"/></g>
<g transform="translate(506,242) scale(3.6666666666667)"><rect width="6" height="6"/></g>
<g transform="translate(594,242) scale(3.6666666666667)"><rect width="6" height="6"/></g>
<g transform="translate(704,242) scale(3.6666666666667)"><rect width="6" height="6"/></g>
<g transform="translate(726,242) scale(3.6666666666667)"><rect width="6" height="6"/></g>
<g transform="translate(748,242) scale(3.6666666666667)"><rect width="6" height="6"/></g>
<g transform="translate(792,242) scale(3.6666666666667)"><rect width="6" height="6"/></g>
<g transform="translate(836,242) scale(3.6666666666667)"><rect width="6" height="6"/></g>
<g transform="translate(880,242) scale(3.6666666666667)"><rect width="6" height="6"/></g>
<g transform="translate(924,242) scale(3.6666666666667)"><rect width="6" height="6"/></g>
<g transform="translate(66,264) scale(3.6666666666667)"><rect width="6" height="6"/></g>
<g transform="translate(110,264) scale(3.6666666666667)"><rect width="6" height="6"/></g>
<g transform="translate(132,264) scale(3.6666666666667)"><rect width="6" height="6"/></g>
<g transform="translate(176,264) scale(3.6666666666667)"><rect width="6" height="6"/></g>
<g transform="translate(198,264) scale(3.6666666666667)"><rect width="6" height="6"/></g>
<g transform="translate(220,264) scale(3.6666666666667)"><rect width="6" height="6"/></g>
<g transform="translate(264,264) scale(3.6666666666667)"><rect width="6" height="6"/></g>
<g transform="translate(286,264) scale(3.6666666666667)"><rect width="6" height="6"/></g>
<g transform="translate(352,264) scale(3.6666666666667)"><rect width="6" height="6"/></g>
<g transform="translate(462,264) scale(3.6666666666667)"><rect width="6" height="6"/></g>
<g transform="translate(528,264) scale(3.6666666666667)"><rect width="6" height="6"/></g>
<g transform="translate(550,264) scale(3.6666666666667)"><rect width="6" height="6"/></g>
<g transform="translate(616,264) scale(3.6666666666667)"><rect width="6" height="6"/></g>
<g transform="translate(638,264) scale(3.6666666666667)"><rect width="6" height="6"/></g>
<g transform="translate(660,264) scale(3.6666666666667)"><rect width="6" height="6"/></g>
<g transform="translate(704,264) scale(3.6666666666667)"><rect width="6" height="6"/></g>
<g transform="translate(748,264) scale(3.6666666666667)"><rect width="6" height="6"/></g>
<g transform="translate(792,264) scale(3.6666666666667)"><rect width="6" height="6"/></g>
<g transform="translate(814,264) scale(3.6666666666667)"><rect width="6" height="6"/></g>
<g transform="translate(924,264) scale(3.6666666666667)"><rect width="6" height="6"/></g>
<g transform="translate(44,286) scale(3.6666666666667)"><rect width="6" height="6"/></g>
<g transform="translate(132,286) scale(3.6666666666667)"><rect width="6" height="6"/></g>
<g transform="translate(154,286) scale(3.6666666666667)"><rect width="6" height="6"/></g>
<g transform="translate(198,286) scale(3.6666666666667)"><rect width="6" height="6"/></g>
<g transform="translate(220,286) scale(3.6666666666667)"><rect width="6" height="6"/></g>
<g transform="translate(286,286) scale(3.6666666666667)"><rect width="6" height="6"/></g>
<g transform="translate(330,286) scale(3.6666666666667)"><rect width="6" height="6"/></g>
<g transform="translate(352,286) scale(3.6666666666667)"><rect width="6" height="6"/></g>
<g transform="translate(374,286) scale(3.6666666666667)"><rect width="6" height="6"/></g>
<g transform="translate(396,286) scale(3.6666666666667)"><rect width="6" height="6"/></g>
<g transform="translate(418,286) scale(3.6666666666667)"><rect width="6" height="6"/></g>
<g transform="translate(440,286) scale(3.6666666666667)"><rect width="6" height="6"/></g>
<g transform="translate(462,286) scale(3.6666666666667)"><rect width="6" height="6"/></g>
<g transform="translate(484,286) scale(3.6666666666667)"><rect width="6" height="6"/></g>
<g transform="translate(506,286) scale(3.6666666666667)"><rect width="6" height="6"/></g>
<g transform="translate(528,286) scale(3.6666666666667)"><rect width="6" height="6"/></g>
<g transform="translate(550,286) scale(3.6666666666667)"><rect width="6" height="6"/></g>
<g transform="translate(572,286) scale(3.6666666666667)"><rect width="6" height="6"/></g>
<g transform="translate(616,286) scale(3.6666666666667)"><rect width="6" height="6"/></g>
<g transform="translate(638,286) scale(3.6666666666667)"><rect width="6" height="6"/></g>
<g transform="translate(660,286) scale(3.6666666666667)"><rect width="6" height="6"/></g>
<g transform="translate(726,286) scale(3.6666666666667)"><rect width="6" height="6"/></g>
<g transform="translate(748,286) scale(3.6666666666667)"><rect width="6" height="6"/></g>
<g transform="translate(770,286) scale(3.6666666666667)"><rect width="6" height="6"/></g>
<g transform="translate(792,286) scale(3.6666666666667)"><rect width="6" height="6"/></g>
<g transform="translate(814,286) scale(3.6666666666667)"><rect width="6" height="6"/></g>
<g transform="translate(836,286) scale(3.6666666666667)"><rect width="6" height="6"/></g>
<g transform="translate(858,286) scale(3.6666666666667)"><rect width="6" height="6"/></g>
<g transform="translate(924,286) scale(3.6666666666667)"><rect width="6" height="6"/></g>
<g transform="translate(44,308) scale(3.6666666666667)"><rect width="6" height="6"/></g>
<g transform="translate(66,308) scale(3.6666666666667)"><rect width="6" height="6"/></g>
<g transform="translate(110,308) scale(3.6666666666667)"><rect width="6" height="6"/></g>
<g transform="translate(132,308) scale(3.6666666666667)"><rect width="6" height="6"/></g>
<g transform="translate(154,308) scale(3.6666666666667)"><rect width="6" height="6"/></g>
<g transform="translate(176,308) scale(3.6666666666667)"><rect width="6" height="6"/></g>
<g transform="translate(198,308) scale(3.6666666666667)"><rect width="6" height="6"/></g>
<g transform="translate(242,308) scale(3.6666666666667)"><rect width="6" height="6"/></g>
<g transform="translate(264,308) scale(3.6666666666667)"><rect width="6" height="6"/></g>
<g transform="translate(286,308) scale(3.6666666666667)"><rect width="6" height="6"/></g>
<g transform="translate(308,308) scale(3.6666666666667)"><rect width="6" height="6"/></g>
<g transform="translate(330,308) scale(3.6666666666667)"><rect width="6" height="6"/></g>
<g transform="translate(396,308) scale(3.6666666666667)"><rect width="6" height="6"/></g>
<g transform="translate(418,308) scale(3.6666666666667)"><rect width="6" height="6"/></g>
<g transform="translate(484,308) scale(3.6666666666667)"><rect width="6" height="6"/></g>
<g transform="translate(528,308) scale(3.6666666666667)"><rect width="6" height="6"/></g>
<g transform="translate(572,308) scale(3.6666666666667)"><rect width="6" height="6"/></g>
<g transform="translate(594,308) scale(3.6666666666667)"><rect width="6" height="6"/></g>
<g transform="translate(616,308) scale(3.6666666666667)"><rect width="6" height="6"/></g>
<g transform="translate(638,308) scale(3.6666666666667)"><rect width="6" height="6"/></g>
<g transform="translate(726,308) scale(3.6666666666667)"><rect width="6" height="6"/></g>
<g transform="translate(748,308) scale(3.6666666666667)"><rect width="6" height="6"/></g>
<g transform="translate(792,308) scale(3.6666666666667)"><rect width="6" height="6"/></g>
<g transform="translate(814,308) scale(3.6666666666667)"><rect width="6" height="6"/></g>
<g transform="translate(858,308) scale(3.6666666666667)"><rect width="6" height="6"/></g>
<g transform="translate(880,308) scale(3.6666666666667)"><rect width="6" height="6"/></g>
<g transform="translate(902,308) scale(3.6666666666667)"><rect width="6" height="6"/></g>
<g transform="translate(66,330) scale(3.6666666666667)"><rect width="6" height="6"/></g>
<g transform="translate(198,330) scale(3.6666666666667)"><rect width="6" height="6"/></g>
<g transform="translate(242,330) scale(3.6666666666667)"><rect width="6" height="6"/></g>
<g transform="translate(264,330) scale(3.6666666666667)"><rect width="6" height="6"/></g>
<g transform="translate(462,330) scale(3.6666666666667)"><rect width="6" height="6"/></g>
<g transform="translate(484,330) scale(3.6666666666667)"><rect width="6" height="6"/></g>
<g transform="translate(506,330) scale(3.6666666666667)"><rect width="6" height="6"/></g>
<g transform="translate(550,330) scale(3.6666666666667)"><rect width="6" height="6"/></g>
<g transform="translate(572,330) scale(3.6666666666667)"><rect width="6" height="6"/></g>
<g transform="translate(616,330) scale(3.6666666666667)"><rect width="6" height="6"/></g>
<g transform="translate(638,330) scale(3.6666666666667)"><rect width="6" height="6"/></g>
<g transform="translate(660,330) scale(3.6666666666667)"><rect width="6" height="6"/></g>
<g transform="translate(770,330) scale(3.6666666666667)"><rect width="6" height="6"/></g>
<g transform="translate(836,330) scale(3.6666666666667)"><rect width="6" height="6"/></g>
<g transform="translate(44,352) scale(3.6666666666667)"><rect width="6" height="6"/></g>
<g transform="translate(176,352) scale(3.6666666666667)"><rect width="6" height="6"/></g>
<g transform="translate(286,352) scale(3.6666666666667)"><rect width="6" height="6"/></g>
<g transform="translate(308,352) scale(3.6666666666667)"><rect width="6" height="6"/></g>
<g transform="translate(352,352) scale(3.6666666666667)"><rect width="6" height="6"/></g>
<g transform="translate(396,352) scale(3.6666666666667)"><rect width="6" height="6"/></g>
<g transform="translate(440,352) scale(3.6666666666667)"><rect width="6" height="6"/></g>
<g transform="translate(506,352) scale(3.6666666666667)"><rect width="6" height="6"/></g>
<g transform="translate(528,352) scale(3.6666666666667)"><rect width="6" height="6"/></g>
<g transform="translate(550,352) scale(3.6666666666667)"><rect width="6" height="6"/></g>
<g transform="translate(572,352) scale(3.6666666666667)"><rect width="6" height="6"/></g>
<g transform="translate(594,352) scale(3.6666666666667)"><rect width="6" height="6"/></g>
<g transform="translate(616,352) scale(3.6666666666667)"><rect width="6" height="6"/></g>
<g transform="translate(682,352) scale(3.6666666666667)"><rect width="6" height="6"/></g>
<g transform="translate(748,352) scale(3.6666666666667)"><rect width="6" height="6"/></g>
<g transform="translate(770,352) scale(3.6666666666667)"><rect width="6" height="6"/></g>
<g transform="translate(880,352) scale(3.6666666666667)"><rect width="6" height="6"/></g>
<g transform="translate(924,352) scale(3.6666666666667)"><rect width="6" height="6"/></g>
<g transform="translate(66,374) scale(3.6666666666667)"><rect width="6" height="6"/></g>
<g transform="translate(110,374) scale(3.6666666666667)"><rect width="6" height="6"/></g>
<g transform="translate(198,374) scale(3.6666666666667)"><rect width="6" height="6"/></g>
<g transform="translate(220,374) scale(3.6666666666667)"><rect width="6" height="6"/></g>
<g transform="translate(308,374) scale(3.6666666666667)"><rect width="6" height="6"/></g>
<g transform="translate(352,374) scale(3.6666666666667)"><rect width="6" height="6"/></g>
<g transform="translate(396,374) scale(3.6666666666667)"><rect width="6" height="6"/></g>
<g transform="translate(484,374) scale(3.6666666666667)"><rect width="6" height="6"/></g>
<g transform="translate(506,374) scale(3.6666666666667)"><rect width="6" height="6"/></g>
<g transform="translate(528,374) scale(3.6666666666667)"><rect width="6" height="6"/></g>
<g transform="translate(550,374) scale(3.6666666666667)"><rect width="6" height="6"/></g>
<g transform="translate(616,374) scale(3.6666666666667)"><rect width="6" height="6"/></g>
<g transform="translate(660,374) scale(3.6666666666667)"><rect width="6" height="6"/></g>
<g transform="translate(682,374) scale(3.6666666666667)"><rect width="6" height="6"/></g>
<g transform="translate(704,374) scale(3.6666666666667)"><rect width="6" height="6"/></g>
<g transform="translate(792,374) scale(3.6666666666667)"><rect width="6" height="6"/></g>
<g transform="translate(924,374) scale(3.6666666666667)"><rect width="6" height="6"/></g>
<g transform="translate(66,396) scale(3.6666666666667)"><rect width="6" height="6"/></g>
<g transform="translate(110,396) scale(3.6666666666667)"><rect width="6" height="6"/></g>
<g transform="translate(132,396) scale(3.6666666666667)"><rect width="6" height="6"/></g>
<g transform="translate(176,396) scale(3.6666666666667)"><rect width="6" height="6"/></g>
<g transform="translate(198,396) scale(3.6666666666667)"><rect width="6" height="6"/></g>
<g transform="translate(242,396) scale(3.6666666666667)"><rect width="6" height="6"/></g>
<g transform="translate(264,396) scale(3.6666666666667)"><rect width="6" height="6"/></g>
<g transform="translate(308,396) scale(3.6666666666667)"><rect width="6" height="6"/></g>
<g transform="translate(330,396) scale(3.6666666666667)"><rect width="6" height="6"/></g>
<g transform="translate(374,396) scale(3.6666666666667)"><rect width="6" height="6"/></g>
<g transform="translate(396,396) scale(3.6666666666667)"><rect width="6" height="6"/></g>
<g transform="translate(440,396) scale(3.6666666666667)"><rect width="6" height="6"/></g>
<g transform="translate(572,396) scale(3.6666666666667)"><rect width="6" height="6"/></g>
<g transform="translate(594,396) scale(3.6666666666667)"><rect width="6" height="6"/></g>
<g transform="translate(660,396) scale(3.6666666666667)"><rect width="6" height="6"/></g>
<g transform="translate(682,396) scale(3.6666666666667)"><rect width="6" height="6"/></g>
<g transform="translate(770,396) scale(3.6666666666667)"><rect width="6" height="6"/></g>
<g transform="translate(814,396) scale(3.6666666666667)"><rect width="6" height="6"/></g>
<g transform="translate(902,396) scale(3.6666666666667)"><rect width="6" height="6"/></g>
<g transform="translate(88,418) scale(3.6666666666667)"><rect width="6" height="6"/></g>
<g transform="translate(110,418) scale(3.6666666666667)"><rect width="6" height="6"/></g>
<g transform="translate(154,418) scale(3.6666666666667)"><rect width="6" height="6"/></g>
<g transform="translate(330,418) scale(3.6666666666667)"><rect width="6" height="6"/></g>
<g transform="translate(418,418) scale(3.6666666666667)"><rect width="6" height="6"/></g>
<g transform="translate(462,418) scale(3.6666666666667)"><rect width="6" height="6"/></g>
<g transform="translate(550,418) scale(3.6666666666667)"><rect width="6" height="6"/></g>
<g transform="translate(594,418) scale(3.6666666666667)"><rect width="6" height="6"/></g>
<g transform="translate(616,418) scale(3.6666666666667)"><rect width="6" height="6"/></g>
<g transform="translate(638,418) scale(3.6666666666667)"><rect width="6" height="6"/></g>
<g transform="translate(660,418) scale(3.6666666666667)"><rect width="6" height="6"/></g>
<g transform="translate(792,418) scale(3.6666666666667)"><rect width="6" height="6"/></g>
<g transform="translate(814,418) scale(3.6666666666667)"><rect width="6" height="6"/></g>
<g transform="translate(836,418) scale(3.6666666666667)"><rect width="6" height="6"/></g>
<g transform="translate(858,418) scale(3.6666666666667)"><rect width="6" height="6"/></g>
<g transform="translate(902,418) scale(3.6666666666667)"><rect width="6" height="6"/></g>
<g transform="translate(924,418) scale(3.6666666666667)"><rect width="6" height="6"/></g>
<g transform="translate(88,440) scale(3.6666666666667)"><rect width="6" height="6"/></g>
<g transform="translate(110,440) scale(3.6666666666667)"><rect width="6" height="6"/></g>
<g transform="translate(154,440) scale(3.6666666666667)"><rect width="6" height="6"/></g>
<g transform="translate(176,440) scale(3.6666666666667)"><rect width="6" height="6"/></g>
<g transform="translate(220,440) scale(3.6666666666667)"><rect width="6" height="6"/></g>
<g transform="translate(264,440) scale(3.6666666666667)"><rect width="6" height="6"/></g>
<g transform="translate(352,440) scale(3.6666666666667)"><rect width="6" height="6"/></g>
<g transform="translate(396,440) scale(3.6666666666667)"><rect width="6" height="6"/></g>
<g transform="translate(484,440) scale(3.6666666666667)"><rect width="6" height="6"/></g>
<g transform="translate(506,440) scale(3.6666666666667)"><rect width="6" height="6"/></g>
<g transform="translate(550,440) scale(3.6666666666667)"><rect width="6" height="6"/></g>
<g transform="translate(594,440) scale(3.6666666666667)"><rect width="6" height="6"/></g>
<g transform="translate(616,440) scale(3.6666666666667)"><rect width="6" height="6"/></g>
<g transform="translate(638,440) scale(3.6666666666667)"><rect width="6" height="6"/></g>
<g transform="translate(704,440) scale(3.6666666666667)"><rect width="6" height="6"/></g>
<g transform="translate(748,440) scale(3.6666666666667)"><rect width="6" height="6"/></g>
<g transform="translate(792,440) scale(3.6666666666667)"><rect width="6" height="6"/></g>
<g transform="translate(836,440) scale(3.6666666666667)"><rect width="6" height="6"/></g>
<g transform="translate(66,462) scale(3.6666666666667)"><rect width="6" height="6"/></g>
<g transform="translate(88,462) scale(3.6666666666667)"><rect width="6" height="6"/></g>
<g transform="translate(110,462) scale(3.6666666666667)"><rect width="6" height="6"/></g>
<g transform="translate(132,462) scale(3.6666666666667)"><rect width="6" height="6"/></g>
<g transform="translate(242,462) scale(3.6666666666667)"><rect width="6" height="6"/></g>
<g transform="translate(286,462) scale(3.6666666666667)"><rect width="6" height="6"/></g>
<g transform="translate(330,462) scale(3.6666666666667)"><rect width="6" height="6"/></g>
<g transform="translate(352,462) scale(3.6666666666667)"><rect width="6" height="6"/></g>
<g transform="translate(374,462) scale(3.6666666666667)"><rect width="6" height="6"/></g>
<g transform="translate(396,462) scale(3.6666666666667)"><rect width="6" height="6"/></g>
<g transform="translate(462,462) scale(3.6666666666667)"><rect width="6" height="6"/></g>
<g transform="translate(506,462) scale(3.6666666666667)"><rect width="6" height="6"/></g>
<g transform="translate(550,462) scale(3.6666666666667)"><rect width="6" height="6"/></g>
<g transform="translate(572,462) scale(3.6666666666667)"><rect width="6" height="6"/></g>
<g transform="translate(616,462) scale(3.6666666666667)"><rect width="6" height="6"/></g>
<g transform="translate(726,462) scale(3.6666666666667)"><rect width="6" height="6"/></g>
<g transform="translate(770,462) scale(3.6666666666667)"><rect width="6" height="6"/></g>
<g transform="translate(792,462) scale(3.6666666666667)"><rect width="6" height="6"/></g>
<g transform="translate(836,462) scale(3.6666666666667)"><rect width="6" height="6"/></g>
<g transform="translate(858,462) scale(3.6666666666667)"><rect width="6" height="6"/></g>
<g transform="translate(880,462) scale(3.6666666666667)"><rect width="6" height="6"/></g>
<g transform="translate(88,484) scale(3.6666666666667)"><rect width="6" height="6"/></g>
<g transform="translate(110,484) scale(3.6666666666667)"><rect width="6" height="6"/></g>
<g transform="translate(176,484) scale(3.6666666666667)"><rect width="6" height="6"/></g>
<g transform="translate(198,484) scale(3.6666666666667)"><rect width="6" height="6"/></g>
<g transform="translate(242,484) scale(3.6666666666667)"><rect width="6" height="6"/></g>
<g transform="translate(374,484) scale(3.6666666666667)"><rect width="6" height="6"/></g>
<g transform="translate(396,484) scale(3.6666666666667)"><rect width="6" height="6"/></g>
<g transform="translate(440,484) scale(3.6666666666667)"><rect width="6" height="6"/></g>
<g transform="translate(462,484) scale(3.6666666666667)"><rect width="6" height="6"/></g>
<g transform="translate(506,484) scale(3.6666666666667)"><rect width="6" height="6"/></g>
<g transform="translate(528,484) scale(3.6666666666667)"><rect width="6" height="6"/></g>
<g transform="translate(638,484) scale(3.6666666666667)"><rect width="6" height="6"/></g>
<g transform="translate(660,484) scale(3.6666666666667)"><rect width="6" height="6"/></g>
<g transform="translate(704,484) scale(3.6666666666667)"><rect width="6" height="6"/></g>
<g transform="translate(792,484) scale(3.6666666666667)"><rect width="6" height="6"/></g>
<g transform="translate(814,484) scale(3.6666666666667)"><rect width="6" height="6"/></g>
<g transform="translate(836,484) scale(3.6666666666667)"><rect width="6" height="6"/></g>
<g transform="translate(924,484) scale(3.6666666666667)"><rect width="6" height="6"/></g>
<g transform="translate(66,506) scale(3.6666666666667)"><rect width="6" height="6"/></g>
<g transform="translate(220,506) scale(3.6666666666667)"><rect width="6" height="6"/></g>
<g transform="translate(264,506) scale(3.6666666666667)"><rect width="6" height="6"/></g>
<g transform="translate(308,506) scale(3.6666666666667)"><rect width="6" height="6"/></g>
<g transform="translate(330,506) scale(3.6666666666667)"><rect width="6" height="6"/></g>
<g transform="translate(374,506) scale(3.6666666666667)"><rect width="6" height="6"/></g>
<g transform="translate(396,506) scale(3.6666666666667)"><rect width="6" height="6"/></g>
<g transform="translate(418,506) scale(3.6666666666667)"><rect width="6" height="6"/></g>
<g transform="translate(462,506) scale(3.6666666666667)"><rect width="6" height="6"/></g>
<g transform="translate(484,506) scale(3.6666666666667)"><rect width="6" height="6"/></g>
<g transform="translate(528,506) scale(3.6666666666667)"><rect width="6" height="6"/></g>
<g transform="translate(550,506) scale(3.6666666666667)"><rect width="6" height="6"/></g>
<g transform="translate(594,506) scale(3.6666666666667)"><rect width="6" height="6"/></g>
<g transform="translate(616,506) scale(3.6666666666667)"><rect width="6" height="6"/></g>
<g transform="translate(638,506) scale(3.6666666666667)"><rect width="6" height="6"/></g>
<g transform="translate(660,506) scale(3.6666666666667)"><rect width="6" height="6"/></g>
<g transform="translate(726,506) scale(3.6666666666667)"><rect width="6" height="6"/></g>
<g transform="translate(836,506) scale(3.6666666666667)"><rect width="6" height="6"/></g>
<g transform="translate(902,506) scale(3.6666666666667)"><rect width="6" height="6"/></g>
<g transform="translate(924,506) scale(3.6666666666667)"><rect width="6" height="6"/></g>
<g transform="translate(44,528) scale(3.6666666666667)"><rect width="6" height="6"/></g>
<g transform="translate(110,528) scale(3.6666666666667)"><rect width="6" height="6"/></g>
<g transform="translate(132,528) scale(3.6666666666667)"><rect width="6" height="6"/></g>
<g transform="translate(154,528) scale(3.6666666666667)"><rect width="6" height="6"/></g>
<g transform="translate(176,528) scale(3.6666666666667)"><rect width="6" height="6"/></g>
<g transform="translate(220,528) scale(3.6666666666667)"><rect width="6" height="6"/></g>
<g transform="translate(242,528) scale(3.6666666666667)"><rect width="6" height="6"/></g>
<g transform="translate(308,528) scale(3.6666666666667)"><rect width="6" height="6"/></g>
<g transform="translate(352,528) scale(3.6666666666667)"><rect width="6" height="6"/></g>
<g transform="translate(374,528) scale(3.6666666666667)"><rect width="6" height="6"/></g>
<g transform="translate(418,528) scale(3.6666666666667)"><rect width="6" height="6"/></g>
<g transform="translate(440,528) scale(3.6666666666667)"><rect width="6" height="6"/></g>
<g transform="translate(506,528) scale(3.6666666666667)"><rect width="6" height="6"/></g>
<g transform="translate(528,528) scale(3.6666666666667)"><rect width="6" height="6"/></g>
<g transform="translate(572,528) scale(3.6666666666667)"><rect width="6" height="6"/></g>
<g transform="translate(594,528) scale(3.6666666666667)"><rect width="6" height="6"/></g>
<g transform="translate(616,528) scale(3.6666666666667)"><rect width="6" height="6"/></g>
<g transform="translate(638,528) scale(3.6666666666667)"><rect width="6" height="6"/></g>
<g transform="translate(704,528) scale(3.6666666666667)"><rect width="6" height="6"/></g>
<g transform="translate(748,528) scale(3.6666666666667)"><rect width="6" height="6"/></g>
<g transform="translate(770,528) scale(3.6666666666667)"><rect width="6" height="6"/></g>
<g transform="translate(814,528) scale(3.6666666666667)"><rect width="6" height="6"/></g>
<g transform="translate(836,528) scale(3.6666666666667)"><rect width="6" height="6"/></g>
<g transform="translate(44,550) scale(3.6666666666667)"><rect width="6" height="6"/></g>
<g transform="translate(154,550) scale(3.6666666666667)"><rect width="6" height="6"/></g>
<g transform="translate(242,550) scale(3.6666666666667)"><rect width="6" height="6"/></g>
<g transform="translate(308,550) scale(3.6666666666667)"><rect width="6" height="6"/></g>
<g transform="translate(374,550) scale(3.6666666666667)"><rect width="6" height="6"/></g>
<g transform="translate(396,550) scale(3.6666666666667)"><rect width="6" height="6"/></g>
<g transform="translate(418,550) scale(3.6666666666667)"><rect width="6" height="6"/></g>
<g transform="translate(440,550) scale(3.6666666666667)"><rect width="6" height="6"/></g>
<g transform="translate(462,550) scale(3.6666666666667)"><rect width="6" height="6"/></g>
<g transform="translate(550,550) scale(3.6666666666667)"><rect width="6" height="6"/></g>
<g transform="translate(572,550) scale(3.6666666666667)"><rect width="6" height="6"/></g>
<g transform="translate(660,550) scale(3.6666666666667)"><rect width="6" height="6"/></g>
<g transform="translate(770,550) scale(3.6666666666667)"><rect width="6" height="6"/></g>
<g transform="translate(792,550) scale(3.6666666666667)"><rect width="6" height="6"/></g>
<g transform="translate(836,550) scale(3.6666666666667)"><rect width="6" height="6"/></g>
<g transform="translate(88,572) scale(3.6666666666667)"><rect width="6" height="6"/></g>
<g transform="translate(154,572) scale(3.6666666666667)"><rect width="6" height="6"/></g>
<g transform="translate(176,572) scale(3.6666666666667)"><rect width="6" height="6"/></g>
<g transform="translate(264,572) scale(3.6666666666667)"><rect width="6" height="6"/></g>
<g transform="translate(308,572) scale(3.6666666666667)"><rect width="6" height="6"/></g>
<g transform="translate(330,572) scale(3.6666666666667)"><rect width="6" height="6"/></g>
<g transform="translate(418,572) scale(3.6666666666667)"><rect width="6" height="6"/></g>
<g transform="translate(440,572) scale(3.6666666666667)"><rect width="6" height="6"/></g>
<g transform="translate(462,572) scale(3.6666666666667)"><rect width="6" height="6"/></g>
<g transform="translate(528,572) scale(3.6666666666667)"><rect width="6" height="6"/></g>
<g transform="translate(550,572) scale(3.6666666666667)"><rect width="6" height="6"/></g>
<g transform="translate(572,572) scale(3.6666666666667)"><rect width="6" height="6"/></g>
<g transform="translate(616,572) scale(3.6666666666667)"><rect width="6" height="6"/></g>
<g transform="translate(638,572) scale(3.6666666666667)"><rect width="6" height="6"/></g>
<g transform="translate(682,572) scale(3.6666666666667)"><rect width="6" height="6"/></g>
<g transform="translate(704,572) scale(3.6666666666667)"><rect width="6" height="6"/></g>
<g transform="translate(836,572) scale(3.6666666666667)"><rect width="6" height="6"/></g>
<g transform="translate(924,572) scale(3.6666666666667)"><rect width="6" height="6"/></g>
<g transform="translate(44,594) scale(3.6666666666667)"><rect width="6" height="6"/></g>
<g transform="translate(66,594) scale(3.6666666666667)"><rect width="6" height="6"/></g>
<g transform="translate(88,594) scale(3.6666666666667)"><rect width="6" height="6"/></g>
<g transform="translate(132,594) scale(3.6666666666667)"><rect width="6" height="6"/></g>
<g transform="translate(198,594) scale(3.6666666666667)"><rect width="6" height="6"/></g>
<g transform="translate(220,594) scale(3.6666666666667)"><rect width="6" height="6"/></g>
<g transform="translate(286,594) scale(3.6666666666667)"><rect width="6" height="6"/></g>
<g transform="translate(418,594) scale(3.6666666666667)"><rect width="6" height="6"/></g>
<g transform="translate(506,594) scale(3.6666666666667)"><rect width="6" height="6"/></g>
<g transform="translate(528,594) scale(3.6666666666667)"><rect width="6" height="6"/></g>
<g transform="translate(550,594) scale(3.6666666666667)"><rect width="6" height="6"/></g>
<g transform="translate(572,594) scale(3.6666666666667)"><rect width="6" height="6"/></g>
<g transform="translate(594,594) scale(3.6666666666667)"><rect width="6" height="6"/></g>
<g transform="translate(616,594) scale(3.6666666666667)"><rect width="6" height="6"/></g>
<g transform="translate(660,594) scale(3.6666666666667)"><rect width="6" height="6"/></g>
<g transform="translate(704,594) scale(3.6666666666667)"><rect width="6" height="6"/></g>
<g transform="translate(726,594) scale(3.6666666666667)"><rect width="6" height="6"/></g>
<g transform="translate(814,594) scale(3.6666666666667)"><rect width="6" height="6"/></g>
<g transform="translate(836,594) scale(3.6666666666667)"><rect width="6" height="6"/></g>
<g transform="translate(858,594) scale(3.6666666666667)"><rect width="6" height="6"/></g>
<g transform="translate(902,594) scale(3.6666666666667)"><rect width="6" height="6"/></g>
<g transform="translate(44,616) scale(3.6666666666667)"><rect width="6" height="6"/></g>
<g transform="translate(132,616) scale(3.6666666666667)"><rect width="6" height="6"/></g>
<g transform="translate(176,616) scale(3.6666666666667)"><rect width="6" height="6"/></g>
<g transform="translate(242,616) scale(3.6666666666667)"><rect width="6" height="6"/></g>
<g transform="translate(264,616) scale(3.6666666666667)"><rect width="6" height="6"/></g>
<g transform="translate(286,616) scale(3.6666666666667)"><rect width="6" height="6"/></g>
<g transform="translate(374,616) scale(3.6666666666667)"><rect width="6" height="6"/></g>
<g transform="translate(396,616) scale(3.6666666666667)"><rect width="6" height="6"/></g>
<g transform="translate(506,616) scale(3.6666666666667)"><rect width="6" height="6"/></g>
<g transform="translate(550,616) scale(3.6666666666667)"><rect width="6" height="6"/></g>
<g transform="translate(572,616) scale(3.6666666666667)"><rect width="6" height="6"/></g>
<g transform="translate(638,616) scale(3.6666666666667)"><rect width="6" height="6"/></g>
<g transform="translate(660,616) scale(3.6666666666667)"><rect width="6" height="6"/></g>
<g transform="translate(682,616) scale(3.6666666666667)"><rect width="6" height="6"/></g>
<g transform="translate(704,616) scale(3.6666666666667)"><rect width="6" height="6"/></g>
<g transform="translate(748,616) scale(3.6666666666667)"><rect width="6" height="6"/></g>
<g transform="translate(770,616) scale(3.6666666666667)"><rect width="6" height="6"/></g>
<g transform="translate(814,616) scale(3.6666666666667)"><rect width="6" height="6"/></g>
<g transform="translate(902,616) scale(3.6666666666667)"><rect width="6" height="6"/></g>
<g transform="translate(110,638) scale(3.6666666666667)"><rect width="6" height="6"/></g>
<g transform="translate(132,638) scale(3.6666666666667)"><rect width="6" height="6"/></g>
<g transform="translate(198,638) scale(3.6666666666667)"><rect width="6" height="6"/></g>
<g transform="translate(374,638) scale(3.6666666666667)"><rect width="6" height="6"/></g>
<g transform="translate(396,638) scale(3.6666666666667)"><rect width="6" height="6"/></g>
<g transform="translate(418,638) scale(3.6666666666667)"><rect width="6" height="6"/></g>
<g transform="translate(440,638) scale(3.6666666666667)"><rect width="6" height="6"/></g>
<g transform="translate(528,638) scale(3.6666666666667)"><rect width="6" height="6"/></g>
<g transform="translate(594,638) scale(3.6666666666667)"><rect width="6" height="6"/></g>
<g transform="translate(638,638) scale(3.6666666666667)"><rect width="6" height="6"/></g>
<g transform="translate(660,638) scale(3.6666666666667)"><rect width="6" height="6"/></g>
<g transform="translate(682,638) scale(3.6666666666667)"><rect width="6" height="6"/></g>
<g transform="translate(726,638) scale(3.6666666666667)"><rect width="6" height="6"/></g>
<g transform="translate(748,638) scale(3.6666666666667)"><rect width="6" height="6"/></g>
<g transform="translate(814,638) scale(3.6666666666667)"><rect width="6" height="6"/></g>
<g transform="translate(836,638) scale(3.6666666666667)"><rect width="6" height="6"/></g>
<g transform="translate(858,638) scale(3.6666666666667)"><rect width="6" height="6"/></g>
<g transform="translate(924,638) scale(3.6666666666667)"><rect width="6" height="6"/></g>
<g transform="translate(88,660) scale(3.6666666666667)"><rect width="6" height="6"/></g>
<g transform="translate(132,660) scale(3.6666666666667)"><rect width="6" height="6"/></g>
<g transform="translate(176,660) scale(3.6666666666667)"><rect width="6" height="6"/></g>
<g transform="translate(198,660) scale(3.6666666666667)"><rect width="6" height="6"/></g>
<g transform="translate(242,660) scale(3.6666666666667)"><rect width="6" height="6"/></g>
<g transform="translate(308,660) scale(3.6666666666667)"><rect width="6" height="6"/></g>
<g transform="translate(418,660) scale(3.6666666666667)"><rect width="6" height="6"/></g>
<g transform="translate(440,660) scale(3.6666666666667)"><rect width="6" height="6"/></g>
<g transform="translate(484,660) scale(3.6666666666667)"><rect width="6" height="6"/></g>
<g transform="translate(594,660) scale(3.6666666666667)"><rect width="6" height="6"/></g>
<g transform="translate(616,660) scale(3.6666666666667)"><rect width="6" height="6"/></g>
<g transform="translate(660,660) scale(3.6666666666667)"><rect width="6" height="6"/></g>
<g transform="translate(682,660) scale(3.6666666666667)"><rect width="6" height="6"/></g>
<g transform="translate(726,660) scale(3.6666666666667)"><rect width="6" height="6"/></g>
<g transform="translate(770,660) scale(3.6666666666667)"><rect width="6" height="6"/></g>
<g transform="translate(814,660) scale(3.6666666666667)"><rect width="6" height="6"/></g>
<g transform="translate(836,660) scale(3.6666666666667)"><rect width="6" height="6"/></g>
<g transform="translate(858,660) scale(3.6666666666667)"><rect width="6" height="6"/></g>
<g transform="translate(880,660) scale(3.6666666666667)"><rect width="6" height="6"/></g>
<g transform="translate(902,660) scale(3.6666666666667)"><rect width="6" height="6"/></g>
<g transform="translate(44,682) scale(3.6666666666667)"><rect width="6" height="6"/></g>
<g transform="translate(66,682) scale(3.6666666666667)"><rect width="6" height="6"/></g>
<g transform="translate(220,682) scale(3.6666666666667)"><rect width="6" height="6"/></g>
<g transform="translate(242,682) scale(3.6666666666667)"><rect width="6" height="6"/></g>
<g transform="translate(286,682) scale(3.6666666666667)"><rect width="6" height="6"/></g>
<g transform="translate(308,682) scale(3.6666666666667)"><rect width="6" height="6"/></g>
<g transform="translate(330,682) scale(3.6666666666667)"><rect width="6" height="6"/></g>
<g transform="translate(352,682) scale(3.6666666666667)"><rect width="6" height="6"/></g>
<g transform="translate(418,682) scale(3.6666666666667)"><rect width="6" height="6"/></g>
<g transform="translate(440,682) scale(3.6666666666667)"><rect width="6" height="6"/></g>
<g transform="translate(484,682) scale(3.6666666666667)"><rect width="6" height="6"/></g>
<g transform="translate(616,682) scale(3.6666666666667)"><rect width="6" height="6"/></g>
<g transform="translate(638,682) scale(3.6666666666667)"><rect width="6" height="6"/></g>
<g transform="translate(748,682) scale(3.6666666666667)"><rect width="6" height="6"/></g>
<g transform="translate(814,682) scale(3.6666666666667)"><rect width="6" height="6"/></g>
<g transform="translate(858,682) scale(3.6666666666667)"><rect width="6" height="6"/></g>
<g transform="translate(902,682) scale(3.6666666666667)"><rect width="6" height="6"/></g>
<g transform="translate(44,704) scale(3.6666666666667)"><rect width="6" height="6"/></g>
<g transform="translate(88,704) scale(3.6666666666667)"><rect width="6" height="6"/></g>
<g transform="translate(176,704) scale(3.6666666666667)"><rect width="6" height="6"/></g>
<g transform="translate(198,704) scale(3.6666666666667)"><rect width="6" height="6"/></g>
<g transform="translate(242,704) scale(3.6666666666667)"><rect width="6" height="6"/></g>
<g transform="translate(308,704) scale(3.6666666666667)"><rect width="6" height="6"/></g>
<g transform="translate(330,704) scale(3.6666666666667)"><rect width="6" height="6"/></g>
<g transform="translate(352,704) scale(3.6666666666667)"><rect width="6" height="6"/></g>
<g transform="translate(374,704) scale(3.6666666666667)"><rect width="6" height="6"/></g>
<g transform="translate(396,704) scale(3.6666666666667)"><rect width="6" height="6"/></g>
<g transform="translate(418,704) scale(3.6666666666667)"><rect width="6" height="6"/></g>
<g transform="translate(462,704) scale(3.6666666666667)"><rect width="6" height="6"/></g>
<g transform="translate(484,704) scale(3.6666666666667)"><rect width="6" height="6"/></g>
<g transform="translate(506,704) scale(3.6666666666667)"><rect width="6" height="6"/></g>
<g transform="translate(572,704) scale(3.6666666666667)"><rect width="6" height="6"/></g>
<g transform="translate(594,704) scale(3.6666666666667)"><rect width="6" height="6"/></g>
<g transform="translate(616,704) scale(3.6666666666667)"><rect width="6" height="6"/></g>
<g transform="translate(638,704) scale(3.6666666666667)"><rect width="6" height="6"/></g>
<g transform="translate(660,704) scale(3.6666666666667)"><rect width="6" height="6"/></g>
<g transform="translate(682,704) scale(3.6666666666667)"><rect width="6" height="6"/></g>
<g transform="translate(726,704) scale(3.6666666666667)"><rect width="6" height="6"/></g>
<g transform="translate(770,704) scale(3.6666666666667)"><rect width="6" height="6"/></g>
<g transform="translate(792,704) scale(3.6666666666667)"><rect width="6" height="6"/></g>
<g transform="translate(836,704) scale(3.6666666666667)"><rect width="6" height="6"/></g>
<g transform="translate(858,704) scale(3.6666666666667)"><rect width="6" height="6"/></g>
<g transform="translate(880,704) scale(3.6666666666667)"><rect width="6" height="6"/></g>
<g transform="translate(44,726) scale(3.6666666666667)"><rect width="6" height="6"/></g>
<g transform="translate(88,726) scale(3.6666666666667)"><rect width="6" height="6"/></g>
<g transform="translate(110,726) scale(3.6666666666667)"><rect width="6" height="6"/></g>
<g transform="translate(198,726) scale(3.6666666666667)"><rect width="6" height="6"/></g>
<g transform="translate(242,726) scale(3.6666666666667)"><rect width="6" height="6"/></g>
<g transform="translate(286,726) scale(3.6666666666667)"><rect width="6" height="6"/></g>
<g transform="translate(330,726) scale(3.6666666666667)"><rect width="6" height="6"/></g>
<g transform="translate(352,726) scale(3.6666666666667)"><rect width="6" height="6"/></g>
<g transform="translate(374,726) scale(3.6666666666667)"><rect width="6" height="6"/></g>
<g transform="translate(396,726) scale(3.6666666666667)"><rect width="6" height="6"/></g>
<g transform="translate(418,726) scale(3.6666666666667)"><rect width="6" height="6"/></g>
<g transform="translate(440,726) scale(3.6666666666667)"><rect width="6" height="6"/></g>
<g transform="translate(462,726) scale(3.6666666666667)"><rect width="6" height="6"/></g>
<g transform="translate(506,726) scale(3.6666666666667)"><rect width="6" height="6"/></g>
<g transform="translate(594,726) scale(3.6666666666667)"><rect width="6" height="6"/></g>
<g transform="translate(616,726) scale(3.6666666666667)"><rect width="6" height="6"/></g>
<g transform="translate(638,726) scale(3.6666666666667)"><rect width="6" height="6"/></g>
<g transform="translate(704,726) scale(3.6666666666667)"><rect width="6" height="6"/></g>
<g transform="translate(726,726) scale(3.6666666666667)"><rect width="6" height="6"/></g>
<g transform="translate(748,726) scale(3.6666666666667)"><rect width="6" height="6"/></g>
<g transform="translate(770,726) scale(3.6666666666667)"><rect width="6" height="6"/></g>
<g transform="translate(792,726) scale(3.6666666666667)"><rect width="6" height="6"/></g>
<g transform="translate(814,726) scale(3.6666666666667)"><rect width="6" height="6"/></g>
<g transform="translate(836,726) scale(3.6666666666667)"><rect width="6" height="6"/></g>
<g transform="translate(858,726) scale(3.6666666666667)"><rect width="6" height="6"/></g>
<g transform="translate(924,726) scale(3.6666666666667)"><rect width="6" height="6"/></g>
<g transform="translate(44,748) scale(3.6666666666667)"><rect width="6" height="6"/></g>
<g transform="translate(88,748) scale(3.6666666666667)"><rect width="6" height="6"/></g>
<g transform="translate(110,748) scale(3.6666666666667)"><rect width="6" height="6"/></g>
<g transform="translate(176,748) scale(3.6666666666667)"><rect width="6" height="6"/></g>
<g transform="translate(198,748) scale(3.6666666666667)"><rect width="6" height="6"/></g>
<g transform="translate(220,748) scale(3.6666666666667)"><rect width="6" height="6"/></g>
<g transform="translate(242,748) scale(3.6666666666667)"><rect width="6" height="6"/></g>
<g transform="translate(286,748) scale(3.6666666666667)"><rect width="6" height="6"/></g>
<g transform="translate(308,748) scale(3.6666666666667)"><rect width="6" height="6"/></g>
<g transform="translate(352,748) scale(3.6666666666667)"><rect width="6" height="6"/></g>
<g transform="translate(396,748) scale(3.6666666666667)"><rect width="6" height="6"/></g>
<g transform="translate(440,748) scale(3.6666666666667)"><rect width="6" height="6"/></g>
<g transform="translate(528,748) scale(3.6666666666667)"><rect width="6" height="6"/></g>
<g transform="translate(572,748) scale(3.6666666666667)"><rect width="6" height="6"/></g>
<g transform="translate(594,748) scale(3.6666666666667)"><rect width="6" height="6"/></g>
<g transform="translate(616,748) scale(3.6666666666667)"><rect width="6" height="6"/></g>
<g transform="translate(638,748) scale(3.6666666666667)"><rect width="6" height="6"/></g>
<g transform="translate(660,748) scale(3.6666666666667)"><rect width="6" height="6"/></g>
<g transform="translate(726,748) scale(3.6666666666667)"><rect width="6" height="6"/></g>
<g transform="translate(748,748) scale(3.6666666666667)"><rect width="6" height="6"/></g>
<g transform="translate(770,748) scale(3.6666666666667)"><rect width="6" height="6"/></g>
<g transform="translate(792,748) scale(3.6666666666667)"><rect width="6" height="6"/></g>
<g transform="translate(814,748) scale(3.6666666666667)"><rect width="6" height="6"/></g>
<g transform="translate(836,748) scale(3.6666666666667)"><rect width="6" height="6"/></g>
<g transform="translate(220,770) scale(3.6666666666667)"><rect width="6" height="6"/></g>
<g transform="translate(264,770) scale(3.6666666666667)"><rect width="6" height="6"/></g>
<g transform="translate(330,770) scale(3.6666666666667)"><rect width="6" height="6"/></g>
<g transform="translate(374,770) scale(3.6666666666667)"><rect width="6" height="6"/></g>
<g transform="translate(440,770) scale(3.6666666666667)"><rect width="6" height="6"/></g>
<g transform="translate(484,770) scale(3.6666666666667)"><rect width="6" height="6"/></g>
<g transform="translate(506,770) scale(3.6666666666667)"><rect width="6" height="6"/></g>
<g transform="translate(528,770) scale(3.6666666666667)"><rect width="6" height="6"/></g>
<g transform="translate(572,770) scale(3.6666666666667)"><rect width="6" height="6"/></g>
<g transform="translate(638,770) scale(3.6666666666667)"><rect width="6" height="6"/></g>
<g transform="translate(660,770) scale(3.6666666666667)"><rect width="6" height="6"/></g>
<g transform="translate(682,770) scale(3.6666666666667)"><rect width="6" height="6"/></g>
<g transform="translate(704,770) scale(3.6666666666667)"><rect width="6" height="6"/></g>
<g transform="translate(748,770) scale(3.6666666666667)"><rect width="6" height="6"/></g>
<g transform="translate(836,770) scale(3.6666666666667)"><rect width="6" height="6"/></g>
<g transform="translate(858,770) scale(3.6666666666667)"><rect width="6" height="6"/></g>
<g transform="translate(902,770) scale(3.6666666666667)"><rect width="6" height="6"/></g>
<g transform="translate(308,792) scale(3.6666666666667)"><rect width="6" height="6"/></g>
<g transform="translate(374,792) scale(3.6666666666667)"><rect width="6" height="6"/></g>
<g transform="translate(440,792) scale(3.6666666666667)"><rect width="6" height="6"/></g>
<g transform="translate(462,792) scale(3.6666666666667)"><rect width="6" height="6"/></g>
<g transform="translate(506,792) scale(3.6666666666667)"><rect width="6" height="6"/></g>
<g transform="translate(638,792) scale(3.6666666666667)"><rect width="6" height="6"/></g>
<g transform="translate(682,792) scale(3.6666666666667)"><rect width="6" height="6"/></g>
<g transform="translate(726,792) scale(3.6666666666667)"><rect width="6" height="6"/></g>
<g transform="translate(748,792) scale(3.6666666666667)"><rect width="6" height="6"/></g>
<g transform="translate(792,792) scale(3.6666666666667)"><rect width="6" height="6"/></g>
<g transform="translate(836,792) scale(3.6666666666667)"><rect width="6" height="6"/></g>
<g transform="translate(880,792) scale(3.6666666666667)"><rect width="6" height="6"/></g>
<g transform="translate(902,792) scale(3.6666666666667)"><rect width="6" height="6"/></g>
<g transform="translate(286,814) scale(3.6666666666667)"><rect width="6" height="6"/></g>
<g transform="translate(352,814) scale(3.6666666666667)"><rect width="6" height="6"/></g>
<g transform="translate(396,814) scale(3.6666666666667)"><rect width="6" height="6"/></g>
<g transform="translate(440,814) scale(3.6666666666667)"><rect width="6" height="6"/></g>
<g transform="translate(462,814) scale(3.6666666666667)"><rect width="6" height="6"/></g>
<g transform="translate(506,814) scale(3.6666666666667)"><rect width="6" height="6"/></g>
<g transform="translate(528,814) scale(3.6666666666667)"><rect width="6" height="6"/></g>
<g transform="translate(550,814) scale(3.6666666666667)"><rect width="6" height="6"/></g>
<g transform="translate(594,814) scale(3.6666666666667)"><rect width="6" height="6"/></g>
<g transform="translate(660,814) scale(3.6666666666667)"><rect width="6" height="6"/></g>
<g transform="translate(682,814) scale(3.6666666666667)"><rect width="6" height="6"/></g>
<g transform="translate(704,814) scale(3.6666666666667)"><rect width="6" height="6"/></g>
<g transform="translate(748,814) scale(3.6666666666667)"><rect width="6" height="6"/></g>
<g transform="translate(836,814) scale(3.6666666666667)"><rect width="6" height="6"/></g>
<g transform="translate(858,814) scale(3.6666666666667)"><rect width="6" height="6"/></g>
<g transform="translate(902,814) scale(3.6666666666667)"><rect width="6" height="6"/></g>
<g transform="translate(220,836) scale(3.6666666666667)"><rect width="6" height="6"/></g>
<g transform="translate(242,836) scale(3.6666666666667)"><rect width="6" height="6"/></g>
<g transform="translate(352,836) scale(3.6666666666667)"><rect width="6" height="6"/></g>
<g transform="translate(418,836) scale(3.6666666666667)"><rect width="6" height="6"/></g>
<g transform="translate(462,836) scale(3.6666666666667)"><rect width="6" height="6"/></g>
<g transform="translate(484,836) scale(3.6666666666667)"><rect width="6" height="6"/></g>
<g transform="translate(528,836) scale(3.6666666666667)"><rect width="6" height="6"/></g>
<g transform="translate(550,836) scale(3.6666666666667)"><rect width="6" height="6"/></g>
<g transform="translate(572,836) scale(3.6666666666667)"><rect width="6" height="6"/></g>
<g transform="translate(638,836) scale(3.6666666666667)"><rect width="6" height="6"/></g>
<g transform="translate(748,836) scale(3.6666666666667)"><rect width="6" height="6"/></g>
<g transform="translate(770,836) scale(3.6666666666667)"><rect width="6" height="6"/></g>
<g transform="translate(792,836) scale(3.6666666666667)"><rect width="6" height="6"/></g>
<g transform="translate(814,836) scale(3.6666666666667)"><rect width="6" height="6"/></g>
<g transform="translate(836,836) scale(3.6666666666667)"><rect width="6" height="6"/></g>
<g transform="translate(858,836) scale(3.6666666666667)"><rect width="6" height="6"/></g>
<g transform="translate(902,836) scale(3.6666666666667)"><rect width="6" height="6"/></g>
<g transform="translate(220,858) scale(3.6666666666667)"><rect width="6" height="6"/></g>
<g transform="translate(286,858) scale(3.6666666666667)"><rect width="6" height="6"/></g>
<g transform="translate(308,858) scale(3.6666666666667)"><rect width="6" height="6"/></g>
<g transform="translate(330,858) scale(3.6666666666667)"><rect width="6" height="6"/></g>
<g transform="translate(352,858) scale(3.6666666666667)"><rect width="6" height="6"/></g>
<g transform="translate(374,858) scale(3.6666666666667)"><rect width="6" height="6"/></g>
<g transform="translate(396,858) scale(3.6666666666667)"><rect width="6" height="6"/></g>
<g transform="translate(418,858) scale(3.6666666666667)"><rect width="6" height="6"/></g>
<g transform="translate(484,858) scale(3.6666666666667)"><rect width="6" height="6"/></g>
<g transform="translate(550,858) scale(3.6666666666667)"><rect width="6" height="6"/></g>
<g transform="translate(572,858) scale(3.6666666666667)"><rect width="6" height="6"/></g>
<g transform="translate(594,858) scale(3.6666666666667)"><rect width="6" height="6"/></g>
<g transform="translate(638,858) scale(3.6666666666667)"><rect width="6" height="6"/></g>
<g transform="translate(660,858) scale(3.6666666666667)"><rect width="6" height="6"/></g>
<g transform="translate(682,858) scale(3.6666666666667)"><rect width="6" height="6"/></g>
<g transform="translate(704,858) scale(3.6666666666667)"><rect width="6" height="6"/></g>
<g transform="translate(726,858) scale(3.6666666666667)"><rect width="6" height="6"/></g>
<g transform="translate(748,858) scale(3.6666666666667)"><rect width="6" height="6"/></g>
<g transform="translate(770,858) scale(3.6666666666667)"><rect width="6" height="6"/></g>
<g transform="translate(814,858) scale(3.6666666666667)"><rect width="6" height="6"/></g>
<g transform="translate(858,858) scale(3.6666666666667)"><rect width="6" height="6"/></g>
<g transform="translate(880,858) scale(3.6666666666667)"><rect width="6" height="6"/></g>
<g transform="translate(902,858) scale(3.6666666666667)"><rect width="6" height="6"/></g>
<g transform="translate(220,880) scale(3.6666666666667)"><rect width="6" height="6"/></g>
<g transform="translate(264,880) scale(3.6666666666667)"><rect width="6" height="6"/></g>
<g transform="translate(286,880) scale(3.6666666666667)"><rect width="6" height="6"/></g>
<g transform="translate(308,880) scale(3.6666666666667)"><rect width="6" height="6"/></g>
<g transform="translate(330,880) scale(3.6666666666667)"><rect width="6" height="6"/></g>
<g transform="translate(352,880) scale(3.6666666666667)"><rect width="6" height="6"/></g>
<g transform="translate(374,880) scale(3.6666666666667)"><rect width="6" height="6"/></g>
<g transform="translate(396,880) scale(3.6666666666667)"><rect width="6" height="6"/></g>
<g transform="translate(506,880) scale(3.6666666666667)"><rect width="6" height="6"/></g>
<g transform="translate(550,880) scale(3.6666666666667)"><rect width="6" height="6"/></g>
<g transform="translate(572,880) scale(3.6666666666667)"><rect width="6" height="6"/></g>
<g transform="translate(594,880) scale(3.6666666666667)"><rect width="6" height="6"/></g>
<g transform="translate(616,880) scale(3.6666666666667)"><rect width="6" height="6"/></g>
<g transform="translate(638,880) scale(3.6666666666667)"><rect width="6" height="6"/></g>
<g transform="translate(660,880) scale(3.6666666666667)"><rect width="6" height="6"/></g>
<g transform="translate(682,880) scale(3.6666666666667)"><rect width="6" height="6"/></g>
<g transform="translate(770,880) scale(3.6666666666667)"><rect width="6" height="6"/></g>
<g transform="translate(792,880) scale(3.6666666666667)"><rect width="6" height="6"/></g>
<g transform="translate(814,880) scale(3.6666666666667)"><rect width="6" height="6"/></g>
<g transform="translate(836,880) scale(3.6666666666667)"><rect width="6" height="6"/></g>
<g transform="translate(880,880) scale(3.6666666666667)"><rect width="6" height="6"/></g>
<g transform="translate(902,880) scale(3.6666666666667)"><rect width="6" height="6"/></g>
<g transform="translate(264,902) scale(3.6666666666667)"><rect width="6" height="6"/></g>
<g transform="translate(308,902) scale(3.6666666666667)"><rect width="6" height="6"/></g>
<g transform="translate(330,902) scale(3.6666666666667)"><rect width="6" height="6"/></g>
<g transform="translate(352,902) scale(3.6666666666667)"><rect width="6" height="6"/></g>
<g transform="translate(418,902) scale(3.6666666666667)"><rect width="6" height="6"/></g>
<g transform="translate(440,902) scale(3.6666666666667)"><rect width="6" height="6"/></g>
<g transform="translate(528,902) scale(3.6666666666667)"><rect width="6" height="6"/></g>
<g transform="translate(550,902) scale(3.6666666666667)"><rect width="6" height="6"/></g>
<g transform="translate(594,902) scale(3.6666666666667)"><rect width="6" height="6"/></g>
<g transform="translate(616,902) scale(3.6666666666667)"><rect width="6" height="6"/></g>
<g transform="translate(660,902) scale(3.6666666666667)"><rect width="6" height="6"/></g>
<g transform="translate(704,902) scale(3.6666666666667)"><rect width="6" height="6"/></g>
<g transform="translate(726,902) scale(3.6666666666667)"><rect width="6" height="6"/></g>
<g transform="translate(770,902) scale(3.6666666666667)"><rect width="6" height="6"/></g>
<g transform="translate(836,902) scale(3.6666666666667)"><rect width="6" height="6"/></g>
<g transform="translate(858,902) scale(3.6666666666667)"><rect width="6" height="6"/></g>
<g transform="translate(880,902) scale(3.6666666666667)"><rect width="6" height="6"/></g>
<g transform="translate(902,902) scale(3.6666666666667)"><rect width="6" height="6"/></g>
<g transform="translate(242,924) scale(3.6666666666667)"><rect width="6" height="6"/></g>
<g transform="translate(264,924) scale(3.6666666666667)"><rect width="6" height="6"/></g>
<g transform="translate(286,924) scale(3.6666666666667)"><rect width="6" height="6"/></g>
<g transform="translate(374,924) scale(3.6666666666667)"><rect width="6" height="6"/></g>
<g transform="translate(396,924) scale(3.6666666666667)"><rect width="6" height="6"/></g>
<g transform="translate(528,924) scale(3.6666666666667)"><rect width="6" height="6"/></g>
<g transform="translate(572,924) scale(3.6666666666667)"><rect width="6" height="6"/></g>
<g transform="translate(594,924) scale(3.6666666666667)"><rect width="6" height="6"/></g>
<g transform="translate(638,924) scale(3.6666666666667)"><rect width="6" height="6"/></g>
<g transform="translate(682,924) scale(3.6666666666667)"><rect width="6" height="6"/></g>
<g transform="translate(770,924) scale(3.6666666666667)"><rect width="6" height="6"/></g>
<g transform="translate(814,924) scale(3.6666666666667)"><rect width="6" height="6"/></g>
<g transform="translate(836,924) scale(3.6666666666667)"><rect width="6" height="6"/></g>
</g></mask></defs>
<rect width="990" height="990" fill="#ffffff" x="0" y="0" />
<rect x="0" y="0" width="990" height="990" mask="url(#qrmask)" fill="#000000" />
<g transform="translate(44,44)"  fill="#000000"><g transform="scale(11)"><path d="M0,7L0,7c0,3.9,3.1,7,7,7h7V7c0-3.9-3.1-7-7-7h0C3.1,0,0,3.1,0,7z M12,12H7c-2.8,0-5-2.2-5-5v0c0-2.8,2.2-5,5-5h0 c2.8,0,5,2.2,5,5V12z"/></g></g>
<g transform="translate(792,44)"  fill="#000000"><g transform="scale(11) rotate(90 7 7)"><path d="M0,7L0,7c0,3.9,3.1,7,7,7h7V7c0-3.9-3.1-7-7-7h0C3.1,0,0,3.1,0,7z M12,12H7c-2.8,0-5-2.2-5-5v0c0-2.8,2.2-5,5-5h0 c2.8,0,5,2.2,5,5V12z"/></g></g>
<g transform="translate(44,792)"  fill="#000000"><g transform="scale(11) rotate(-90 7 7)"><path d="M0,7L0,7c0,3.9,3.1,7,7,7h7V7c0-3.9-3.1-7-7-7h0C3.1,0,0,3.1,0,7z M12,12H7c-2.8,0-5-2.2-5-5v0c0-2.8,2.2-5,5-5h0 c2.8,0,5,2.2,5,5V12z"/></g></g>
<g transform="translate(88,88)"  fill="#000000"><g transform="scale(11)"><circle cx="3" cy="3" r="3"/></g></g>
<g transform="translate(836,88)"  fill="#000000"><g transform="scale(11)"><circle cx="3" cy="3" r="3"/></g></g>
<g transform="translate(88,836)"  fill="#000000"><g transform="scale(11)"><circle cx="3" cy="3" r="3"/></g></g>
</svg>