<?xml version="1.0" encoding="utf-8"?>
<svg version="1.1" xmlns="http://www.w3.org/2000/svg" xmlns:xlink="http://www.w3.org/1999/xlink" width="1000" height="1000" viewBox="0 0 1000 1000" enable-background="new 0 0 1000 1000" xml:space="preserve"><g transform="translate(0,0) scale(1.0,1.0)"><svg width="1000" height="1000" viewBox="0 0 820 820" enable-background="new 0 0 1000 1000" xml:space="preserve"><rect x="0" y="0" width="820" height="820" fill="rgb(255,255,255)" opacity="1.0" /><circle cx="310.0" cy="90.0" r="8.333333" fill="rgb(0,0,0)" opacity="1.0" /><polygon points="315.0,85.0 320.0,85.0 320.0,95.0 315.0,95.0 305.0,95.0 305.0,85.0" fill="rgb(0,0,0)" opacity="1.0" shape-rendering="crispEdges" /><circle cx="330.0" cy="90.0" r="8.333333" fill="rgb(0,0,0)" opacity="1.0" /><polygon points="335.0,85.0 335.0,95.0 325.0,95.0 320.0,95.0 320.0,85.0 325.0,85.0" fill="rgb(0,0,0)" opacity="1.0" shape-rendering="crispEdges" /><circle cx="410.0" cy="90.0" r="8.333333" fill="rgb(0,0,0)" opacity="1.0" /><polygon points="415.0,85.0 415.0,95.0 415.0,100.0 405.0,100.0 405.0,95.0 405.0,85.0" fill="rgb(0,0,0)" opacity="1.0" shape-rendering="crispEdges" /><circle cx="510.0" cy="90.0" r="8.333333" fill="rgb(0,0,0)" opacity="1.0" /><polygon points="515.0,85.0 520.0,85.0 520.0,95.0 515.0,95.0 505.0,95.0 505.0,85.0" fill="rgb(0,0,0)" opacity="1.0" shape-rendering="crispEdges" /><polygon points="535.0,85.0 535.0,95.0 535.0,100.0 525.0,100.0 525.0,95.0 520.0,95.0 520.0,85.0 525.0,85.0" fill="rgb(0,0,0)" opacity="1.0" shape-rendering="crispEdges" /><circle cx="390.0" cy="110.0" r="8.333333" fill="rgb(0,0,0)" opacity="1.0" /><polygon points="395.0,105.0 400.0,105.0 400.0,115.0 395.0,115.0 385.0,115.0 385.0,105.0" fill="rgb(0,0,0)" opacity="1.0" shape-rendering="crispEdges" /><polygon points="405.0,100.0 415.0,100.0 415.0,105.0 415.0,115.0 405.0,115.0 400.0,115.0 400.0,105.0 405.0,105.0" fill="rgb(0,0,0)" opacity="1.0" shape-rendering="crispEdges" /><circle cx="450.0" cy="110.0" r="8.333333" fill="rgb(0,0,0)" opacity="1.0" /><polygon points="455.0,105.0 460.0,105.0 460.0,115.0 455.0,115.0 445.0,115.0 445.0,105.0" fill="rgb(0,0,0)" opacity="1.0" shape-rendering="crispEdges" /><polygon points="475.0,105.0 480.0,105.0 480.0,115.0 475.0,115.0 475.0,120.0 465.0,120.0 465.0,115.0 460.0,115.0 460.0,105.0 465.0,105.0" fill="rgb(0,0,0)" opacity="1.0" shape-rendering="crispEdges" /><circle cx="490.0" cy="110.0" r="8.333333" fill="rgb(0,0,0)" opacity="1.0" /><polygon points="495.0,105.0 495.0,115.0 485.0,115.0 480.0,115.0 480.0,105.0 485.0,105.0" fill="rgb(0,0,0)" opacity="1.0" shape-rendering="crispEdges" /><polygon points="525.0,100.0 535.0,100.0 535.0,105.0 540.0,105.0 540.0,115.0 535.0,115.0 525.0,115.0 525.0,105.0" fill="rgb(0,0,0)" opacity="1.0" shape-rendering="crispEdges" /><polygon points="555.0,105.0 560.0,105.0 560.0,115.0 555.0,115.0 555.0,120.0 545.0,120.0 545.0,115.0 540.0,115.0 540.0,105.0 545.0,105.0" fill="rgb(0,0,0)" opacity="1.0" shape-rendering="crispEdges" /><circle cx="570.0" cy="110.0" r="8.333333" fill="rgb(0,0,0)" opacity="1.0" /><polygon points="575.0,105.0 575.0,115.0 565.0,115.0 560.0,115.0 560.0,105.0 565.0,105.0" fill="rgb(0,0,0)" opacity="1.0" shape-rendering="crispEdges" /><circle cx="250.0" cy="130.0" r="8.333333" fill="rgb(0,0,0)" opacity="1.0" /><polygon points="255.0,125.0 255.0,135.0 255.0,140.0 245.0,140.0 245.0,135.0 245.0,125.0" fill="rgb(0,0,0)" opacity="1.0" shape-rendering="crispEdges" /><circle cx="310.0" cy="130.0" r="8.333333" fill="rgb(0,0,0)" opacity="1.0" /><polygon points="315.0,125.0 315.0,135.0 315.0,140.0 305.0,140.0 305.0,135.0 305.0,125.0" fill="rgb(0,0,0)" opacity="1.0" shape-rendering="crispEdges" /><polygon points="375.0,125.0 375.0,135.0 365.0,135.0 365.0,125.0" fill="rgb(0,0,0)" opacity="1.0" shape-rendering="crispEdges" /><circle cx="470.0" cy="130.0" r="8.333333" fill="rgb(0,0,0)" opacity="1.0" /><polygon points="465.0,120.0 475.0,120.0 475.0,125.0 475.0,135.0 465.0,135.0 465.0,125.0" fill="rgb(0,0,0)" opacity="1.0" shape-rendering="crispEdges" /><circle cx="510.0" cy="130.0" r="8.333333" fill="rgb(0,0,0)" opacity="1.0" /><polygon points="515.0,125.0 515.0,135.0 515.0,140.0 505.0,140.0 505.0,135.0 505.0,125.0" fill="rgb(0,0,0)" opacity="1.0" shape-rendering="crispEdges" /><circle cx="550.0" cy="130.0" r="8.333333" fill="rgb(0,0,0)" opacity="1.0" /><polygon points="545.0,120.0 555.0,120.0 555.0,125.0 555.0,135.0 545.0,135.0 545.0,125.0" fill="rgb(0,0,0)" opacity="1.0" shape-rendering="crispEdges" /><polygon points="245.0,140.0 255.0,140.0 255.0,145.0 255.0,155.0 255.0,160.0 245.0,160.0 245.0,155.0 245.0,145.0" fill="rgb(0,0,0)" opacity="1.0" shape-rendering="crispEdges" /><circle cx="290.0" cy="150.0" r="8.333333" fill="rgb(0,0,0)" opacity="1.0" /><polygon points="295.0,145.0 300.0,145.0 300.0,155.0 295.0,155.0 285.0,155.0 285.0,145.0" fill="rgb(0,0,0)" opacity="1.0" shape-rendering="crispEdges" /><polygon points="305.0,140.0 315.0,140.0 315.0,145.0 320.0,145.0 320.0,155.0 315.0,155.0 305.0,155.0 300.0,155.0 300.0,145.0 305.0,145.0" fill="rgb(0,0,0)" opacity="1.0" shape-rendering="crispEdges" /><circle cx="330.0" cy="150.0" r="8.333333" fill="rgb(0,0,0)" opacity="1.0" /><polygon points="335.0,145.0 335.0,155.0 325.0,155.0 320.0,155.0 320.0,145.0 325.0,145.0" fill="rgb(0,0,0)" opacity="1.0" shape-rendering="crispEdges" /><circle cx="390.0" cy="150.0" r="8.333333" fill="rgb(0,0,0)" opacity="1.0" /><polygon points="395.0,145.0 395.0,155.0 395.0,160.0 385.0,160.0 385.0,155.0 385.0,145.0" fill="rgb(0,0,0)" opacity="1.0" shape-rendering="crispEdges" /><polygon points="455.0,145.0 455.0,155.0 445.0,155.0 445.0,145.0" fill="rgb(0,0,0)" opacity="1.0" shape-rendering="crispEdges" /><polygon points="505.0,140.0 515.0,140.0 515.0,145.0 520.0,145.0 520.0,155.0 515.0,155.0 515.0,160.0 505.0,160.0 505.0,155.0 505.0,145.0" fill="rgb(0,0,0)" opacity="1.0" shape-rendering="crispEdges" /><circle cx="530.0" cy="150.0" r="8.333333" fill="rgb(0,0,0)" opacity="1.0" /><polygon points="535.0,145.0 535.0,155.0 525.0,155.0 520.0,155.0 520.0,145.0 525.0,145.0" fill="rgb(0,0,0)" opacity="1.0" shape-rendering="crispEdges" /><polygon points="245.0,160.0 255.0,160.0 255.0,165.0 255.0,175.0 255.0,180.0 245.0,180.0 245.0,175.0 245.0,165.0" fill="rgb(0,0,0)" opacity="1.0" shape-rendering="crispEdges" /><circle cx="370.0" cy="170.0" r="8.333333" fill="rgb(0,0,0)" opacity="1.0" /><polygon points="375.0,165.0 380.0,165.0 380.0,175.0 375.0,175.0 365.0,175.0 365.0,165.0" fill="rgb(0,0,0)" opacity="1.0" shape-rendering="crispEdges" /><polygon points="385.0,160.0 395.0,160.0 395.0,165.0 400.0,165.0 400.0,175.0 395.0,175.0 385.0,175.0 380.0,175.0 380.0,165.0 385.0,165.0" fill="rgb(0,0,0)" opacity="1.0" shape-rendering="crispEdges" /><circle cx="410.0" cy="170.0" r="8.333333" fill="rgb(0,0,0)" opacity="1.0" /><polygon points="415.0,165.0 415.0,175.0 405.0,175.0 400.0,175.0 400.0,165.0 405.0,165.0" fill="rgb(0,0,0)" opacity="1.0" shape-rendering="crispEdges" /><circle cx="490.0" cy="170.0" r="8.333333" fill="rgb(0,0,0)" opacity="1.0" /><polygon points="495.0,165.0 500.0,165.0 500.0,175.0 495.0,175.0 485.0,175.0 485.0,165.0" fill="rgb(0,0,0)" opacity="1.0" shape-rendering="crispEdges" /><polygon points="505.0,160.0 515.0,160.0 515.0,165.0 515.0,175.0 505.0,175.0 500.0,175.0 500.0,165.0 505.0,165.0" fill="rgb(0,0,0)" opacity="1.0" shape-rendering="crispEdges" /><circle cx="550.0" cy="170.0" r="8.333333" fill="rgb(0,0,0)" opacity="1.0" /><polygon points="555.0,165.0 555.0,175.0 555.0,180.0 545.0,180.0 545.0,175.0 545.0,165.0" fill="rgb(0,0,0)" opacity="1.0" shape-rendering="crispEdges" /><polygon points="245.0,180.0 255.0,180.0 255.0,185.0 260.0,185.0 260.0,195.0 255.0,195.0 255.0,200.0 245.0,200.0 245.0,195.0 245.0,185.0" fill="rgb(0,0,0)" opacity="1.0" shape-rendering="crispEdges" /><polygon points="275.0,185.0 280.0,185.0 280.0,195.0 275.0,195.0 265.0,195.0 260.0,195.0 260.0,185.0 265.0,185.0" fill="rgb(0,0,0)" opacity="1.0" shape-rendering="crispEdges" /><polygon points="295.0,185.0 300.0,185.0 300.0,195.0 295.0,195.0 295.0,200.0 285.0,200.0 285.0,195.0 280.0,195.0 280.0,185.0 285.0,185.0" fill="rgb(0,0,0)" opacity="1.0" shape-rendering="crispEdges" /><circle cx="310.0" cy="190.0" r="8.333333" fill="rgb(0,0,0)" opacity="1.0" /><polygon points="315.0,185.0 315.0,195.0 305.0,195.0 300.0,195.0 300.0,185.0 305.0,185.0" fill="rgb(0,0,0)" opacity="1.0" shape-rendering="crispEdges" /><polygon points="355.0,185.0 355.0,195.0 345.0,195.0 345.0,185.0" fill="rgb(0,0,0)" opacity="1.0" shape-rendering="crispEdges" /><circle cx="430.0" cy="190.0" r="8.333333" fill="rgb(0,0,0)" opacity="1.0" /><polygon points="435.0,185.0 440.0,185.0 440.0,195.0 435.0,195.0 425.0,195.0 425.0,185.0" fill="rgb(0,0,0)" opacity="1.0" shape-rendering="crispEdges" /><polygon points="455.0,185.0 460.0,185.0 460.0,195.0 455.0,195.0 455.0,200.0 445.0,200.0 445.0,195.0 440.0,195.0 440.0,185.0 445.0,185.0" fill="rgb(0,0,0)" opacity="1.0" shape-rendering="crispEdges" /><circle cx="470.0" cy="190.0" r="8.333333" fill="rgb(0,0,0)" opacity="1.0" /><polygon points="475.0,185.0 475.0,195.0 465.0,195.0 460.0,195.0 460.0,185.0 465.0,185.0" fill="rgb(0,0,0)" opacity="1.0" shape-rendering="crispEdges" /><polygon points="535.0,185.0 540.0,185.0 540.0,195.0 535.0,195.0 535.0,200.0 525.0,200.0 525.0,195.0 525.0,185.0" fill="rgb(0,0,0)" opacity="1.0" shape-rendering="crispEdges" /><polygon points="545.0,180.0 555.0,180.0 555.0,185.0 560.0,185.0 560.0,195.0 555.0,195.0 545.0,195.0 540.0,195.0 540.0,185.0 545.0,185.0" fill="rgb(0,0,0)" opacity="1.0" shape-rendering="crispEdges" /><polygon points="575.0,185.0 575.0,195.0 575.0,200.0 565.0,200.0 565.0,195.0 560.0,195.0 560.0,185.0 565.0,185.0" fill="rgb(0,0,0)" opacity="1.0" shape-rendering="crispEdges" /><polygon points="245.0,200.0 255.0,200.0 255.0,205.0 255.0,215.0 255.0,220.0 245.0,220.0 245.0,215.0 245.0,205.0" fill="rgb(0,0,0)" opacity="1.0" shape-rendering="crispEdges" /><polygon points="285.0,200.0 295.0,200.0 295.0,205.0 295.0,215.0 295.0,220.0 285.0,220.0 285.0,215.0 285.0,205.0" fill="rgb(0,0,0)" opacity="1.0" shape-rendering="crispEdges" /><circle cx="330.0" cy="210.0" r="8.333333" fill="rgb(0,0,0)" opacity="1.0" /><polygon points="335.0,205.0 335.0,215.0 335.0,220.0 325.0,220.0 325.0,215.0 325.0,205.0" fill="rgb(0,0,0)" opacity="1.0" shape-rendering="crispEdges" /><circle cx="370.0" cy="210.0" r="8.333333" fill="rgb(0,0,0)" opacity="1.0" /><polygon points="375.0,205.0 375.0,215.0 375.0,220.0 365.0,220.0 365.0,215.0 365.0,205.0" fill="rgb(0,0,0)" opacity="1.0" shape-rendering="crispEdges" /><circle cx="410.0" cy="210.0" r="8.333333" fill="rgb(0,0,0)" opacity="1.0" /><polygon points="415.0,205.0 415.0,215.0 415.0,220.0 405.0,220.0 405.0,215.0 405.0,205.0" fill="rgb(0,0,0)" opacity="1.0" shape-rendering="crispEdges" /><circle cx="450.0" cy="210.0" r="8.333333" fill="rgb(0,0,0)" opacity="1.0" /><polygon points="445.0,200.0 455.0,200.0 455.0,205.0 455.0,215.0 445.0,215.0 445.0,205.0" fill="rgb(0,0,0)" opacity="1.0" shape-rendering="crispEdges" /><circle cx="490.0" cy="210.0" r="8.333333" fill="rgb(0,0,0)" opacity="1.0" /><polygon points="495.0,205.0 495.0,215.0 495.0,220.0 485.0,220.0 485.0,215.0 485.0,205.0" fill="rgb(0,0,0)" opacity="1.0" shape-rendering="crispEdges" /><circle cx="530.0" cy="210.0" r="8.333333" fill="rgb(0,0,0)" opacity="1.0" /><polygon points="525.0,200.0 535.0,200.0 535.0,205.0 535.0,215.0 525.0,215.0 525.0,205.0" fill="rgb(0,0,0)" opacity="1.0" shape-rendering="crispEdges" /><circle cx="570.0" cy="210.0" r="8.333333" fill="rgb(0,0,0)" opacity="1.0" /><polygon points="565.0,200.0 575.0,200.0 575.0,205.0 575.0,215.0 565.0,215.0 565.0,205.0" fill="rgb(0,0,0)" opacity="1.0" shape-rendering="crispEdges" /><circle cx="250.0" cy="230.0" r="8.333333" fill="rgb(0,0,0)" opacity="1.0" /><polygon points="245.0,220.0 255.0,220.0 255.0,225.0 255.0,235.0 245.0,235.0 245.0,225.0" fill="rgb(0,0,0)" opacity="1.0" shape-rendering="crispEdges" /><polygon points="285.0,220.0 295.0,220.0 295.0,225.0 295.0,235.0 295.0,240.0 285.0,240.0 285.0,235.0 285.0,225.0" fill="rgb(0,0,0)" opacity="1.0" shape-rendering="crispEdges" /><polygon points="325.0,220.0 335.0,220.0 335.0,225.0 340.0,225.0 340.0,235.0 335.0,235.0 335.0,240.0 325.0,240.0 325.0,235.0 325.0,225.0" fill="rgb(0,0,0)" opacity="1.0" shape-rendering="crispEdges" /><polygon points="355.0,225.0 360.0,225.0 360.0,235.0 355.0,235.0 355.0,240.0 345.0,240.0 345.0,235.0 340.0,235.0 340.0,225.0 345.0,225.0" fill="rgb(0,0,0)" opacity="1.0" shape-rendering="crispEdges" /><polygon points="365.0,220.0 375.0,220.0 375.0,225.0 375.0,235.0 375.0,240.0 365.0,240.0 365.0,235.0 360.0,235.0 360.0,225.0 365.0,225.0" fill="rgb(0,0,0)" opacity="1.0" shape-rendering="crispEdges" /><polygon points="405.0,220.0 415.0,220.0 415.0,225.0 420.0,225.0 420.0,235.0 415.0,235.0 415.0,240.0 405.0,240.0 405.0,235.0 405.0,225.0" fill="rgb(0,0,0)" opacity="1.0" shape-rendering="crispEdges" /><circle cx="430.0" cy="230.0" r="8.333333" fill="rgb(0,0,0)" opacity="1.0" /><polygon points="435.0,225.0 435.0,235.0 425.0,235.0 420.0,235.0 420.0,225.0 425.0,225.0" fill="rgb(0,0,0)" opacity="1.0" shape-rendering="crispEdges" /><polygon points="475.0,225.0 480.0,225.0 480.0,235.0 475.0,235.0 475.0,240.0 465.0,240.0 465.0,235.0 465.0,225.0" fill="rgb(0,0,0)" opacity="1.0" shape-rendering="crispEdges" /><polygon points="485.0,220.0 495.0,220.0 495.0,225.0 500.0,225.0 500.0,235.0 495.0,235.0 495.0,240.0 485.0,240.0 485.0,235.0 480.0,235.0 480.0,225.0 485.0,225.0" fill="rgb(0,0,0)" opacity="1.0" shape-rendering="crispEdges" /><polygon points="515.0,225.0 515.0,235.0 515.0,240.0 505.0,240.0 505.0,235.0 500.0,235.0 500.0,225.0 505.0,225.0" fill="rgb(0,0,0)" opacity="1.0" shape-rendering="crispEdges" /><polygon points="555.0,225.0 555.0,235.0 545.0,235.0 545.0,225.0" fill="rgb(0,0,0)" opacity="1.0" shape-rendering="crispEdges" /><polygon points="95.0,245.0 95.0,255.0 85.0,255.0 85.0,245.0" fill="rgb(0,0,0)" opacity="1.0" shape-rendering="crispEdges" /><polygon points="135.0,245.0 140.0,245.0 140.0,255.0 135.0,255.0 135.0,260.0 125.0,260.0 125.0,255.0 125.0,245.0" fill="rgb(0,0,0)" opacity="1.0" shape-rendering="crispEdges" /><polygon points="155.0,245.0 160.0,245.0 160.0,255.0 155.0,255.0 155.0,260.0 145.0,260.0 145.0,255.0 140.0,255.0 140.0,245.0 145.0,245.0" fill="rgb(0,0,0)" opacity="1.0" shape-rendering="crispEdges" /><polygon points="175.0,245.0 180.0,245.0 180.0,255.0 175.0,255.0 165.0,255.0 160.0,255.0 160.0,245.0 165.0,245.0" fill="rgb(0,0,0)" opacity="1.0" shape-rendering="crispEdges" /><polygon points="195.0,245.0 200.0,245.0 200.0,255.0 195.0,255.0 185.0,255.0 180.0,255.0 180.0,245.0 185.0,245.0" fill="rgb(0,0,0)" opacity="1.0" shape-rendering="crispEdges" /><circle cx="210.0" cy="250.0" r="8.333333" fill="rgb(0,0,0)" opacity="1.0" /><polygon points="215.0,245.0 215.0,255.0 205.0,255.0 200.0,255.0 200.0,245.0 205.0,245.0" fill="rgb(0,0,0)" opacity="1.0" shape-rendering="crispEdges" /><polygon points="285.0,240.0 295.0,240.0 295.0,245.0 300.0,245.0 300.0,255.0 295.0,255.0 295.0,260.0 285.0,260.0 285.0,255.0 285.0,245.0" fill="rgb(0,0,0)" opacity="1.0" shape-rendering="crispEdges" /><polygon points="315.0,245.0 320.0,245.0 320.0,255.0 315.0,255.0 305.0,255.0 300.0,255.0 300.0,245.0 305.0,245.0" fill="rgb(0,0,0)" opacity="1.0" shape-rendering="crispEdges" /><polygon points="325.0,240.0 335.0,240.0 335.0,245.0 340.0,245.0 340.0,255.0 335.0,255.0 325.0,255.0 320.0,255.0 320.0,245.0 325.0,245.0" fill="rgb(0,0,0)" opacity="1.0" shape-rendering="crispEdges" /><polygon points="345.0,240.0 355.0,240.0 355.0,245.0 360.0,245.0 360.0,255.0 355.0,255.0 355.0,260.0 345.0,260.0 345.0,255.0 340.0,255.0 340.0,245.0 345.0,245.0" fill="rgb(0,0,0)" opacity="1.0" shape-rendering="crispEdges" /><polygon points="365.0,240.0 375.0,240.0 375.0,245.0 375.0,255.0 375.0,260.0 365.0,260.0 365.0,255.0 360.0,255.0 360.0,245.0 365.0,245.0" fill="rgb(0,0,0)" opacity="1.0" shape-rendering="crispEdges" /><polygon points="405.0,240.0 415.0,240.0 415.0,245.0 415.0,255.0 415.0,260.0 405.0,260.0 405.0,255.0 405.0,245.0" fill="rgb(0,0,0)" opacity="1.0" shape-rendering="crispEdges" /><circle cx="450.0" cy="250.0" r="8.333333" fill="rgb(0,0,0)" opacity="1.0" /><polygon points="455.0,245.0 460.0,245.0 460.0,255.0 455.0,255.0 445.0,255.0 445.0,245.0" fill="rgb(0,0,0)" opacity="1.0" shape-rendering="crispEdges" /><polygon points="465.0,240.0 475.0,240.0 475.0,245.0 480.0,245.0 480.0,255.0 475.0,255.0 475.0,260.0 465.0,260.0 465.0,255.0 460.0,255.0 460.0,245.0 465.0,245.0" fill="rgb(0,0,0)" opacity="1.0" shape-rendering="crispEdges" /><polygon points="485.0,240.0 495.0,240.0 495.0,245.0 500.0,245.0 500.0,255.0 495.0,255.0 485.0,255.0 480.0,255.0 480.0,245.0 485.0,245.0" fill="rgb(0,0,0)" opacity="1.0" shape-rendering="crispEdges" /><polygon points="505.0,240.0 515.0,240.0 515.0,245.0 520.0,245.0 520.0,255.0 515.0,255.0 515.0,260.0 505.0,260.0 505.0,255.0 500.0,255.0 500.0,245.0 505.0,245.0" fill="rgb(0,0,0)" opacity="1.0" shape-rendering="crispEdges" /><polygon points="535.0,245.0 535.0,255.0 535.0,260.0 525.0,260.0 525.0,255.0 520.0,255.0 520.0,245.0 525.0,245.0" fill="rgb(0,0,0)" opacity="1.0" shape-rendering="crispEdges" /><polygon points="575.0,245.0 575.0,255.0 565.0,255.0 565.0,245.0" fill="rgb(0,0,0)" opacity="1.0" shape-rendering="crispEdges" /><polygon points="615.0,245.0 620.0,245.0 620.0,255.0 615.0,255.0 615.0,260.0 605.0,260.0 605.0,255.0 605.0,245.0" fill="rgb(0,0,0)" opacity="1.0" shape-rendering="crispEdges" /><polygon points="635.0,245.0 640.0,245.0 640.0,255.0 635.0,255.0 635.0,260.0 625.0,260.0 625.0,255.0 620.0,255.0 620.0,245.0 625.0,245.0" fill="rgb(0,0,0)" opacity="1.0" shape-rendering="crispEdges" /><polygon points="655.0,245.0 660.0,245.0 660.0,255.0 655.0,255.0 655.0,260.0 645.0,260.0 645.0,255.0 640.0,255.0 640.0,245.0 645.0,245.0" fill="rgb(0,0,0)" opacity="1.0" shape-rendering="crispEdges" /><polygon points="675.0,245.0 680.0,245.0 680.0,255.0 675.0,255.0 675.0,260.0 665.0,260.0 665.0,255.0 660.0,255.0 660.0,245.0 665.0,245.0" fill="rgb(0,0,0)" opacity="1.0" shape-rendering="crispEdges" /><polygon points="695.0,245.0 695.0,255.0 695.0,260.0 685.0,260.0 685.0,255.0 680.0,255.0 680.0,245.0 685.0,245.0" fill="rgb(0,0,0)" opacity="1.0" shape-rendering="crispEdges" /><polygon points="125.0,260.0 135.0,260.0 135.0,265.0 140.0,265.0 140.0,275.0 135.0,275.0 125.0,275.0 125.0,265.0" fill="rgb(0,0,0)" opacity="1.0" shape-rendering="crispEdges" /><polygon points="145.0,260.0 155.0,260.0 155.0,265.0 155.0,275.0 155.0,280.0 145.0,280.0 145.0,275.0 140.0,275.0 140.0,265.0 145.0,265.0" fill="rgb(0,0,0)" opacity="1.0" shape-rendering="crispEdges" /><circle cx="230.0" cy="270.0" r="8.333333" fill="rgb(0,0,0)" opacity="1.0" /><polygon points="235.0,265.0 240.0,265.0 240.0,275.0 235.0,275.0 225.0,275.0 225.0,265.0" fill="rgb(0,0,0)" opacity="1.0" shape-rendering="crispEdges" /><polygon points="255.0,265.0 255.0,275.0 255.0,280.0 245.0,280.0 245.0,275.0 240.0,275.0 240.0,265.0 245.0,265.0" fill="rgb(0,0,0)" opacity="1.0" shape-rendering="crispEdges" /><circle cx="290.0" cy="270.0" r="8.333333" fill="rgb(0,0,0)" opacity="1.0" /><polygon points="285.0,260.0 295.0,260.0 295.0,265.0 295.0,275.0 285.0,275.0 285.0,265.0" fill="rgb(0,0,0)" opacity="1.0" shape-rendering="crispEdges" /><polygon points="345.0,260.0 355.0,260.0 355.0,265.0 360.0,265.0 360.0,275.0 355.0,275.0 355.0,280.0 345.0,280.0 345.0,275.0 345.0,265.0" fill="rgb(0,0,0)" opacity="1.0" shape-rendering="crispEdges" /><polygon points="365.0,260.0 375.0,260.0 375.0,265.0 380.0,265.0 380.0,275.0 375.0,275.0 375.0,280.0 365.0,280.0 365.0,275.0 360.0,275.0 360.0,265.0 365.0,265.0" fill="rgb(0,0,0)" opacity="1.0" shape-rendering="crispEdges" /><polygon points="395.0,265.0 400.0,265.0 400.0,275.0 395.0,275.0 395.0,280.0 385.0,280.0 385.0,275.0 380.0,275.0 380.0,265.0 385.0,265.0" fill="rgb(0,0,0)" opacity="1.0" shape-rendering="crispEdges" /><polygon points="405.0,260.0 415.0,260.0 415.0,265.0 420.0,265.0 420.0,275.0 415.0,275.0 415.0,280.0 405.0,280.0 405.0,275.0 400.0,275.0 400.0,265.0 405.0,265.0" fill="rgb(0,0,0)" opacity="1.0" shape-rendering="crispEdges" /><polygon points="435.0,265.0 435.0,275.0 435.0,280.0 425.0,280.0 425.0,275.0 420.0,275.0 420.0,265.0 425.0,265.0" fill="rgb(0,0,0)" opacity="1.0" shape-rendering="crispEdges" /><circle cx="470.0" cy="270.0" r="8.333333" fill="rgb(0,0,0)" opacity="1.0" /><polygon points="465.0,260.0 475.0,260.0 475.0,265.0 475.0,275.0 465.0,275.0 465.0,265.0" fill="rgb(0,0,0)" opacity="1.0" shape-rendering="crispEdges" /><polygon points="505.0,260.0 515.0,260.0 515.0,265.0 520.0,265.0 520.0,275.0 515.0,275.0 505.0,275.0 505.0,265.0" fill="rgb(0,0,0)" opacity="1.0" shape-rendering="crispEdges" /><polygon points="525.0,260.0 535.0,260.0 535.0,265.0 540.0,265.0 540.0,275.0 535.0,275.0 535.0,280.0 525.0,280.0 525.0,275.0 520.0,275.0 520.0,265.0 525.0,265.0" fill="rgb(0,0,0)" opacity="1.0" shape-rendering="crispEdges" /><polygon points="555.0,265.0 555.0,275.0 555.0,280.0 545.0,280.0 545.0,275.0 540.0,275.0 540.0,265.0 545.0,265.0" fill="rgb(0,0,0)" opacity="1.0" shape-rendering="crispEdges" /><polygon points="605.0,260.0 615.0,260.0 615.0,265.0 620.0,265.0 620.0,275.0 615.0,275.0 605.0,275.0 605.0,265.0" fill="rgb(0,0,0)" opacity="1.0" shape-rendering="crispEdges" /><polygon points="625.0,260.0 635.0,260.0 635.0,265.0 640.0,265.0 640.0,275.0 635.0,275.0 625.0,275.0 620.0,275.0 620.0,265.0 625.0,265.0" fill="rgb(0,0,0)" opacity="1.0" shape-rendering="crispEdges" /><polygon points="645.0,260.0 655.0,260.0 655.0,265.0 660.0,265.0 660.0,275.0 655.0,275.0 655.0,280.0 645.0,280.0 645.0,275.0 640.0,275.0 640.0,265.0 645.0,265.0" fill="rgb(0,0,0)" opacity="1.0" shape-rendering="crispEdges" /><polygon points="665.0,260.0 675.0,260.0 675.0,265.0 680.0,265.0 680.0,275.0 675.0,275.0 665.0,275.0 660.0,275.0 660.0,265.0 665.0,265.0" fill="rgb(0,0,0)" opacity="1.0" shape-rendering="crispEdges" /><polygon points="685.0,260.0 695.0,260.0 695.0,265.0 695.0,275.0 685.0,275.0 680.0,275.0 680.0,265.0 685.0,265.0" fill="rgb(0,0,0)" opacity="1.0" shape-rendering="crispEdges" /><circle cx="110.0" cy="290.0" r="8.333333" fill="rgb(0,0,0)" opacity="1.0" /><polygon points="115.0,285.0 115.0,295.0 115.0,300.0 105.0,300.0 105.0,295.0 105.0,285.0" fill="rgb(0,0,0)" opacity="1.0" shape-rendering="crispEdges" /><polygon points="145.0,280.0 155.0,280.0 155.0,285.0 155.0,295.0 155.0,300.0 145.0,300.0 145.0,295.0 145.0,285.0" fill="rgb(0,0,0)" opacity="1.0" shape-rendering="crispEdges" /><polygon points="195.0,285.0 200.0,285.0 200.0,295.0 195.0,295.0 195.0,300.0 185.0,300.0 185.0,295.0 185.0,285.0" fill="rgb(0,0,0)" opacity="1.0" shape-rendering="crispEdges" /><circle cx="210.0" cy="290.0" r="8.333333" fill="rgb(0,0,0)" opacity="1.0" /><polygon points="215.0,285.0 215.0,295.0 205.0,295.0 200.0,295.0 200.0,285.0 205.0,285.0" fill="rgb(0,0,0)" opacity="1.0" shape-rendering="crispEdges" /><polygon points="245.0,280.0 255.0,280.0 255.0,285.0 260.0,285.0 260.0,295.0 255.0,295.0 255.0,300.0 245.0,300.0 245.0,295.0 245.0,285.0" fill="rgb(0,0,0)" opacity="1.0" shape-rendering="crispEdges" /><circle cx="270.0" cy="290.0" r="8.333333" fill="rgb(0,0,0)" opacity="1.0" /><polygon points="275.0,285.0 275.0,295.0 265.0,295.0 260.0,295.0 260.0,285.0 265.0,285.0" fill="rgb(0,0,0)" opacity="1.0" shape-rendering="crispEdges" /><circle cx="310.0" cy="290.0" r="8.333333" fill="rgb(0,0,0)" opacity="1.0" /><polygon points="315.0,285.0 320.0,285.0 320.0,295.0 315.0,295.0 305.0,295.0 305.0,285.0" fill="rgb(0,0,0)" opacity="1.0" shape-rendering="crispEdges" /><polygon points="335.0,285.0 340.0,285.0 340.0,295.0 335.0,295.0 335.0,300.0 325.0,300.0 325.0,295.0 320.0,295.0 320.0,285.0 325.0,285.0" fill="rgb(0,0,0)" opacity="1.0" shape-rendering="crispEdges" /><polygon points="345.0,280.0 355.0,280.0 355.0,285.0 360.0,285.0 360.0,295.0 355.0,295.0 355.0,300.0 345.0,300.0 345.0,295.0 340.0,295.0 340.0,285.0 345.0,285.0" fill="rgb(0,0,0)" opacity="1.0" shape-rendering="crispEdges" /><polygon points="365.0,280.0 375.0,280.0 375.0,285.0 380.0,285.0 380.0,295.0 375.0,295.0 365.0,295.0 360.0,295.0 360.0,285.0 365.0,285.0" fill="rgb(0,0,0)" opacity="1.0" shape-rendering="crispEdges" /><polygon points="385.0,280.0 395.0,280.0 395.0,285.0 400.0,285.0 400.0,295.0 395.0,295.0 385.0,295.0 380.0,295.0 380.0,285.0 385.0,285.0" fill="rgb(0,0,0)" opacity="1.0" shape-rendering="crispEdges" /><polygon points="405.0,280.0 415.0,280.0 415.0,285.0 420.0,285.0 420.0,295.0 415.0,295.0 405.0,295.0 400.0,295.0 400.0,285.0 405.0,285.0" fill="rgb(0,0,0)" opacity="1.0" shape-rendering="crispEdges" /><polygon points="425.0,280.0 435.0,280.0 435.0,285.0 435.0,295.0 435.0,300.0 425.0,300.0 425.0,295.0 420.0,295.0 420.0,285.0 425.0,285.0" fill="rgb(0,0,0)" opacity="1.0" shape-rendering="crispEdges" /><polygon points="495.0,285.0 495.0,295.0 485.0,295.0 485.0,285.0" fill="rgb(0,0,0)" opacity="1.0" shape-rendering="crispEdges" /><polygon points="525.0,280.0 535.0,280.0 535.0,285.0 540.0,285.0 540.0,295.0 535.0,295.0 525.0,295.0 525.0,285.0" fill="rgb(0,0,0)" opacity="1.0" shape-rendering="crispEdges" /><polygon points="545.0,280.0 555.0,280.0 555.0,285.0 560.0,285.0 560.0,295.0 555.0,295.0 555.0,300.0 545.0,300.0 545.0,295.0 540.0,295.0 540.0,285.0 545.0,285.0" fill="rgb(0,0,0)" opacity="1.0" shape-rendering="crispEdges" /><polygon points="575.0,285.0 580.0,285.0 580.0,295.0 575.0,295.0 575.0,300.0 565.0,300.0 565.0,295.0 560.0,295.0 560.0,285.0 565.0,285.0" fill="rgb(0,0,0)" opacity="1.0" shape-rendering="crispEdges" /><polygon points="595.0,285.0 595.0,295.0 595.0,300.0 585.0,300.0 585.0,295.0 580.0,295.0 580.0,285.0 585.0,285.0" fill="rgb(0,0,0)" opacity="1.0" shape-rendering="crispEdges" /><circle cx="650.0" cy="290.0" r="8.333333" fill="rgb(0,0,0)" opacity="1.0" /><polygon points="645.0,280.0 655.0,280.0 655.0,285.0 655.0,295.0 645.0,295.0 645.0,285.0" fill="rgb(0,0,0)" opacity="1.0" shape-rendering="crispEdges" /><circle cx="730.0" cy="290.0" r="8.333333" fill="rgb(0,0,0)" opacity="1.0" /><polygon points="735.0,285.0 735.0,295.0 735.0,300.0 725.0,300.0 725.0,295.0 725.0,285.0" fill="rgb(0,0,0)" opacity="1.0" shape-rendering="crispEdges" /><polygon points="95.0,305.0 100.0,305.0 100.0,315.0 95.0,315.0 95.0,320.0 85.0,320.0 85.0,315.0 85.0,305.0" fill="rgb(0,0,0)" opacity="1.0" shape-rendering="crispEdges" /><polygon points="105.0,300.0 115.0,300.0 115.0,305.0 115.0,315.0 105.0,315.0 100.0,315.0 100.0,305.0 105.0,305.0" fill="rgb(0,0,0)" opacity="1.0" shape-rendering="crispEdges" /><polygon points="145.0,300.0 155.0,300.0 155.0,305.0 160.0,305.0 160.0,315.0 155.0,315.0 145.0,315.0 145.0,305.0" fill="rgb(0,0,0)" opacity="1.0" shape-rendering="crispEdges" /><polygon points="175.0,305.0 180.0,305.0 180.0,315.0 175.0,315.0 175.0,320.0 165.0,320.0 165.0,315.0 160.0,315.0 160.0,305.0 165.0,305.0" fill="rgb(0,0,0)" opacity="1.0" shape-rendering="crispEdges" /><polygon points="185.0,300.0 195.0,300.0 195.0,305.0 195.0,315.0 185.0,315.0 180.0,315.0 180.0,305.0 185.0,305.0" fill="rgb(0,0,0)" opacity="1.0" shape-rendering="crispEdges" /><circle cx="230.0" cy="310.0" r="8.333333" fill="rgb(0,0,0)" opacity="1.0" /><polygon points="235.0,305.0 240.0,305.0 240.0,315.0 235.0,315.0 225.0,315.0 225.0,305.0" fill="rgb(0,0,0)" opacity="1.0" shape-rendering="crispEdges" /><polygon points="245.0,300.0 255.0,300.0 255.0,305.0 255.0,315.0 255.0,320.0 245.0,320.0 245.0,315.0 240.0,315.0 240.0,305.0 245.0,305.0" fill="rgb(0,0,0)" opacity="1.0" shape-rendering="crispEdges" /><polygon points="325.0,300.0 335.0,300.0 335.0,305.0 340.0,305.0 340.0,315.0 335.0,315.0 325.0,315.0 325.0,305.0" fill="rgb(0,0,0)" opacity="1.0" shape-rendering="crispEdges" /><polygon points="345.0,300.0 355.0,300.0 355.0,305.0 355.0,315.0 345.0,315.0 340.0,315.0 340.0,305.0 345.0,305.0" fill="rgb(0,0,0)" opacity="1.0" shape-rendering="crispEdges" /><polygon points="425.0,300.0 435.0,300.0 435.0,305.0 440.0,305.0 440.0,315.0 435.0,315.0 425.0,315.0 425.0,305.0" fill="rgb(0,0,0)" opacity="1.0" shape-rendering="crispEdges" /><polygon points="455.0,305.0 460.0,305.0 460.0,315.0 455.0,315.0 445.0,315.0 440.0,315.0 440.0,305.0 445.0,305.0" fill="rgb(0,0,0)" opacity="1.0" shape-rendering="crispEdges" /><circle cx="470.0" cy="310.0" r="8.333333" fill="rgb(0,0,0)" opacity="1.0" /><polygon points="475.0,305.0 475.0,315.0 465.0,315.0 460.0,315.0 460.0,305.0 465.0,305.0" fill="rgb(0,0,0)" opacity="1.0" shape-rendering="crispEdges" /><circle cx="510.0" cy="310.0" r="8.333333" fill="rgb(0,0,0)" opacity="1.0" /><polygon points="515.0,305.0 515.0,315.0 515.0,320.0 505.0,320.0 505.0,315.0 505.0,305.0" fill="rgb(0,0,0)" opacity="1.0" shape-rendering="crispEdges" /><polygon points="545.0,300.0 555.0,300.0 555.0,305.0 560.0,305.0 560.0,315.0 555.0,315.0 545.0,315.0 545.0,305.0" fill="rgb(0,0,0)" opacity="1.0" shape-rendering="crispEdges" /><polygon points="565.0,300.0 575.0,300.0 575.0,305.0 580.0,305.0 580.0,315.0 575.0,315.0 565.0,315.0 560.0,315.0 560.0,305.0 565.0,305.0" fill="rgb(0,0,0)" opacity="1.0" shape-rendering="crispEdges" /><polygon points="585.0,300.0 595.0,300.0 595.0,305.0 600.0,305.0 600.0,315.0 595.0,315.0 585.0,315.0 580.0,315.0 580.0,305.0 585.0,305.0" fill="rgb(0,0,0)" opacity="1.0" shape-rendering="crispEdges" /><polygon points="615.0,305.0 620.0,305.0 620.0,315.0 615.0,315.0 605.0,315.0 600.0,315.0 600.0,305.0 605.0,305.0" fill="rgb(0,0,0)" opacity="1.0" shape-rendering="crispEdges" /><polygon points="635.0,305.0 635.0,315.0 635.0,320.0 625.0,320.0 625.0,315.0 620.0,315.0 620.0,305.0 625.0,305.0" fill="rgb(0,0,0)" opacity="1.0" shape-rendering="crispEdges" /><polygon points="715.0,305.0 720.0,305.0 720.0,315.0 715.0,315.0 715.0,320.0 705.0,320.0 705.0,315.0 705.0,305.0" fill="rgb(0,0,0)" opacity="1.0" shape-rendering="crispEdges" /><polygon points="725.0,300.0 735.0,300.0 735.0,305.0 735.0,315.0 725.0,315.0 720.0,315.0 720.0,305.0 725.0,305.0" fill="rgb(0,0,0)" opacity="1.0" shape-rendering="crispEdges" /><circle cx="90.0" cy="330.0" r="8.333333" fill="rgb(0,0,0)" opacity="1.0" /><polygon points="85.0,320.0 95.0,320.0 95.0,325.0 95.0,335.0 85.0,335.0 85.0,325.0" fill="rgb(0,0,0)" opacity="1.0" shape-rendering="crispEdges" /><circle cx="170.0" cy="330.0" r="8.333333" fill="rgb(0,0,0)" opacity="1.0" /><polygon points="165.0,320.0 175.0,320.0 175.0,325.0 175.0,335.0 165.0,335.0 165.0,325.0" fill="rgb(0,0,0)" opacity="1.0" shape-rendering="crispEdges" /><polygon points="215.0,325.0 215.0,335.0 205.0,335.0 205.0,325.0" fill="rgb(0,0,0)" opacity="1.0" shape-rendering="crispEdges" /><polygon points="245.0,320.0 255.0,320.0 255.0,325.0 255.0,335.0 255.0,340.0 245.0,340.0 245.0,335.0 245.0,325.0" fill="rgb(0,0,0)" opacity="1.0" shape-rendering="crispEdges" /><circle cx="290.0" cy="330.0" r="8.333333" fill="rgb(0,0,0)" opacity="1.0" /><polygon points="295.0,325.0 300.0,325.0 300.0,335.0 295.0,335.0 285.0,335.0 285.0,325.0" fill="rgb(0,0,0)" opacity="1.0" shape-rendering="crispEdges" /><polygon points="315.0,325.0 315.0,335.0 315.0,340.0 305.0,340.0 305.0,335.0 300.0,335.0 300.0,325.0 305.0,325.0" fill="rgb(0,0,0)" opacity="1.0" shape-rendering="crispEdges" /><circle cx="370.0" cy="330.0" r="8.333333" fill="rgb(0,0,0)" opacity="1.0" /><polygon points="375.0,325.0 380.0,325.0 380.0,335.0 375.0,335.0 365.0,335.0 365.0,325.0" fill="rgb(0,0,0)" opacity="1.0" shape-rendering="crispEdges" /><polygon points="395.0,325.0 400.0,325.0 400.0,335.0 395.0,335.0 395.0,340.0 385.0,340.0 385.0,335.0 380.0,335.0 380.0,325.0 385.0,325.0" fill="rgb(0,0,0)" opacity="1.0" shape-rendering="crispEdges" /><circle cx="410.0" cy="330.0" r="8.333333" fill="rgb(0,0,0)" opacity="1.0" /><polygon points="415.0,325.0 415.0,335.0 405.0,335.0 400.0,335.0 400.0,325.0 405.0,325.0" fill="rgb(0,0,0)" opacity="1.0" shape-rendering="crispEdges" /><polygon points="505.0,320.0 515.0,320.0 515.0,325.0 520.0,325.0 520.0,335.0 515.0,335.0 515.0,340.0 505.0,340.0 505.0,335.0 505.0,325.0" fill="rgb(0,0,0)" opacity="1.0" shape-rendering="crispEdges" /><polygon points="535.0,325.0 535.0,335.0 535.0,340.0 525.0,340.0 525.0,335.0 520.0,335.0 520.0,325.0 525.0,325.0" fill="rgb(0,0,0)" opacity="1.0" shape-rendering="crispEdges" /><circle cx="630.0" cy="330.0" r="8.333333" fill="rgb(0,0,0)" opacity="1.0" /><polygon points="625.0,320.0 635.0,320.0 635.0,325.0 635.0,335.0 625.0,335.0 625.0,325.0" fill="rgb(0,0,0)" opacity="1.0" shape-rendering="crispEdges" /><polygon points="695.0,325.0 700.0,325.0 700.0,335.0 695.0,335.0 695.0,340.0 685.0,340.0 685.0,335.0 685.0,325.0" fill="rgb(0,0,0)" opacity="1.0" shape-rendering="crispEdges" /><polygon points="705.0,320.0 715.0,320.0 715.0,325.0 715.0,335.0 715.0,340.0 705.0,340.0 705.0,335.0 700.0,335.0 700.0,325.0 705.0,325.0" fill="rgb(0,0,0)" opacity="1.0" shape-rendering="crispEdges" /><polygon points="155.0,345.0 155.0,355.0 145.0,355.0 145.0,345.0" fill="rgb(0,0,0)" opacity="1.0" shape-rendering="crispEdges" /><circle cx="250.0" cy="350.0" r="8.333333" fill="rgb(0,0,0)" opacity="1.0" /><polygon points="245.0,340.0 255.0,340.0 255.0,345.0 255.0,355.0 245.0,355.0 245.0,345.0" fill="rgb(0,0,0)" opacity="1.0" shape-rendering="crispEdges" /><polygon points="305.0,340.0 315.0,340.0 315.0,345.0 315.0,355.0 315.0,360.0 305.0,360.0 305.0,355.0 305.0,345.0" fill="rgb(0,0,0)" opacity="1.0" shape-rendering="crispEdges" /><polygon points="385.0,340.0 395.0,340.0 395.0,345.0 395.0,355.0 395.0,360.0 385.0,360.0 385.0,355.0 385.0,345.0" fill="rgb(0,0,0)" opacity="1.0" shape-rendering="crispEdges" /><circle cx="450.0" cy="350.0" r="8.333333" fill="rgb(0,0,0)" opacity="1.0" /><polygon points="455.0,345.0 455.0,355.0 455.0,360.0 445.0,360.0 445.0,355.0 445.0,345.0" fill="rgb(0,0,0)" opacity="1.0" shape-rendering="crispEdges" /><polygon points="505.0,340.0 515.0,340.0 515.0,345.0 520.0,345.0 520.0,355.0 515.0,355.0 505.0,355.0 505.0,345.0" fill="rgb(0,0,0)" opacity="1.0" shape-rendering="crispEdges" /><polygon points="525.0,340.0 535.0,340.0 535.0,345.0 540.0,345.0 540.0,355.0 535.0,355.0 525.0,355.0 520.0,355.0 520.0,345.0 525.0,345.0" fill="rgb(0,0,0)" opacity="1.0" shape-rendering="crispEdges" /><polygon points="555.0,345.0 560.0,345.0 560.0,355.0 555.0,355.0 545.0,355.0 540.0,355.0 540.0,345.0 545.0,345.0" fill="rgb(0,0,0)" opacity="1.0" shape-rendering="crispEdges" /><polygon points="575.0,345.0 580.0,345.0 580.0,355.0 575.0,355.0 575.0,360.0 565.0,360.0 565.0,355.0 560.0,355.0 560.0,345.0 565.0,345.0" fill="rgb(0,0,0)" opacity="1.0" shape-rendering="crispEdges" /><polygon points="595.0,345.0 600.0,345.0 600.0,355.0 595.0,355.0 585.0,355.0 580.0,355.0 580.0,345.0 585.0,345.0" fill="rgb(0,0,0)" opacity="1.0" shape-rendering="crispEdges" /><circle cx="610.0" cy="350.0" r="8.333333" fill="rgb(0,0,0)" opacity="1.0" /><polygon points="615.0,345.0 615.0,355.0 605.0,355.0 600.0,355.0 600.0,345.0 605.0,345.0" fill="rgb(0,0,0)" opacity="1.0" shape-rendering="crispEdges" /><polygon points="675.0,345.0 680.0,345.0 680.0,355.0 675.0,355.0 675.0,360.0 665.0,360.0 665.0,355.0 665.0,345.0" fill="rgb(0,0,0)" opacity="1.0" shape-rendering="crispEdges" /><polygon points="685.0,340.0 695.0,340.0 695.0,345.0 700.0,345.0 700.0,355.0 695.0,355.0 685.0,355.0 680.0,355.0 680.0,345.0 685.0,345.0" fill="rgb(0,0,0)" opacity="1.0" shape-rendering="crispEdges" /><polygon points="705.0,340.0 715.0,340.0 715.0,345.0 715.0,355.0 705.0,355.0 700.0,355.0 700.0,345.0 705.0,345.0" fill="rgb(0,0,0)" opacity="1.0" shape-rendering="crispEdges" /><polygon points="115.0,365.0 120.0,365.0 120.0,375.0 115.0,375.0 115.0,380.0 105.0,380.0 105.0,375.0 105.0,365.0" fill="rgb(0,0,0)" opacity="1.0" shape-rendering="crispEdges" /><polygon points="135.0,365.0 135.0,375.0 135.0,380.0 125.0,380.0 125.0,375.0 120.0,375.0 120.0,365.0 125.0,365.0" fill="rgb(0,0,0)" opacity="1.0" shape-rendering="crispEdges" /><polygon points="195.0,365.0 200.0,365.0 200.0,375.0 195.0,375.0 195.0,380.0 185.0,380.0 185.0,375.0 185.0,365.0" fill="rgb(0,0,0)" opacity="1.0" shape-rendering="crispEdges" /><polygon points="215.0,365.0 220.0,365.0 220.0,375.0 215.0,375.0 205.0,375.0 200.0,375.0 200.0,365.0 205.0,365.0" fill="rgb(0,0,0)" opacity="1.0" shape-rendering="crispEdges" /><circle cx="230.0" cy="370.0" r="8.333333" fill="rgb(0,0,0)" opacity="1.0" /><polygon points="235.0,365.0 235.0,375.0 225.0,375.0 220.0,375.0 220.0,365.0 225.0,365.0" fill="rgb(0,0,0)" opacity="1.0" shape-rendering="crispEdges" /><circle cx="310.0" cy="370.0" r="8.333333" fill="rgb(0,0,0)" opacity="1.0" /><polygon points="305.0,360.0 315.0,360.0 315.0,365.0 315.0,375.0 305.0,375.0 305.0,365.0" fill="rgb(0,0,0)" opacity="1.0" shape-rendering="crispEdges" /><polygon points="355.0,365.0 355.0,375.0 345.0,375.0 345.0,365.0" fill="rgb(0,0,0)" opacity="1.0" shape-rendering="crispEdges" /><polygon points="385.0,360.0 395.0,360.0 395.0,365.0 400.0,365.0 400.0,375.0 395.0,375.0 395.0,380.0 385.0,380.0 385.0,375.0 385.0,365.0" fill="rgb(0,0,0)" opacity="1.0" shape-rendering="crispEdges" /><polygon points="415.0,365.0 420.0,365.0 420.0,375.0 415.0,375.0 405.0,375.0 400.0,375.0 400.0,365.0 405.0,365.0" fill="rgb(0,0,0)" opacity="1.0" shape-rendering="crispEdges" /><polygon points="435.0,365.0 440.0,365.0 440.0,375.0 435.0,375.0 425.0,375.0 420.0,375.0 420.0,365.0 425.0,365.0" fill="rgb(0,0,0)" opacity="1.0" shape-rendering="crispEdges" /><polygon points="445.0,360.0 455.0,360.0 455.0,365.0 455.0,375.0 445.0,375.0 440.0,375.0 440.0,365.0 445.0,365.0" fill="rgb(0,0,0)" opacity="1.0" shape-rendering="crispEdges" /><circle cx="570.0" cy="370.0" r="8.333333" fill="rgb(0,0,0)" opacity="1.0" /><polygon points="565.0,360.0 575.0,360.0 575.0,365.0 575.0,375.0 565.0,375.0 565.0,365.0" fill="rgb(0,0,0)" opacity="1.0" shape-rendering="crispEdges" /><circle cx="650.0" cy="370.0" r="8.333333" fill="rgb(0,0,0)" opacity="1.0" /><polygon points="655.0,365.0 660.0,365.0 660.0,375.0 655.0,375.0 645.0,375.0 645.0,365.0" fill="rgb(0,0,0)" opacity="1.0" shape-rendering="crispEdges" /><polygon points="665.0,360.0 675.0,360.0 675.0,365.0 675.0,375.0 675.0,380.0 665.0,380.0 665.0,375.0 660.0,375.0 660.0,365.0 665.0,365.0" fill="rgb(0,0,0)" opacity="1.0" shape-rendering="crispEdges" /><polygon points="95.0,385.0 100.0,385.0 100.0,395.0 95.0,395.0 95.0,400.0 85.0,400.0 85.0,395.0 85.0,385.0" fill="rgb(0,0,0)" opacity="1.0" shape-rendering="crispEdges" /><polygon points="105.0,380.0 115.0,380.0 115.0,385.0 120.0,385.0 120.0,395.0 115.0,395.0 115.0,400.0 105.0,400.0 105.0,395.0 100.0,395.0 100.0,385.0 105.0,385.0" fill="rgb(0,0,0)" opacity="1.0" shape-rendering="crispEdges" /><polygon points="125.0,380.0 135.0,380.0 135.0,385.0 135.0,395.0 125.0,395.0 120.0,395.0 120.0,385.0 125.0,385.0" fill="rgb(0,0,0)" opacity="1.0" shape-rendering="crispEdges" /><circle cx="170.0" cy="390.0" r="8.333333" fill="rgb(0,0,0)" opacity="1.0" /><polygon points="175.0,385.0 180.0,385.0 180.0,395.0 175.0,395.0 165.0,395.0 165.0,385.0" fill="rgb(0,0,0)" opacity="1.0" shape-rendering="crispEdges" /><polygon points="185.0,380.0 195.0,380.0 195.0,385.0 195.0,395.0 195.0,400.0 185.0,400.0 185.0,395.0 180.0,395.0 180.0,385.0 185.0,385.0" fill="rgb(0,0,0)" opacity="1.0" shape-rendering="crispEdges" /><polygon points="275.0,385.0 275.0,395.0 265.0,395.0 265.0,385.0" fill="rgb(0,0,0)" opacity="1.0" shape-rendering="crispEdges" /><polygon points="375.0,385.0 380.0,385.0 380.0,395.0 375.0,395.0 375.0,400.0 365.0,400.0 365.0,395.0 365.0,385.0" fill="rgb(0,0,0)" opacity="1.0" shape-rendering="crispEdges" /><polygon points="385.0,380.0 395.0,380.0 395.0,385.0 395.0,395.0 395.0,400.0 385.0,400.0 385.0,395.0 380.0,395.0 380.0,385.0 385.0,385.0" fill="rgb(0,0,0)" opacity="1.0" shape-rendering="crispEdges" /><circle cx="610.0" cy="390.0" r="8.333333" fill="rgb(0,0,0)" opacity="1.0" /><polygon points="615.0,385.0 615.0,395.0 615.0,400.0 605.0,400.0 605.0,395.0 605.0,385.0" fill="rgb(0,0,0)" opacity="1.0" shape-rendering="crispEdges" /><polygon points="665.0,380.0 675.0,380.0 675.0,385.0 680.0,385.0 680.0,395.0 675.0,395.0 665.0,395.0 665.0,385.0" fill="rgb(0,0,0)" opacity="1.0" shape-rendering="crispEdges" /><polygon points="695.0,385.0 700.0,385.0 700.0,395.0 695.0,395.0 695.0,400.0 685.0,400.0 685.0,395.0 680.0,395.0 680.0,385.0 685.0,385.0" fill="rgb(0,0,0)" opacity="1.0" shape-rendering="crispEdges" /><polygon points="715.0,385.0 720.0,385.0 720.0,395.0 715.0,395.0 705.0,395.0 700.0,395.0 700.0,385.0 705.0,385.0" fill="rgb(0,0,0)" opacity="1.0" shape-rendering="crispEdges" /><circle cx="730.0" cy="390.0" r="8.333333" fill="rgb(0,0,0)" opacity="1.0" /><polygon points="735.0,385.0 735.0,395.0 725.0,395.0 720.0,395.0 720.0,385.0 725.0,385.0" fill="rgb(0,0,0)" opacity="1.0" shape-rendering="crispEdges" /><polygon points="85.0,400.0 95.0,400.0 95.0,405.0 100.0,405.0 100.0,415.0 95.0,415.0 95.0,420.0 85.0,420.0 85.0,415.0 85.0,405.0" fill="rgb(0,0,0)" opacity="1.0" shape-rendering="crispEdges" /><polygon points="105.0,400.0 115.0,400.0 115.0,405.0 115.0,415.0 115.0,420.0 105.0,420.0 105.0,415.0 100.0,415.0 100.0,405.0 105.0,405.0" fill="rgb(0,0,0)" opacity="1.0" shape-rendering="crispEdges" /><polygon points="155.0,405.0 155.0,415.0 145.0,415.0 145.0,405.0" fill="rgb(0,0,0)" opacity="1.0" shape-rendering="crispEdges" /><polygon points="185.0,400.0 195.0,400.0 195.0,405.0 200.0,405.0 200.0,415.0 195.0,415.0 185.0,415.0 185.0,405.0" fill="rgb(0,0,0)" opacity="1.0" shape-rendering="crispEdges" /><polygon points="215.0,405.0 220.0,405.0 220.0,415.0 215.0,415.0 205.0,415.0 200.0,415.0 200.0,405.0 205.0,405.0" fill="rgb(0,0,0)" opacity="1.0" shape-rendering="crispEdges" /><polygon points="235.0,405.0 240.0,405.0 240.0,415.0 235.0,415.0 235.0,420.0 225.0,420.0 225.0,415.0 220.0,415.0 220.0,405.0 225.0,405.0" fill="rgb(0,0,0)" opacity="1.0" shape-rendering="crispEdges" /><polygon points="255.0,405.0 255.0,415.0 255.0,420.0 245.0,420.0 245.0,415.0 240.0,415.0 240.0,405.0 245.0,405.0" fill="rgb(0,0,0)" opacity="1.0" shape-rendering="crispEdges" /><circle cx="310.0" cy="410.0" r="8.333333" fill="rgb(0,0,0)" opacity="1.0" /><polygon points="315.0,405.0 320.0,405.0 320.0,415.0 315.0,415.0 305.0,415.0 305.0,405.0" fill="rgb(0,0,0)" opacity="1.0" shape-rendering="crispEdges" /><circle cx="330.0" cy="410.0" r="8.333333" fill="rgb(0,0,0)" opacity="1.0" /><polygon points="335.0,405.0 335.0,415.0 325.0,415.0 320.0,415.0 320.0,405.0 325.0,405.0" fill="rgb(0,0,0)" opacity="1.0" shape-rendering="crispEdges" /><polygon points="365.0,400.0 375.0,400.0 375.0,405.0 380.0,405.0 380.0,415.0 375.0,415.0 375.0,420.0 365.0,420.0 365.0,415.0 365.0,405.0" fill="rgb(0,0,0)" opacity="1.0" shape-rendering="crispEdges" /><polygon points="385.0,400.0 395.0,400.0 395.0,405.0 400.0,405.0 400.0,415.0 395.0,415.0 395.0,420.0 385.0,420.0 385.0,415.0 380.0,415.0 380.0,405.0 385.0,405.0" fill="rgb(0,0,0)" opacity="1.0" shape-rendering="crispEdges" /><polygon points="415.0,405.0 420.0,405.0 420.0,415.0 415.0,415.0 415.0,420.0 405.0,420.0 405.0,415.0 400.0,415.0 400.0,405.0 405.0,405.0" fill="rgb(0,0,0)" opacity="1.0" shape-rendering="crispEdges" /><circle cx="430.0" cy="410.0" r="8.333333" fill="rgb(0,0,0)" opacity="1.0" /><polygon points="435.0,405.0 435.0,415.0 425.0,415.0 420.0,415.0 420.0,405.0 425.0,405.0" fill="rgb(0,0,0)" opacity="1.0" shape-rendering="crispEdges" /><circle cx="530.0" cy="410.0" r="8.333333" fill="rgb(0,0,0)" opacity="1.0" /><polygon points="535.0,405.0 535.0,415.0 535.0,420.0 525.0,420.0 525.0,415.0 525.0,405.0" fill="rgb(0,0,0)" opacity="1.0" shape-rendering="crispEdges" /><polygon points="595.0,405.0 600.0,405.0 600.0,415.0 595.0,415.0 595.0,420.0 585.0,420.0 585.0,415.0 585.0,405.0" fill="rgb(0,0,0)" opacity="1.0" shape-rendering="crispEdges" /><polygon points="605.0,400.0 615.0,400.0 615.0,405.0 615.0,415.0 615.0,420.0 605.0,420.0 605.0,415.0 600.0,415.0 600.0,405.0 605.0,405.0" fill="rgb(0,0,0)" opacity="1.0" shape-rendering="crispEdges" /><polygon points="655.0,405.0 655.0,415.0 645.0,415.0 645.0,405.0" fill="rgb(0,0,0)" opacity="1.0" shape-rendering="crispEdges" /><polygon points="685.0,400.0 695.0,400.0 695.0,405.0 695.0,415.0 695.0,420.0 685.0,420.0 685.0,415.0 685.0,405.0" fill="rgb(0,0,0)" opacity="1.0" shape-rendering="crispEdges" /><polygon points="85.0,420.0 95.0,420.0 95.0,425.0 100.0,425.0 100.0,435.0 95.0,435.0 85.0,435.0 85.0,425.0" fill="rgb(0,0,0)" opacity="1.0" shape-rendering="crispEdges" /><polygon points="105.0,420.0 115.0,420.0 115.0,425.0 120.0,425.0 120.0,435.0 115.0,435.0 105.0,435.0 100.0,435.0 100.0,425.0 105.0,425.0" fill="rgb(0,0,0)" opacity="1.0" shape-rendering="crispEdges" /><circle cx="130.0" cy="430.0" r="8.333333" fill="rgb(0,0,0)" opacity="1.0" /><polygon points="135.0,425.0 135.0,435.0 125.0,435.0 120.0,435.0 120.0,425.0 125.0,425.0" fill="rgb(0,0,0)" opacity="1.0" shape-rendering="crispEdges" /><polygon points="175.0,425.0 175.0,435.0 165.0,435.0 165.0,425.0" fill="rgb(0,0,0)" opacity="1.0" shape-rendering="crispEdges" /><polygon points="225.0,420.0 235.0,420.0 235.0,425.0 240.0,425.0 240.0,435.0 235.0,435.0 225.0,435.0 225.0,425.0" fill="rgb(0,0,0)" opacity="1.0" shape-rendering="crispEdges" /><polygon points="245.0,420.0 255.0,420.0 255.0,425.0 260.0,425.0 260.0,435.0 255.0,435.0 245.0,435.0 240.0,435.0 240.0,425.0 245.0,425.0" fill="rgb(0,0,0)" opacity="1.0" shape-rendering="crispEdges" /><polygon points="275.0,425.0 280.0,425.0 280.0,435.0 275.0,435.0 265.0,435.0 260.0,435.0 260.0,425.0 265.0,425.0" fill="rgb(0,0,0)" opacity="1.0" shape-rendering="crispEdges" /><circle cx="290.0" cy="430.0" r="8.333333" fill="rgb(0,0,0)" opacity="1.0" /><polygon points="295.0,425.0 295.0,435.0 285.0,435.0 280.0,435.0 280.0,425.0 285.0,425.0" fill="rgb(0,0,0)" opacity="1.0" shape-rendering="crispEdges" /><circle cx="350.0" cy="430.0" r="8.333333" fill="rgb(0,0,0)" opacity="1.0" /><polygon points="355.0,425.0 360.0,425.0 360.0,435.0 355.0,435.0 345.0,435.0 345.0,425.0" fill="rgb(0,0,0)" opacity="1.0" shape-rendering="crispEdges" /><polygon points="365.0,420.0 375.0,420.0 375.0,425.0 380.0,425.0 380.0,435.0 375.0,435.0 375.0,440.0 365.0,440.0 365.0,435.0 360.0,435.0 360.0,425.0 365.0,425.0" fill="rgb(0,0,0)" opacity="1.0" shape-rendering="crispEdges" /><polygon points="385.0,420.0 395.0,420.0 395.0,425.0 400.0,425.0 400.0,435.0 395.0,435.0 395.0,440.0 385.0,440.0 385.0,435.0 380.0,435.0 380.0,425.0 385.0,425.0" fill="rgb(0,0,0)" opacity="1.0" shape-rendering="crispEdges" /><polygon points="405.0,420.0 415.0,420.0 415.0,425.0 415.0,435.0 415.0,440.0 405.0,440.0 405.0,435.0 400.0,435.0 400.0,425.0 405.0,425.0" fill="rgb(0,0,0)" opacity="1.0" shape-rendering="crispEdges" /><circle cx="450.0" cy="430.0" r="8.333333" fill="rgb(0,0,0)" opacity="1.0" /><polygon points="455.0,425.0 455.0,435.0 455.0,440.0 445.0,440.0 445.0,435.0 445.0,425.0" fill="rgb(0,0,0)" opacity="1.0" shape-rendering="crispEdges" /><circle cx="510.0" cy="430.0" r="8.333333" fill="rgb(0,0,0)" opacity="1.0" /><polygon points="515.0,425.0 520.0,425.0 520.0,435.0 515.0,435.0 505.0,435.0 505.0,425.0" fill="rgb(0,0,0)" opacity="1.0" shape-rendering="crispEdges" /><polygon points="525.0,420.0 535.0,420.0 535.0,425.0 535.0,435.0 525.0,435.0 520.0,435.0 520.0,425.0 525.0,425.0" fill="rgb(0,0,0)" opacity="1.0" shape-rendering="crispEdges" /><polygon points="575.0,425.0 580.0,425.0 580.0,435.0 575.0,435.0 575.0,440.0 565.0,440.0 565.0,435.0 565.0,425.0" fill="rgb(0,0,0)" opacity="1.0" shape-rendering="crispEdges" /><polygon points="585.0,420.0 595.0,420.0 595.0,425.0 600.0,425.0 600.0,435.0 595.0,435.0 585.0,435.0 580.0,435.0 580.0,425.0 585.0,425.0" fill="rgb(0,0,0)" opacity="1.0" shape-rendering="crispEdges" /><polygon points="605.0,420.0 615.0,420.0 615.0,425.0 620.0,425.0 620.0,435.0 615.0,435.0 605.0,435.0 600.0,435.0 600.0,425.0 605.0,425.0" fill="rgb(0,0,0)" opacity="1.0" shape-rendering="crispEdges" /><circle cx="630.0" cy="430.0" r="8.333333" fill="rgb(0,0,0)" opacity="1.0" /><polygon points="635.0,425.0 635.0,435.0 625.0,435.0 620.0,435.0 620.0,425.0 625.0,425.0" fill="rgb(0,0,0)" opacity="1.0" shape-rendering="crispEdges" /><polygon points="675.0,425.0 680.0,425.0 680.0,435.0 675.0,435.0 675.0,440.0 665.0,440.0 665.0,435.0 665.0,425.0" fill="rgb(0,0,0)" opacity="1.0" shape-rendering="crispEdges" /><polygon points="685.0,420.0 695.0,420.0 695.0,425.0 700.0,425.0 700.0,435.0 695.0,435.0 685.0,435.0 680.0,435.0 680.0,425.0 685.0,425.0" fill="rgb(0,0,0)" opacity="1.0" shape-rendering="crispEdges" /><polygon points="715.0,425.0 715.0,435.0 715.0,440.0 705.0,440.0 705.0,435.0 700.0,435.0 700.0,425.0 705.0,425.0" fill="rgb(0,0,0)" opacity="1.0" shape-rendering="crispEdges" /><polygon points="215.0,445.0 215.0,455.0 205.0,455.0 205.0,445.0" fill="rgb(0,0,0)" opacity="1.0" shape-rendering="crispEdges" /><polygon points="365.0,440.0 375.0,440.0 375.0,445.0 380.0,445.0 380.0,455.0 375.0,455.0 375.0,460.0 365.0,460.0 365.0,455.0 365.0,445.0" fill="rgb(0,0,0)" opacity="1.0" shape-rendering="crispEdges" /><polygon points="385.0,440.0 395.0,440.0 395.0,445.0 400.0,445.0 400.0,455.0 395.0,455.0 385.0,455.0 380.0,455.0 380.0,445.0 385.0,445.0" fill="rgb(0,0,0)" opacity="1.0" shape-rendering="crispEdges" /><polygon points="405.0,440.0 415.0,440.0 415.0,445.0 415.0,455.0 405.0,455.0 400.0,455.0 400.0,445.0 405.0,445.0" fill="rgb(0,0,0)" opacity="1.0" shape-rendering="crispEdges" /><polygon points="445.0,440.0 455.0,440.0 455.0,445.0 460.0,445.0 460.0,455.0 455.0,455.0 445.0,455.0 445.0,445.0" fill="rgb(0,0,0)" opacity="1.0" shape-rendering="crispEdges" /><polygon points="475.0,445.0 480.0,445.0 480.0,455.0 475.0,455.0 475.0,460.0 465.0,460.0 465.0,455.0 460.0,455.0 460.0,445.0 465.0,445.0" fill="rgb(0,0,0)" opacity="1.0" shape-rendering="crispEdges" /><circle cx="490.0" cy="450.0" r="8.333333" fill="rgb(0,0,0)" opacity="1.0" /><polygon points="495.0,445.0 495.0,455.0 485.0,455.0 480.0,455.0 480.0,445.0 485.0,445.0" fill="rgb(0,0,0)" opacity="1.0" shape-rendering="crispEdges" /><circle cx="570.0" cy="450.0" r="8.333333" fill="rgb(0,0,0)" opacity="1.0" /><polygon points="565.0,440.0 575.0,440.0 575.0,445.0 575.0,455.0 565.0,455.0 565.0,445.0" fill="rgb(0,0,0)" opacity="1.0" shape-rendering="crispEdges" /><circle cx="650.0" cy="450.0" r="8.333333" fill="rgb(0,0,0)" opacity="1.0" /><polygon points="655.0,445.0 660.0,445.0 660.0,455.0 655.0,455.0 645.0,455.0 645.0,445.0" fill="rgb(0,0,0)" opacity="1.0" shape-rendering="crispEdges" /><polygon points="665.0,440.0 675.0,440.0 675.0,445.0 675.0,455.0 675.0,460.0 665.0,460.0 665.0,455.0 660.0,455.0 660.0,445.0 665.0,445.0" fill="rgb(0,0,0)" opacity="1.0" shape-rendering="crispEdges" /><circle cx="710.0" cy="450.0" r="8.333333" fill="rgb(0,0,0)" opacity="1.0" /><polygon points="705.0,440.0 715.0,440.0 715.0,445.0 715.0,455.0 705.0,455.0 705.0,445.0" fill="rgb(0,0,0)" opacity="1.0" shape-rendering="crispEdges" /><circle cx="90.0" cy="470.0" r="8.333333" fill="rgb(0,0,0)" opacity="1.0" /><polygon points="95.0,465.0 100.0,465.0 100.0,475.0 95.0,475.0 85.0,475.0 85.0,465.0" fill="rgb(0,0,0)" opacity="1.0" shape-rendering="crispEdges" /><polygon points="115.0,465.0 115.0,475.0 115.0,480.0 105.0,480.0 105.0,475.0 100.0,475.0 100.0,465.0 105.0,465.0" fill="rgb(0,0,0)" opacity="1.0" shape-rendering="crispEdges" /><polygon points="175.0,465.0 175.0,475.0 165.0,475.0 165.0,465.0" fill="rgb(0,0,0)" opacity="1.0" shape-rendering="crispEdges" /><polygon points="255.0,465.0 260.0,465.0 260.0,475.0 255.0,475.0 255.0,480.0 245.0,480.0 245.0,475.0 245.0,465.0" fill="rgb(0,0,0)" opacity="1.0" shape-rendering="crispEdges" /><circle cx="270.0" cy="470.0" r="8.333333" fill="rgb(0,0,0)" opacity="1.0" /><polygon points="275.0,465.0 275.0,475.0 265.0,475.0 260.0,475.0 260.0,465.0 265.0,465.0" fill="rgb(0,0,0)" opacity="1.0" shape-rendering="crispEdges" /><polygon points="315.0,465.0 315.0,475.0 305.0,475.0 305.0,465.0" fill="rgb(0,0,0)" opacity="1.0" shape-rendering="crispEdges" /><polygon points="365.0,460.0 375.0,460.0 375.0,465.0 375.0,475.0 375.0,480.0 365.0,480.0 365.0,475.0 365.0,465.0" fill="rgb(0,0,0)" opacity="1.0" shape-rendering="crispEdges" /><circle cx="470.0" cy="470.0" r="8.333333" fill="rgb(0,0,0)" opacity="1.0" /><polygon points="465.0,460.0 475.0,460.0 475.0,465.0 475.0,475.0 465.0,475.0 465.0,465.0" fill="rgb(0,0,0)" opacity="1.0" shape-rendering="crispEdges" /><circle cx="510.0" cy="470.0" r="8.333333" fill="rgb(0,0,0)" opacity="1.0" /><polygon points="515.0,465.0 515.0,475.0 515.0,480.0 505.0,480.0 505.0,475.0 505.0,465.0" fill="rgb(0,0,0)" opacity="1.0" shape-rendering="crispEdges" /><polygon points="555.0,465.0 555.0,475.0 545.0,475.0 545.0,465.0" fill="rgb(0,0,0)" opacity="1.0" shape-rendering="crispEdges" /><polygon points="615.0,465.0 615.0,475.0 605.0,475.0 605.0,465.0" fill="rgb(0,0,0)" opacity="1.0" shape-rendering="crispEdges" /><polygon points="665.0,460.0 675.0,460.0 675.0,465.0 680.0,465.0 680.0,475.0 675.0,475.0 665.0,475.0 665.0,465.0" fill="rgb(0,0,0)" opacity="1.0" shape-rendering="crispEdges" /><polygon points="695.0,465.0 695.0,475.0 695.0,480.0 685.0,480.0 685.0,475.0 680.0,475.0 680.0,465.0 685.0,465.0" fill="rgb(0,0,0)" opacity="1.0" shape-rendering="crispEdges" /><polygon points="735.0,465.0 735.0,475.0 725.0,475.0 725.0,465.0" fill="rgb(0,0,0)" opacity="1.0" shape-rendering="crispEdges" /><polygon points="105.0,480.0 115.0,480.0 115.0,485.0 120.0,485.0 120.0,495.0 115.0,495.0 115.0,500.0 105.0,500.0 105.0,495.0 105.0,485.0" fill="rgb(0,0,0)" opacity="1.0" shape-rendering="crispEdges" /><polygon points="135.0,485.0 140.0,485.0 140.0,495.0 135.0,495.0 125.0,495.0 120.0,495.0 120.0,485.0 125.0,485.0" fill="rgb(0,0,0)" opacity="1.0" shape-rendering="crispEdges" /><polygon points="155.0,485.0 155.0,495.0 155.0,500.0 145.0,500.0 145.0,495.0 140.0,495.0 140.0,485.0 145.0,485.0" fill="rgb(0,0,0)" opacity="1.0" shape-rendering="crispEdges" /><polygon points="215.0,485.0 215.0,495.0 205.0,495.0 205.0,485.0" fill="rgb(0,0,0)" opacity="1.0" shape-rendering="crispEdges" /><circle cx="250.0" cy="490.0" r="8.333333" fill="rgb(0,0,0)" opacity="1.0" /><polygon points="245.0,480.0 255.0,480.0 255.0,485.0 255.0,495.0 245.0,495.0 245.0,485.0" fill="rgb(0,0,0)" opacity="1.0" shape-rendering="crispEdges" /><polygon points="365.0,480.0 375.0,480.0 375.0,485.0 380.0,485.0 380.0,495.0 375.0,495.0 375.0,500.0 365.0,500.0 365.0,495.0 365.0,485.0" fill="rgb(0,0,0)" opacity="1.0" shape-rendering="crispEdges" /><polygon points="395.0,485.0 395.0,495.0 395.0,500.0 385.0,500.0 385.0,495.0 380.0,495.0 380.0,485.0 385.0,485.0" fill="rgb(0,0,0)" opacity="1.0" shape-rendering="crispEdges" /><polygon points="455.0,485.0 455.0,495.0 445.0,495.0 445.0,485.0" fill="rgb(0,0,0)" opacity="1.0" shape-rendering="crispEdges" /><polygon points="495.0,485.0 500.0,485.0 500.0,495.0 495.0,495.0 495.0,500.0 485.0,500.0 485.0,495.0 485.0,485.0" fill="rgb(0,0,0)" opacity="1.0" shape-rendering="crispEdges" /><polygon points="505.0,480.0 515.0,480.0 515.0,485.0 520.0,485.0 520.0,495.0 515.0,495.0 515.0,500.0 505.0,500.0 505.0,495.0 500.0,495.0 500.0,485.0 505.0,485.0" fill="rgb(0,0,0)" opacity="1.0" shape-rendering="crispEdges" /><polygon points="535.0,485.0 535.0,495.0 535.0,500.0 525.0,500.0 525.0,495.0 520.0,495.0 520.0,485.0 525.0,485.0" fill="rgb(0,0,0)" opacity="1.0" shape-rendering="crispEdges" /><polygon points="575.0,485.0 580.0,485.0 580.0,495.0 575.0,495.0 575.0,500.0 565.0,500.0 565.0,495.0 565.0,485.0" fill="rgb(0,0,0)" opacity="1.0" shape-rendering="crispEdges" /><polygon points="595.0,485.0 595.0,495.0 595.0,500.0 585.0,500.0 585.0,495.0 580.0,495.0 580.0,485.0 585.0,485.0" fill="rgb(0,0,0)" opacity="1.0" shape-rendering="crispEdges" /><polygon points="685.0,480.0 695.0,480.0 695.0,485.0 700.0,485.0 700.0,495.0 695.0,495.0 695.0,500.0 685.0,500.0 685.0,495.0 685.0,485.0" fill="rgb(0,0,0)" opacity="1.0" shape-rendering="crispEdges" /><circle cx="710.0" cy="490.0" r="8.333333" fill="rgb(0,0,0)" opacity="1.0" /><polygon points="715.0,485.0 715.0,495.0 705.0,495.0 700.0,495.0 700.0,485.0 705.0,485.0" fill="rgb(0,0,0)" opacity="1.0" shape-rendering="crispEdges" /><polygon points="95.0,505.0 100.0,505.0 100.0,515.0 95.0,515.0 95.0,520.0 85.0,520.0 85.0,515.0 85.0,505.0" fill="rgb(0,0,0)" opacity="1.0" shape-rendering="crispEdges" /><polygon points="105.0,500.0 115.0,500.0 115.0,505.0 115.0,515.0 105.0,515.0 100.0,515.0 100.0,505.0 105.0,505.0" fill="rgb(0,0,0)" opacity="1.0" shape-rendering="crispEdges" /><polygon points="145.0,500.0 155.0,500.0 155.0,505.0 160.0,505.0 160.0,515.0 155.0,515.0 145.0,515.0 145.0,505.0" fill="rgb(0,0,0)" opacity="1.0" shape-rendering="crispEdges" /><polygon points="175.0,505.0 175.0,515.0 175.0,520.0 165.0,520.0 165.0,515.0 160.0,515.0 160.0,505.0 165.0,505.0" fill="rgb(0,0,0)" opacity="1.0" shape-rendering="crispEdges" /><circle cx="230.0" cy="510.0" r="8.333333" fill="rgb(0,0,0)" opacity="1.0" /><polygon points="235.0,505.0 235.0,515.0 235.0,520.0 225.0,520.0 225.0,515.0 225.0,505.0" fill="rgb(0,0,0)" opacity="1.0" shape-rendering="crispEdges" /><circle cx="270.0" cy="510.0" r="8.333333" fill="rgb(0,0,0)" opacity="1.0" /><polygon points="275.0,505.0 280.0,505.0 280.0,515.0 275.0,515.0 265.0,515.0 265.0,505.0" fill="rgb(0,0,0)" opacity="1.0" shape-rendering="crispEdges" /><polygon points="295.0,505.0 300.0,505.0 300.0,515.0 295.0,515.0 285.0,515.0 280.0,515.0 280.0,505.0 285.0,505.0" fill="rgb(0,0,0)" opacity="1.0" shape-rendering="crispEdges" /><polygon points="315.0,505.0 320.0,505.0 320.0,515.0 315.0,515.0 315.0,520.0 305.0,520.0 305.0,515.0 300.0,515.0 300.0,505.0 305.0,505.0" fill="rgb(0,0,0)" opacity="1.0" shape-rendering="crispEdges" /><polygon points="335.0,505.0 340.0,505.0 340.0,515.0 335.0,515.0 325.0,515.0 320.0,515.0 320.0,505.0 325.0,505.0" fill="rgb(0,0,0)" opacity="1.0" shape-rendering="crispEdges" /><polygon points="355.0,505.0 360.0,505.0 360.0,515.0 355.0,515.0 355.0,520.0 345.0,520.0 345.0,515.0 340.0,515.0 340.0,505.0 345.0,505.0" fill="rgb(0,0,0)" opacity="1.0" shape-rendering="crispEdges" /><polygon points="365.0,500.0 375.0,500.0 375.0,505.0 380.0,505.0 380.0,515.0 375.0,515.0 375.0,520.0 365.0,520.0 365.0,515.0 360.0,515.0 360.0,505.0 365.0,505.0" fill="rgb(0,0,0)" opacity="1.0" shape-rendering="crispEdges" /><polygon points="385.0,500.0 395.0,500.0 395.0,505.0 400.0,505.0 400.0,515.0 395.0,515.0 385.0,515.0 380.0,515.0 380.0,505.0 385.0,505.0" fill="rgb(0,0,0)" opacity="1.0" shape-rendering="crispEdges" /><circle cx="410.0" cy="510.0" r="8.333333" fill="rgb(0,0,0)" opacity="1.0" /><polygon points="415.0,505.0 415.0,515.0 405.0,515.0 400.0,515.0 400.0,505.0 405.0,505.0" fill="rgb(0,0,0)" opacity="1.0" shape-rendering="crispEdges" /><polygon points="475.0,505.0 480.0,505.0 480.0,515.0 475.0,515.0 475.0,520.0 465.0,520.0 465.0,515.0 465.0,505.0" fill="rgb(0,0,0)" opacity="1.0" shape-rendering="crispEdges" /><polygon points="485.0,500.0 495.0,500.0 495.0,505.0 500.0,505.0 500.0,515.0 495.0,515.0 495.0,520.0 485.0,520.0 485.0,515.0 480.0,515.0 480.0,505.0 485.0,505.0" fill="rgb(0,0,0)" opacity="1.0" shape-rendering="crispEdges" /><polygon points="505.0,500.0 515.0,500.0 515.0,505.0 520.0,505.0 520.0,515.0 515.0,515.0 505.0,515.0 500.0,515.0 500.0,505.0 505.0,505.0" fill="rgb(0,0,0)" opacity="1.0" shape-rendering="crispEdges" /><polygon points="525.0,500.0 535.0,500.0 535.0,505.0 535.0,515.0 525.0,515.0 520.0,515.0 520.0,505.0 525.0,505.0" fill="rgb(0,0,0)" opacity="1.0" shape-rendering="crispEdges" /><polygon points="565.0,500.0 575.0,500.0 575.0,505.0 580.0,505.0 580.0,515.0 575.0,515.0 565.0,515.0 565.0,505.0" fill="rgb(0,0,0)" opacity="1.0" shape-rendering="crispEdges" /><polygon points="585.0,500.0 595.0,500.0 595.0,505.0 595.0,515.0 585.0,515.0 580.0,515.0 580.0,505.0 585.0,505.0" fill="rgb(0,0,0)" opacity="1.0" shape-rendering="crispEdges" /><circle cx="690.0" cy="510.0" r="8.333333" fill="rgb(0,0,0)" opacity="1.0" /><polygon points="685.0,500.0 695.0,500.0 695.0,505.0 695.0,515.0 685.0,515.0 685.0,505.0" fill="rgb(0,0,0)" opacity="1.0" shape-rendering="crispEdges" /><polygon points="85.0,520.0 95.0,520.0 95.0,525.0 95.0,535.0 95.0,540.0 85.0,540.0 85.0,535.0 85.0,525.0" fill="rgb(0,0,0)" opacity="1.0" shape-rendering="crispEdges" /><polygon points="135.0,525.0 135.0,535.0 125.0,535.0 125.0,525.0" fill="rgb(0,0,0)" opacity="1.0" shape-rendering="crispEdges" /><circle cx="170.0" cy="530.0" r="8.333333" fill="rgb(0,0,0)" opacity="1.0" /><polygon points="165.0,520.0 175.0,520.0 175.0,525.0 175.0,535.0 165.0,535.0 165.0,525.0" fill="rgb(0,0,0)" opacity="1.0" shape-rendering="crispEdges" /><circle cx="210.0" cy="530.0" r="8.333333" fill="rgb(0,0,0)" opacity="1.0" /><polygon points="215.0,525.0 220.0,525.0 220.0,535.0 215.0,535.0 205.0,535.0 205.0,525.0" fill="rgb(0,0,0)" opacity="1.0" shape-rendering="crispEdges" /><polygon points="225.0,520.0 235.0,520.0 235.0,525.0 240.0,525.0 240.0,535.0 235.0,535.0 225.0,535.0 220.0,535.0 220.0,525.0 225.0,525.0" fill="rgb(0,0,0)" opacity="1.0" shape-rendering="crispEdges" /><polygon points="255.0,525.0 255.0,535.0 255.0,540.0 245.0,540.0 245.0,535.0 240.0,535.0 240.0,525.0 245.0,525.0" fill="rgb(0,0,0)" opacity="1.0" shape-rendering="crispEdges" /><circle cx="310.0" cy="530.0" r="8.333333" fill="rgb(0,0,0)" opacity="1.0" /><polygon points="305.0,520.0 315.0,520.0 315.0,525.0 315.0,535.0 305.0,535.0 305.0,525.0" fill="rgb(0,0,0)" opacity="1.0" shape-rendering="crispEdges" /><polygon points="345.0,520.0 355.0,520.0 355.0,525.0 360.0,525.0 360.0,535.0 355.0,535.0 355.0,540.0 345.0,540.0 345.0,535.0 345.0,525.0" fill="rgb(0,0,0)" opacity="1.0" shape-rendering="crispEdges" /><polygon points="365.0,520.0 375.0,520.0 375.0,525.0 375.0,535.0 365.0,535.0 360.0,535.0 360.0,525.0 365.0,525.0" fill="rgb(0,0,0)" opacity="1.0" shape-rendering="crispEdges" /><circle cx="430.0" cy="530.0" r="8.333333" fill="rgb(0,0,0)" opacity="1.0" /><polygon points="435.0,525.0 440.0,525.0 440.0,535.0 435.0,535.0 425.0,535.0 425.0,525.0" fill="rgb(0,0,0)" opacity="1.0" shape-rendering="crispEdges" /><polygon points="455.0,525.0 460.0,525.0 460.0,535.0 455.0,535.0 445.0,535.0 440.0,535.0 440.0,525.0 445.0,525.0" fill="rgb(0,0,0)" opacity="1.0" shape-rendering="crispEdges" /><polygon points="465.0,520.0 475.0,520.0 475.0,525.0 480.0,525.0 480.0,535.0 475.0,535.0 475.0,540.0 465.0,540.0 465.0,535.0 460.0,535.0 460.0,525.0 465.0,525.0" fill="rgb(0,0,0)" opacity="1.0" shape-rendering="crispEdges" /><polygon points="485.0,520.0 495.0,520.0 495.0,525.0 495.0,535.0 485.0,535.0 480.0,535.0 480.0,525.0 485.0,525.0" fill="rgb(0,0,0)" opacity="1.0" shape-rendering="crispEdges" /><circle cx="630.0" cy="530.0" r="8.333333" fill="rgb(0,0,0)" opacity="1.0" /><polygon points="635.0,525.0 640.0,525.0 640.0,535.0 635.0,535.0 625.0,535.0 625.0,525.0" fill="rgb(0,0,0)" opacity="1.0" shape-rendering="crispEdges" /><polygon points="655.0,525.0 660.0,525.0 660.0,535.0 655.0,535.0 645.0,535.0 640.0,535.0 640.0,525.0 645.0,525.0" fill="rgb(0,0,0)" opacity="1.0" shape-rendering="crispEdges" /><polygon points="675.0,525.0 675.0,535.0 675.0,540.0 665.0,540.0 665.0,535.0 660.0,535.0 660.0,525.0 665.0,525.0" fill="rgb(0,0,0)" opacity="1.0" shape-rendering="crispEdges" /><polygon points="715.0,525.0 715.0,535.0 705.0,535.0 705.0,525.0" fill="rgb(0,0,0)" opacity="1.0" shape-rendering="crispEdges" /><polygon points="85.0,540.0 95.0,540.0 95.0,545.0 95.0,555.0 95.0,560.0 85.0,560.0 85.0,555.0 85.0,545.0" fill="rgb(0,0,0)" opacity="1.0" shape-rendering="crispEdges" /><polygon points="195.0,545.0 195.0,555.0 185.0,555.0 185.0,545.0" fill="rgb(0,0,0)" opacity="1.0" shape-rendering="crispEdges" /><polygon points="245.0,540.0 255.0,540.0 255.0,545.0 255.0,555.0 255.0,560.0 245.0,560.0 245.0,555.0 245.0,545.0" fill="rgb(0,0,0)" opacity="1.0" shape-rendering="crispEdges" /><polygon points="335.0,545.0 340.0,545.0 340.0,555.0 335.0,555.0 335.0,560.0 325.0,560.0 325.0,555.0 325.0,545.0" fill="rgb(0,0,0)" opacity="1.0" shape-rendering="crispEdges" /><polygon points="345.0,540.0 355.0,540.0 355.0,545.0 355.0,555.0 345.0,555.0 340.0,555.0 340.0,545.0 345.0,545.0" fill="rgb(0,0,0)" opacity="1.0" shape-rendering="crispEdges" /><polygon points="415.0,545.0 415.0,555.0 405.0,555.0 405.0,545.0" fill="rgb(0,0,0)" opacity="1.0" shape-rendering="crispEdges" /><circle cx="470.0" cy="550.0" r="8.333333" fill="rgb(0,0,0)" opacity="1.0" /><polygon points="465.0,540.0 475.0,540.0 475.0,545.0 475.0,555.0 465.0,555.0 465.0,545.0" fill="rgb(0,0,0)" opacity="1.0" shape-rendering="crispEdges" /><polygon points="515.0,545.0 520.0,545.0 520.0,555.0 515.0,555.0 515.0,560.0 505.0,560.0 505.0,555.0 505.0,545.0" fill="rgb(0,0,0)" opacity="1.0" shape-rendering="crispEdges" /><polygon points="535.0,545.0 540.0,545.0 540.0,555.0 535.0,555.0 535.0,560.0 525.0,560.0 525.0,555.0 520.0,555.0 520.0,545.0 525.0,545.0" fill="rgb(0,0,0)" opacity="1.0" shape-rendering="crispEdges" /><polygon points="555.0,545.0 560.0,545.0 560.0,555.0 555.0,555.0 545.0,555.0 540.0,555.0 540.0,545.0 545.0,545.0" fill="rgb(0,0,0)" opacity="1.0" shape-rendering="crispEdges" /><polygon points="575.0,545.0 575.0,555.0 575.0,560.0 565.0,560.0 565.0,555.0 560.0,555.0 560.0,545.0 565.0,545.0" fill="rgb(0,0,0)" opacity="1.0" shape-rendering="crispEdges" /><circle cx="610.0" cy="550.0" r="8.333333" fill="rgb(0,0,0)" opacity="1.0" /><polygon points="615.0,545.0 615.0,555.0 615.0,560.0 605.0,560.0 605.0,555.0 605.0,545.0" fill="rgb(0,0,0)" opacity="1.0" shape-rendering="crispEdges" /><polygon points="665.0,540.0 675.0,540.0 675.0,545.0 675.0,555.0 675.0,560.0 665.0,560.0 665.0,555.0 665.0,545.0" fill="rgb(0,0,0)" opacity="1.0" shape-rendering="crispEdges" /><circle cx="730.0" cy="550.0" r="8.333333" fill="rgb(0,0,0)" opacity="1.0" /><polygon points="735.0,545.0 735.0,555.0 735.0,560.0 725.0,560.0 725.0,555.0 725.0,545.0" fill="rgb(0,0,0)" opacity="1.0" shape-rendering="crispEdges" /><circle cx="90.0" cy="570.0" r="8.333333" fill="rgb(0,0,0)" opacity="1.0" /><polygon points="85.0,560.0 95.0,560.0 95.0,565.0 95.0,575.0 85.0,575.0 85.0,565.0" fill="rgb(0,0,0)" opacity="1.0" shape-rendering="crispEdges" /><circle cx="130.0" cy="570.0" r="8.333333" fill="rgb(0,0,0)" opacity="1.0" /><polygon points="135.0,565.0 140.0,565.0 140.0,575.0 135.0,575.0 125.0,575.0 125.0,565.0" fill="rgb(0,0,0)" opacity="1.0" shape-rendering="crispEdges" /><circle cx="150.0" cy="570.0" r="8.333333" fill="rgb(0,0,0)" opacity="1.0" /><polygon points="155.0,565.0 155.0,575.0 145.0,575.0 140.0,575.0 140.0,565.0 145.0,565.0" fill="rgb(0,0,0)" opacity="1.0" shape-rendering="crispEdges" /><circle cx="210.0" cy="570.0" r="8.333333" fill="rgb(0,0,0)" opacity="1.0" /><polygon points="215.0,565.0 220.0,565.0 220.0,575.0 215.0,575.0 205.0,575.0 205.0,565.0" fill="rgb(0,0,0)" opacity="1.0" shape-rendering="crispEdges" /><polygon points="235.0,565.0 240.0,565.0 240.0,575.0 235.0,575.0 225.0,575.0 220.0,575.0 220.0,565.0 225.0,565.0" fill="rgb(0,0,0)" opacity="1.0" shape-rendering="crispEdges" /><polygon points="245.0,560.0 255.0,560.0 255.0,565.0 255.0,575.0 255.0,580.0 245.0,580.0 245.0,575.0 240.0,575.0 240.0,565.0 245.0,565.0" fill="rgb(0,0,0)" opacity="1.0" shape-rendering="crispEdges" /><circle cx="310.0" cy="570.0" r="8.333333" fill="rgb(0,0,0)" opacity="1.0" /><polygon points="315.0,565.0 320.0,565.0 320.0,575.0 315.0,575.0 305.0,575.0 305.0,565.0" fill="rgb(0,0,0)" opacity="1.0" shape-rendering="crispEdges" /><polygon points="325.0,560.0 335.0,560.0 335.0,565.0 335.0,575.0 325.0,575.0 320.0,575.0 320.0,565.0 325.0,565.0" fill="rgb(0,0,0)" opacity="1.0" shape-rendering="crispEdges" /><circle cx="430.0" cy="570.0" r="8.333333" fill="rgb(0,0,0)" opacity="1.0" /><polygon points="435.0,565.0 435.0,575.0 435.0,580.0 425.0,580.0 425.0,575.0 425.0,565.0" fill="rgb(0,0,0)" opacity="1.0" shape-rendering="crispEdges" /><polygon points="505.0,560.0 515.0,560.0 515.0,565.0 520.0,565.0 520.0,575.0 515.0,575.0 515.0,580.0 505.0,580.0 505.0,575.0 505.0,565.0" fill="rgb(0,0,0)" opacity="1.0" shape-rendering="crispEdges" /><polygon points="525.0,560.0 535.0,560.0 535.0,565.0 535.0,575.0 535.0,580.0 525.0,580.0 525.0,575.0 520.0,575.0 520.0,565.0 525.0,565.0" fill="rgb(0,0,0)" opacity="1.0" shape-rendering="crispEdges" /><polygon points="565.0,560.0 575.0,560.0 575.0,565.0 580.0,565.0 580.0,575.0 575.0,575.0 575.0,580.0 565.0,580.0 565.0,575.0 565.0,565.0" fill="rgb(0,0,0)" opacity="1.0" shape-rendering="crispEdges" /><polygon points="595.0,565.0 600.0,565.0 600.0,575.0 595.0,575.0 585.0,575.0 580.0,575.0 580.0,565.0 585.0,565.0" fill="rgb(0,0,0)" opacity="1.0" shape-rendering="crispEdges" /><polygon points="605.0,560.0 615.0,560.0 615.0,565.0 620.0,565.0 620.0,575.0 615.0,575.0 605.0,575.0 600.0,575.0 600.0,565.0 605.0,565.0" fill="rgb(0,0,0)" opacity="1.0" shape-rendering="crispEdges" /><polygon points="635.0,565.0 640.0,565.0 640.0,575.0 635.0,575.0 625.0,575.0 620.0,575.0 620.0,565.0 625.0,565.0" fill="rgb(0,0,0)" opacity="1.0" shape-rendering="crispEdges" /><polygon points="655.0,565.0 660.0,565.0 660.0,575.0 655.0,575.0 655.0,580.0 645.0,580.0 645.0,575.0 640.0,575.0 640.0,565.0 645.0,565.0" fill="rgb(0,0,0)" opacity="1.0" shape-rendering="crispEdges" /><polygon points="665.0,560.0 675.0,560.0 675.0,565.0 680.0,565.0 680.0,575.0 675.0,575.0 675.0,580.0 665.0,580.0 665.0,575.0 660.0,575.0 660.0,565.0 665.0,565.0" fill="rgb(0,0,0)" opacity="1.0" shape-rendering="crispEdges" /><polygon points="695.0,565.0 695.0,575.0 695.0,580.0 685.0,580.0 685.0,575.0 680.0,575.0 680.0,565.0 685.0,565.0" fill="rgb(0,0,0)" opacity="1.0" shape-rendering="crispEdges" /><circle cx="730.0" cy="570.0" r="8.333333" fill="rgb(0,0,0)" opacity="1.0" /><polygon points="725.0,560.0 735.0,560.0 735.0,565.0 735.0,575.0 725.0,575.0 725.0,565.0" fill="rgb(0,0,0)" opacity="1.0" shape-rendering="crispEdges" /><polygon points="245.0,580.0 255.0,580.0 255.0,585.0 260.0,585.0 260.0,595.0 255.0,595.0 245.0,595.0 245.0,585.0" fill="rgb(0,0,0)" opacity="1.0" shape-rendering="crispEdges" /><polygon points="275.0,585.0 280.0,585.0 280.0,595.0 275.0,595.0 265.0,595.0 260.0,595.0 260.0,585.0 265.0,585.0" fill="rgb(0,0,0)" opacity="1.0" shape-rendering="crispEdges" /><circle cx="290.0" cy="590.0" r="8.333333" fill="rgb(0,0,0)" opacity="1.0" /><polygon points="295.0,585.0 295.0,595.0 285.0,595.0 280.0,595.0 280.0,585.0 285.0,585.0" fill="rgb(0,0,0)" opacity="1.0" shape-rendering="crispEdges" /><circle cx="370.0" cy="590.0" r="8.333333" fill="rgb(0,0,0)" opacity="1.0" /><polygon points="375.0,585.0 380.0,585.0 380.0,595.0 375.0,595.0 365.0,595.0 365.0,585.0" fill="rgb(0,0,0)" opacity="1.0" shape-rendering="crispEdges" /><circle cx="390.0" cy="590.0" r="8.333333" fill="rgb(0,0,0)" opacity="1.0" /><polygon points="395.0,585.0 395.0,595.0 385.0,595.0 380.0,595.0 380.0,585.0 385.0,585.0" fill="rgb(0,0,0)" opacity="1.0" shape-rendering="crispEdges" /><polygon points="425.0,580.0 435.0,580.0 435.0,585.0 440.0,585.0 440.0,595.0 435.0,595.0 435.0,600.0 425.0,600.0 425.0,595.0 425.0,585.0" fill="rgb(0,0,0)" opacity="1.0" shape-rendering="crispEdges" /><circle cx="450.0" cy="590.0" r="8.333333" fill="rgb(0,0,0)" opacity="1.0" /><polygon points="455.0,585.0 455.0,595.0 445.0,595.0 440.0,595.0 440.0,585.0 445.0,585.0" fill="rgb(0,0,0)" opacity="1.0" shape-rendering="crispEdges" /><polygon points="505.0,580.0 515.0,580.0 515.0,585.0 520.0,585.0 520.0,595.0 515.0,595.0 505.0,595.0 505.0,585.0" fill="rgb(0,0,0)" opacity="1.0" shape-rendering="crispEdges" /><polygon points="525.0,580.0 535.0,580.0 535.0,585.0 540.0,585.0 540.0,595.0 535.0,595.0 525.0,595.0 520.0,595.0 520.0,585.0 525.0,585.0" fill="rgb(0,0,0)" opacity="1.0" shape-rendering="crispEdges" /><polygon points="555.0,585.0 560.0,585.0 560.0,595.0 555.0,595.0 555.0,600.0 545.0,600.0 545.0,595.0 540.0,595.0 540.0,585.0 545.0,585.0" fill="rgb(0,0,0)" opacity="1.0" shape-rendering="crispEdges" /><polygon points="565.0,580.0 575.0,580.0 575.0,585.0 575.0,595.0 575.0,600.0 565.0,600.0 565.0,595.0 560.0,595.0 560.0,585.0 565.0,585.0" fill="rgb(0,0,0)" opacity="1.0" shape-rendering="crispEdges" /><polygon points="645.0,580.0 655.0,580.0 655.0,585.0 660.0,585.0 660.0,595.0 655.0,595.0 655.0,600.0 645.0,600.0 645.0,595.0 645.0,585.0" fill="rgb(0,0,0)" opacity="1.0" shape-rendering="crispEdges" /><polygon points="665.0,580.0 675.0,580.0 675.0,585.0 680.0,585.0 680.0,595.0 675.0,595.0 675.0,600.0 665.0,600.0 665.0,595.0 660.0,595.0 660.0,585.0 665.0,585.0" fill="rgb(0,0,0)" opacity="1.0" shape-rendering="crispEdges" /><polygon points="685.0,580.0 695.0,580.0 695.0,585.0 695.0,595.0 685.0,595.0 680.0,595.0 680.0,585.0 685.0,585.0" fill="rgb(0,0,0)" opacity="1.0" shape-rendering="crispEdges" /><circle cx="310.0" cy="610.0" r="8.333333" fill="rgb(0,0,0)" opacity="1.0" /><polygon points="315.0,605.0 320.0,605.0 320.0,615.0 315.0,615.0 305.0,615.0 305.0,605.0" fill="rgb(0,0,0)" opacity="1.0" shape-rendering="crispEdges" /><polygon points="335.0,605.0 340.0,605.0 340.0,615.0 335.0,615.0 325.0,615.0 320.0,615.0 320.0,605.0 325.0,605.0" fill="rgb(0,0,0)" opacity="1.0" shape-rendering="crispEdges" /><polygon points="355.0,605.0 355.0,615.0 355.0,620.0 345.0,620.0 345.0,615.0 340.0,615.0 340.0,605.0 345.0,605.0" fill="rgb(0,0,0)" opacity="1.0" shape-rendering="crispEdges" /><circle cx="410.0" cy="610.0" r="8.333333" fill="rgb(0,0,0)" opacity="1.0" /><polygon points="415.0,605.0 420.0,605.0 420.0,615.0 415.0,615.0 405.0,615.0 405.0,605.0" fill="rgb(0,0,0)" opacity="1.0" shape-rendering="crispEdges" /><polygon points="425.0,600.0 435.0,600.0 435.0,605.0 435.0,615.0 435.0,620.0 425.0,620.0 425.0,615.0 420.0,615.0 420.0,605.0 425.0,605.0" fill="rgb(0,0,0)" opacity="1.0" shape-rendering="crispEdges" /><polygon points="495.0,605.0 495.0,615.0 485.0,615.0 485.0,605.0" fill="rgb(0,0,0)" opacity="1.0" shape-rendering="crispEdges" /><polygon points="545.0,600.0 555.0,600.0 555.0,605.0 560.0,605.0 560.0,615.0 555.0,615.0 555.0,620.0 545.0,620.0 545.0,615.0 545.0,605.0" fill="rgb(0,0,0)" opacity="1.0" shape-rendering="crispEdges" /><polygon points="565.0,600.0 575.0,600.0 575.0,605.0 575.0,615.0 575.0,620.0 565.0,620.0 565.0,615.0 560.0,615.0 560.0,605.0 565.0,605.0" fill="rgb(0,0,0)" opacity="1.0" shape-rendering="crispEdges" /><polygon points="615.0,605.0 615.0,615.0 605.0,615.0 605.0,605.0" fill="rgb(0,0,0)" opacity="1.0" shape-rendering="crispEdges" /><polygon points="645.0,600.0 655.0,600.0 655.0,605.0 660.0,605.0 660.0,615.0 655.0,615.0 655.0,620.0 645.0,620.0 645.0,615.0 645.0,605.0" fill="rgb(0,0,0)" opacity="1.0" shape-rendering="crispEdges" /><polygon points="665.0,600.0 675.0,600.0 675.0,605.0 675.0,615.0 675.0,620.0 665.0,620.0 665.0,615.0 660.0,615.0 660.0,605.0 665.0,605.0" fill="rgb(0,0,0)" opacity="1.0" shape-rendering="crispEdges" /><circle cx="710.0" cy="610.0" r="8.333333" fill="rgb(0,0,0)" opacity="1.0" /><polygon points="715.0,605.0 715.0,615.0 715.0,620.0 705.0,620.0 705.0,615.0 705.0,605.0" fill="rgb(0,0,0)" opacity="1.0" shape-rendering="crispEdges" /><polygon points="255.0,625.0 260.0,625.0 260.0,635.0 255.0,635.0 255.0,640.0 245.0,640.0 245.0,635.0 245.0,625.0" fill="rgb(0,0,0)" opacity="1.0" shape-rendering="crispEdges" /><polygon points="275.0,625.0 280.0,625.0 280.0,635.0 275.0,635.0 265.0,635.0 260.0,635.0 260.0,625.0 265.0,625.0" fill="rgb(0,0,0)" opacity="1.0" shape-rendering="crispEdges" /><circle cx="290.0" cy="630.0" r="8.333333" fill="rgb(0,0,0)" opacity="1.0" /><polygon points="295.0,625.0 295.0,635.0 285.0,635.0 280.0,635.0 280.0,625.0 285.0,625.0" fill="rgb(0,0,0)" opacity="1.0" shape-rendering="crispEdges" /><circle cx="350.0" cy="630.0" r="8.333333" fill="rgb(0,0,0)" opacity="1.0" /><polygon points="345.0,620.0 355.0,620.0 355.0,625.0 355.0,635.0 345.0,635.0 345.0,625.0" fill="rgb(0,0,0)" opacity="1.0" shape-rendering="crispEdges" /><polygon points="425.0,620.0 435.0,620.0 435.0,625.0 440.0,625.0 440.0,635.0 435.0,635.0 425.0,635.0 425.0,625.0" fill="rgb(0,0,0)" opacity="1.0" shape-rendering="crispEdges" /><polygon points="455.0,625.0 460.0,625.0 460.0,635.0 455.0,635.0 445.0,635.0 440.0,635.0 440.0,625.0 445.0,625.0" fill="rgb(0,0,0)" opacity="1.0" shape-rendering="crispEdges" /><circle cx="470.0" cy="630.0" r="8.333333" fill="rgb(0,0,0)" opacity="1.0" /><polygon points="475.0,625.0 475.0,635.0 465.0,635.0 460.0,635.0 460.0,625.0 465.0,625.0" fill="rgb(0,0,0)" opacity="1.0" shape-rendering="crispEdges" /><circle cx="510.0" cy="630.0" r="8.333333" fill="rgb(0,0,0)" opacity="1.0" /><polygon points="515.0,625.0 520.0,625.0 520.0,635.0 515.0,635.0 505.0,635.0 505.0,625.0" fill="rgb(0,0,0)" opacity="1.0" shape-rendering="crispEdges" /><polygon points="535.0,625.0 540.0,625.0 540.0,635.0 535.0,635.0 525.0,635.0 520.0,635.0 520.0,625.0 525.0,625.0" fill="rgb(0,0,0)" opacity="1.0" shape-rendering="crispEdges" /><polygon points="545.0,620.0 555.0,620.0 555.0,625.0 560.0,625.0 560.0,635.0 555.0,635.0 545.0,635.0 540.0,635.0 540.0,625.0 545.0,625.0" fill="rgb(0,0,0)" opacity="1.0" shape-rendering="crispEdges" /><polygon points="565.0,620.0 575.0,620.0 575.0,625.0 575.0,635.0 575.0,640.0 565.0,640.0 565.0,635.0 560.0,635.0 560.0,625.0 565.0,625.0" fill="rgb(0,0,0)" opacity="1.0" shape-rendering="crispEdges" /><polygon points="645.0,620.0 655.0,620.0 655.0,625.0 660.0,625.0 660.0,635.0 655.0,635.0 655.0,640.0 645.0,640.0 645.0,635.0 645.0,625.0" fill="rgb(0,0,0)" opacity="1.0" shape-rendering="crispEdges" /><polygon points="665.0,620.0 675.0,620.0 675.0,625.0 680.0,625.0 680.0,635.0 675.0,635.0 665.0,635.0 660.0,635.0 660.0,625.0 665.0,625.0" fill="rgb(0,0,0)" opacity="1.0" shape-rendering="crispEdges" /><polygon points="695.0,625.0 700.0,625.0 700.0,635.0 695.0,635.0 695.0,640.0 685.0,640.0 685.0,635.0 680.0,635.0 680.0,625.0 685.0,625.0" fill="rgb(0,0,0)" opacity="1.0" shape-rendering="crispEdges" /><polygon points="705.0,620.0 715.0,620.0 715.0,625.0 720.0,625.0 720.0,635.0 715.0,635.0 715.0,640.0 705.0,640.0 705.0,635.0 700.0,635.0 700.0,625.0 705.0,625.0" fill="rgb(0,0,0)" opacity="1.0" shape-rendering="crispEdges" /><circle cx="730.0" cy="630.0" r="8.333333" fill="rgb(0,0,0)" opacity="1.0" /><polygon points="735.0,625.0 735.0,635.0 725.0,635.0 720.0,635.0 720.0,625.0 725.0,625.0" fill="rgb(0,0,0)" opacity="1.0" shape-rendering="crispEdges" /><polygon points="245.0,640.0 255.0,640.0 255.0,645.0 255.0,655.0 255.0,660.0 245.0,660.0 245.0,655.0 245.0,645.0" fill="rgb(0,0,0)" opacity="1.0" shape-rendering="crispEdges" /><polygon points="315.0,645.0 320.0,645.0 320.0,655.0 315.0,655.0 315.0,660.0 305.0,660.0 305.0,655.0 305.0,645.0" fill="rgb(0,0,0)" opacity="1.0" shape-rendering="crispEdges" /><polygon points="335.0,645.0 335.0,655.0 335.0,660.0 325.0,660.0 325.0,655.0 320.0,655.0 320.0,645.0 325.0,645.0" fill="rgb(0,0,0)" opacity="1.0" shape-rendering="crispEdges" /><polygon points="395.0,645.0 400.0,645.0 400.0,655.0 395.0,655.0 395.0,660.0 385.0,660.0 385.0,655.0 385.0,645.0" fill="rgb(0,0,0)" opacity="1.0" shape-rendering="crispEdges" /><circle cx="410.0" cy="650.0" r="8.333333" fill="rgb(0,0,0)" opacity="1.0" /><polygon points="415.0,645.0 415.0,655.0 405.0,655.0 400.0,655.0 400.0,645.0 405.0,645.0" fill="rgb(0,0,0)" opacity="1.0" shape-rendering="crispEdges" /><polygon points="565.0,640.0 575.0,640.0 575.0,645.0 580.0,645.0 580.0,655.0 575.0,655.0 565.0,655.0 565.0,645.0" fill="rgb(0,0,0)" opacity="1.0" shape-rendering="crispEdges" /><polygon points="595.0,645.0 600.0,645.0 600.0,655.0 595.0,655.0 595.0,660.0 585.0,660.0 585.0,655.0 580.0,655.0 580.0,645.0 585.0,645.0" fill="rgb(0,0,0)" opacity="1.0" shape-rendering="crispEdges" /><polygon points="615.0,645.0 620.0,645.0 620.0,655.0 615.0,655.0 615.0,660.0 605.0,660.0 605.0,655.0 600.0,655.0 600.0,645.0 605.0,645.0" fill="rgb(0,0,0)" opacity="1.0" shape-rendering="crispEdges" /><polygon points="635.0,645.0 640.0,645.0 640.0,655.0 635.0,655.0 635.0,660.0 625.0,660.0 625.0,655.0 620.0,655.0 620.0,645.0 625.0,645.0" fill="rgb(0,0,0)" opacity="1.0" shape-rendering="crispEdges" /><polygon points="645.0,640.0 655.0,640.0 655.0,645.0 655.0,655.0 645.0,655.0 640.0,655.0 640.0,645.0 645.0,645.0" fill="rgb(0,0,0)" opacity="1.0" shape-rendering="crispEdges" /><polygon points="685.0,640.0 695.0,640.0 695.0,645.0 700.0,645.0 700.0,655.0 695.0,655.0 695.0,660.0 685.0,660.0 685.0,655.0 685.0,645.0" fill="rgb(0,0,0)" opacity="1.0" shape-rendering="crispEdges" /><polygon points="705.0,640.0 715.0,640.0 715.0,645.0 715.0,655.0 715.0,660.0 705.0,660.0 705.0,655.0 700.0,655.0 700.0,645.0 705.0,645.0" fill="rgb(0,0,0)" opacity="1.0" shape-rendering="crispEdges" /><polygon points="245.0,660.0 255.0,660.0 255.0,665.0 260.0,665.0 260.0,675.0 255.0,675.0 255.0,680.0 245.0,680.0 245.0,675.0 245.0,665.0" fill="rgb(0,0,0)" opacity="1.0" shape-rendering="crispEdges" /><circle cx="270.0" cy="670.0" r="8.333333" fill="rgb(0,0,0)" opacity="1.0" /><polygon points="275.0,665.0 275.0,675.0 265.0,675.0 260.0,675.0 260.0,665.0 265.0,665.0" fill="rgb(0,0,0)" opacity="1.0" shape-rendering="crispEdges" /><polygon points="305.0,660.0 315.0,660.0 315.0,665.0 320.0,665.0 320.0,675.0 315.0,675.0 315.0,680.0 305.0,680.0 305.0,675.0 305.0,665.0" fill="rgb(0,0,0)" opacity="1.0" shape-rendering="crispEdges" /><polygon points="325.0,660.0 335.0,660.0 335.0,665.0 335.0,675.0 325.0,675.0 320.0,675.0 320.0,665.0 325.0,665.0" fill="rgb(0,0,0)" opacity="1.0" shape-rendering="crispEdges" /><polygon points="375.0,665.0 380.0,665.0 380.0,675.0 375.0,675.0 375.0,680.0 365.0,680.0 365.0,675.0 365.0,665.0" fill="rgb(0,0,0)" opacity="1.0" shape-rendering="crispEdges" /><polygon points="385.0,660.0 395.0,660.0 395.0,665.0 395.0,675.0 395.0,680.0 385.0,680.0 385.0,675.0 380.0,675.0 380.0,665.0 385.0,665.0" fill="rgb(0,0,0)" opacity="1.0" shape-rendering="crispEdges" /><circle cx="450.0" cy="670.0" r="8.333333" fill="rgb(0,0,0)" opacity="1.0" /><polygon points="455.0,665.0 455.0,675.0 455.0,680.0 445.0,680.0 445.0,675.0 445.0,665.0" fill="rgb(0,0,0)" opacity="1.0" shape-rendering="crispEdges" /><polygon points="515.0,665.0 515.0,675.0 505.0,675.0 505.0,665.0" fill="rgb(0,0,0)" opacity="1.0" shape-rendering="crispEdges" /><circle cx="550.0" cy="670.0" r="8.333333" fill="rgb(0,0,0)" opacity="1.0" /><polygon points="555.0,665.0 555.0,675.0 555.0,680.0 545.0,680.0 545.0,675.0 545.0,665.0" fill="rgb(0,0,0)" opacity="1.0" shape-rendering="crispEdges" /><polygon points="585.0,660.0 595.0,660.0 595.0,665.0 600.0,665.0 600.0,675.0 595.0,675.0 595.0,680.0 585.0,680.0 585.0,675.0 585.0,665.0" fill="rgb(0,0,0)" opacity="1.0" shape-rendering="crispEdges" /><polygon points="605.0,660.0 615.0,660.0 615.0,665.0 620.0,665.0 620.0,675.0 615.0,675.0 615.0,680.0 605.0,680.0 605.0,675.0 600.0,675.0 600.0,665.0 605.0,665.0" fill="rgb(0,0,0)" opacity="1.0" shape-rendering="crispEdges" /><polygon points="625.0,660.0 635.0,660.0 635.0,665.0 635.0,675.0 635.0,680.0 625.0,680.0 625.0,675.0 620.0,675.0 620.0,665.0 625.0,665.0" fill="rgb(0,0,0)" opacity="1.0" shape-rendering="crispEdges" /><circle cx="670.0" cy="670.0" r="8.333333" fill="rgb(0,0,0)" opacity="1.0" /><polygon points="675.0,665.0 680.0,665.0 680.0,675.0 675.0,675.0 665.0,675.0 665.0,665.0" fill="rgb(0,0,0)" opacity="1.0" shape-rendering="crispEdges" /><polygon points="685.0,660.0 695.0,660.0 695.0,665.0 700.0,665.0 700.0,675.0 695.0,675.0 695.0,680.0 685.0,680.0 685.0,675.0 680.0,675.0 680.0,665.0 685.0,665.0" fill="rgb(0,0,0)" opacity="1.0" shape-rendering="crispEdges" /><polygon points="705.0,660.0 715.0,660.0 715.0,665.0 715.0,675.0 705.0,675.0 700.0,675.0 700.0,665.0 705.0,665.0" fill="rgb(0,0,0)" opacity="1.0" shape-rendering="crispEdges" /><circle cx="250.0" cy="690.0" r="8.333333" fill="rgb(0,0,0)" opacity="1.0" /><polygon points="245.0,680.0 255.0,680.0 255.0,685.0 255.0,695.0 245.0,695.0 245.0,685.0" fill="rgb(0,0,0)" opacity="1.0" shape-rendering="crispEdges" /><circle cx="290.0" cy="690.0" r="8.333333" fill="rgb(0,0,0)" opacity="1.0" /><polygon points="295.0,685.0 300.0,685.0 300.0,695.0 295.0,695.0 285.0,695.0 285.0,685.0" fill="rgb(0,0,0)" opacity="1.0" shape-rendering="crispEdges" /><polygon points="305.0,680.0 315.0,680.0 315.0,685.0 315.0,695.0 315.0,700.0 305.0,700.0 305.0,695.0 300.0,695.0 300.0,685.0 305.0,685.0" fill="rgb(0,0,0)" opacity="1.0" shape-rendering="crispEdges" /><polygon points="365.0,680.0 375.0,680.0 375.0,685.0 380.0,685.0 380.0,695.0 375.0,695.0 365.0,695.0 365.0,685.0" fill="rgb(0,0,0)" opacity="1.0" shape-rendering="crispEdges" /><polygon points="385.0,680.0 395.0,680.0 395.0,685.0 400.0,685.0 400.0,695.0 395.0,695.0 395.0,700.0 385.0,700.0 385.0,695.0 380.0,695.0 380.0,685.0 385.0,685.0" fill="rgb(0,0,0)" opacity="1.0" shape-rendering="crispEdges" /><polygon points="415.0,685.0 420.0,685.0 420.0,695.0 415.0,695.0 405.0,695.0 400.0,695.0 400.0,685.0 405.0,685.0" fill="rgb(0,0,0)" opacity="1.0" shape-rendering="crispEdges" /><polygon points="435.0,685.0 440.0,685.0 440.0,695.0 435.0,695.0 425.0,695.0 420.0,695.0 420.0,685.0 425.0,685.0" fill="rgb(0,0,0)" opacity="1.0" shape-rendering="crispEdges" /><polygon points="445.0,680.0 455.0,680.0 455.0,685.0 455.0,695.0 445.0,695.0 440.0,695.0 440.0,685.0 445.0,685.0" fill="rgb(0,0,0)" opacity="1.0" shape-rendering="crispEdges" /><polygon points="495.0,685.0 495.0,695.0 485.0,695.0 485.0,685.0" fill="rgb(0,0,0)" opacity="1.0" shape-rendering="crispEdges" /><polygon points="545.0,680.0 555.0,680.0 555.0,685.0 560.0,685.0 560.0,695.0 555.0,695.0 545.0,695.0 545.0,685.0" fill="rgb(0,0,0)" opacity="1.0" shape-rendering="crispEdges" /><polygon points="575.0,685.0 580.0,685.0 580.0,695.0 575.0,695.0 565.0,695.0 560.0,695.0 560.0,685.0 565.0,685.0" fill="rgb(0,0,0)" opacity="1.0" shape-rendering="crispEdges" /><polygon points="585.0,680.0 595.0,680.0 595.0,685.0 600.0,685.0 600.0,695.0 595.0,695.0 585.0,695.0 580.0,695.0 580.0,685.0 585.0,685.0" fill="rgb(0,0,0)" opacity="1.0" shape-rendering="crispEdges" /><polygon points="605.0,680.0 615.0,680.0 615.0,685.0 620.0,685.0 620.0,695.0 615.0,695.0 605.0,695.0 600.0,695.0 600.0,685.0 605.0,685.0" fill="rgb(0,0,0)" opacity="1.0" shape-rendering="crispEdges" /><polygon points="625.0,680.0 635.0,680.0 635.0,685.0 635.0,695.0 625.0,695.0 620.0,695.0 620.0,685.0 625.0,685.0" fill="rgb(0,0,0)" opacity="1.0" shape-rendering="crispEdges" /><circle cx="690.0" cy="690.0" r="8.333333" fill="rgb(0,0,0)" opacity="1.0" /><polygon points="685.0,680.0 695.0,680.0 695.0,685.0 695.0,695.0 685.0,695.0 685.0,685.0" fill="rgb(0,0,0)" opacity="1.0" shape-rendering="crispEdges" /><polygon points="305.0,700.0 315.0,700.0 315.0,705.0 315.0,715.0 315.0,720.0 305.0,720.0 305.0,715.0 305.0,705.0" fill="rgb(0,0,0)" opacity="1.0" shape-rendering="crispEdges" /><polygon points="355.0,705.0 355.0,715.0 345.0,715.0 345.0,705.0" fill="rgb(0,0,0)" opacity="1.0" shape-rendering="crispEdges" /><polygon points="385.0,700.0 395.0,700.0 395.0,705.0 395.0,715.0 395.0,720.0 385.0,720.0 385.0,715.0 385.0,705.0" fill="rgb(0,0,0)" opacity="1.0" shape-rendering="crispEdges" /><polygon points="475.0,705.0 475.0,715.0 465.0,715.0 465.0,705.0" fill="rgb(0,0,0)" opacity="1.0" shape-rendering="crispEdges" /><polygon points="515.0,705.0 520.0,705.0 520.0,715.0 515.0,715.0 515.0,720.0 505.0,720.0 505.0,715.0 505.0,705.0" fill="rgb(0,0,0)" opacity="1.0" shape-rendering="crispEdges" /><polygon points="535.0,705.0 535.0,715.0 535.0,720.0 525.0,720.0 525.0,715.0 520.0,715.0 520.0,705.0 525.0,705.0" fill="rgb(0,0,0)" opacity="1.0" shape-rendering="crispEdges" /><circle cx="650.0" cy="710.0" r="8.333333" fill="rgb(0,0,0)" opacity="1.0" /><polygon points="655.0,705.0 660.0,705.0 660.0,715.0 655.0,715.0 645.0,715.0 645.0,705.0" fill="rgb(0,0,0)" opacity="1.0" shape-rendering="crispEdges" /><circle cx="670.0" cy="710.0" r="8.333333" fill="rgb(0,0,0)" opacity="1.0" /><polygon points="675.0,705.0 675.0,715.0 665.0,715.0 660.0,715.0 660.0,705.0 665.0,705.0" fill="rgb(0,0,0)" opacity="1.0" shape-rendering="crispEdges" /><polygon points="715.0,705.0 720.0,705.0 720.0,715.0 715.0,715.0 715.0,720.0 705.0,720.0 705.0,715.0 705.0,705.0" fill="rgb(0,0,0)" opacity="1.0" shape-rendering="crispEdges" /><circle cx="730.0" cy="710.0" r="8.333333" fill="rgb(0,0,0)" opacity="1.0" /><polygon points="735.0,705.0 735.0,715.0 725.0,715.0 720.0,715.0 720.0,705.0 725.0,705.0" fill="rgb(0,0,0)" opacity="1.0" shape-rendering="crispEdges" /><polygon points="255.0,725.0 255.0,735.0 245.0,735.0 245.0,725.0" fill="rgb(0,0,0)" opacity="1.0" shape-rendering="crispEdges" /><circle cx="290.0" cy="730.0" r="8.333333" fill="rgb(0,0,0)" opacity="1.0" /><polygon points="295.0,725.0 300.0,725.0 300.0,735.0 295.0,735.0 285.0,735.0 285.0,725.0" fill="rgb(0,0,0)" opacity="1.0" shape-rendering="crispEdges" /><polygon points="305.0,720.0 315.0,720.0 315.0,725.0 320.0,725.0 320.0,735.0 315.0,735.0 305.0,735.0 300.0,735.0 300.0,725.0 305.0,725.0" fill="rgb(0,0,0)" opacity="1.0" shape-rendering="crispEdges" /><circle cx="330.0" cy="730.0" r="8.333333" fill="rgb(0,0,0)" opacity="1.0" /><polygon points="335.0,725.0 335.0,735.0 325.0,735.0 320.0,735.0 320.0,725.0 325.0,725.0" fill="rgb(0,0,0)" opacity="1.0" shape-rendering="crispEdges" /><circle cx="390.0" cy="730.0" r="8.333333" fill="rgb(0,0,0)" opacity="1.0" /><polygon points="385.0,720.0 395.0,720.0 395.0,725.0 395.0,735.0 385.0,735.0 385.0,725.0" fill="rgb(0,0,0)" opacity="1.0" shape-rendering="crispEdges" /><polygon points="435.0,725.0 435.0,735.0 425.0,735.0 425.0,725.0" fill="rgb(0,0,0)" opacity="1.0" shape-rendering="crispEdges" /><circle cx="490.0" cy="730.0" r="8.333333" fill="rgb(0,0,0)" opacity="1.0" /><polygon points="495.0,725.0 500.0,725.0 500.0,735.0 495.0,735.0 485.0,735.0 485.0,725.0" fill="rgb(0,0,0)" opacity="1.0" shape-rendering="crispEdges" /><polygon points="505.0,720.0 515.0,720.0 515.0,725.0 520.0,725.0 520.0,735.0 515.0,735.0 505.0,735.0 500.0,735.0 500.0,725.0 505.0,725.0" fill="rgb(0,0,0)" opacity="1.0" shape-rendering="crispEdges" /><polygon points="525.0,720.0 535.0,720.0 535.0,725.0 535.0,735.0 525.0,735.0 520.0,735.0 520.0,725.0 525.0,725.0" fill="rgb(0,0,0)" opacity="1.0" shape-rendering="crispEdges" /><circle cx="570.0" cy="730.0" r="8.333333" fill="rgb(0,0,0)" opacity="1.0" /><polygon points="575.0,725.0 580.0,725.0 580.0,735.0 575.0,735.0 565.0,735.0 565.0,725.0" fill="rgb(0,0,0)" opacity="1.0" shape-rendering="crispEdges" /><polygon points="595.0,725.0 600.0,725.0 600.0,735.0 595.0,735.0 585.0,735.0 580.0,735.0 580.0,725.0 585.0,725.0" fill="rgb(0,0,0)" opacity="1.0" shape-rendering="crispEdges" /><circle cx="610.0" cy="730.0" r="8.333333" fill="rgb(0,0,0)" opacity="1.0" /><polygon points="615.0,725.0 615.0,735.0 605.0,735.0 600.0,735.0 600.0,725.0 605.0,725.0" fill="rgb(0,0,0)" opacity="1.0" shape-rendering="crispEdges" /><circle cx="690.0" cy="730.0" r="8.333333" fill="rgb(0,0,0)" opacity="1.0" /><polygon points="695.0,725.0 700.0,725.0 700.0,735.0 695.0,735.0 685.0,735.0 685.0,725.0" fill="rgb(0,0,0)" opacity="1.0" shape-rendering="crispEdges" /><polygon points="705.0,720.0 715.0,720.0 715.0,725.0 715.0,735.0 705.0,735.0 700.0,735.0 700.0,725.0 705.0,725.0" fill="rgb(0,0,0)" opacity="1.0" shape-rendering="crispEdges" /><path d="M80 80 H192.0 A28.0 28.0 0 0 1 220 108.0 V220 H108.0 A28.0 28.0 0 0 1 80 192.0 V108.0 A28.0 28.0 0 0 1 108 80 Z M100.0 100.0 H180.0 A20.0 20.0 0 0 1 200.0 120.0 V200.0 H120.0 A20.0 20.0 0 0 1 100.0 180.0 V120.0 A20.0 20.0 0 0 1 120.0 100.0 Z" fill-rule="evenodd" fill="rgb(0,0,0)" opacity="1.0" /><path d="M600 80 H712.0 A28.0 28.0 0 0 1 740 108.0 V192.0 A28.0 28.0 0 0 1 712.0 220 H600 V108.0 A28.0 28.0 0 0 1 628 80 Z M620.0 100.0 H700.0 A20.0 20.0 0 0 1 720.0 120.0 V180.0 A20.0 20.0 0 0 1 700.0 200.0 H620.0 V120.0 A20.0 20.0 0 0 1 640.0 100.0 Z" fill-rule="evenodd" fill="rgb(0,0,0)" opacity="1.0" /><circle cx="150.0" cy="150.0" r="30.0" fill="rgb(0,0,0)" opacity="1.0" /><circle cx="670.0" cy="150.0" r="30.0" fill="rgb(0,0,0)" opacity="1.0" /><path d="M80 600 H220 V712.0 A28.0 28.0 0 0 1 192.0 740 H108.0 A28.0 28.0 0 0 1 80 712.0 V628.0 A28.0 28.0 0 0 1 108 600 Z M100.0 620.0 H200.0 V700.0 A20.0 20.0 0 0 1 180.0 720.0 H120.0 A20.0 20.0 0 0 1 100.0 700.0 V640.0 A20.0 20.0 0 0 1 120.0 620.0 Z" fill-rule="evenodd" fill="rgb(0,0,0)" opacity="1.0" /><circle cx="150.0" cy="670.0" r="30.0" fill="rgb(0,0,0)" opacity="1.0" /></svg></g></svg>